<?xml version="1.0" encoding="UTF-8" standalone="no"?>
<!DOCTYPE svg  PUBLIC '-//W3C//DTD SVG 1.1//EN'  'http://www.w3.org/Graphics/SVG/1.1/DTD/svg11.dtd'>
<svg xmlns="http://www.w3.org/2000/svg">
<defs>
<font id="Georgia-Bold" horiz-adv-x="1440">
<font-face underline-position="-119" font-weight="700" descent="-410" panose-1="2 4 8 2 5 4 5 2 2 3" units-per-em="2048" unicode-range="U+0020-F00D" bbox="-239 -444 2586 1868" x-height="992" underline-thickness="122" font-family="Georgia" ascent="1638" cap-height="1419"/>
<missing-glyph horiz-adv-x="2048"/>
<glyph glyph-name=".notdef" horiz-adv-x="2048"/>
<glyph glyph-name=".null" horiz-adv-x="0"/>
<glyph glyph-name="nonmarkingreturn" horiz-adv-x="2048"/>
<glyph glyph-name="space" horiz-adv-x="520" unicode=" "/>
<glyph glyph-name="space" horiz-adv-x="520" unicode=" "/>
<glyph glyph-name="exclam" horiz-adv-x="771" unicode="!" d="M578 156q0 -76 -57.5 -130.5t-134.5 -54.5q-78 0 -135.5 54.5t-57.5 130.5t57.5 131.5t135.5 55.5q77 0 134.5 -55.5t57.5 -131.5zM580 1261q0 -41 -14.5 -108.5t-36.5 -158.5q-21 -86 -48 -214.5t-57 -317.5h-77q-30 191 -57 318t-48 213q-19 79 -35 154.5t-16 113.5 q0 77 57 131.5t137 54.5q79 0 137 -54.5t58 -131.5z"/>
<glyph glyph-name="quotedbl" horiz-adv-x="1044" unicode='&quot;' d="M451 1369q0 -55 -48.5 -213.5t-82.5 -332.5h-69q-35 174 -83 332.5t-48 213.5q0 64 43 112t123 48q78 0 121.5 -48t43.5 -112zM924 1369q0 -55 -48.5 -213.5t-82.5 -332.5h-69q-35 174 -83 332.5t-48 213.5q0 64 43 112t123 48q78 0 121.5 -48t43.5 -112z"/>
<glyph glyph-name="numbersign" d="M877 750h-233l-79 -261h232zM1285 748h-262l-78 -257h280v-160h-328l-101 -331h-149l101 331h-230l-101 -331h-149l101 331h-214v160h262l79 257h-281v160h329l104 341h149l-104 -341h230l104 341h149l-104 -341h213v-160z" unicode="#"/>
<glyph glyph-name="dollar" horiz-adv-x="1312" unicode="$" d="M973 293q0 83 -49 134.5t-155 71.5q-11 2 -26 4t-29 4v-440q137 13 198 75.5t61 150.5zM615 821v400q-114 -12 -174.5 -67t-60.5 -132q0 -89 49.5 -135t143.5 -60q15 -2 22.5 -3.5t19.5 -2.5zM1207 411q0 -186 -142 -300.5t-351 -128.5v-281h-99v281q-211 4 -360 96.5 t-149 214.5q0 71 43 120t119 49q79 0 125.5 -41.5t46.5 -112.5q0 -51 -17 -102.5t-28 -80.5q27 -14 89.5 -36t130.5 -22v449q-14 2 -27 3.5t-30 3.5q-192 18 -303 116t-111 256q0 70 26 137t80 125q55 60 145.5 100.5t219.5 48.5v218h99v-218q205 -8 332 -85.5t127 -191.5 q0 -68 -41.5 -115.5t-114.5 -47.5q-76 0 -120 40t-44 108q0 47 15.5 92t27.5 81q-27 14 -75.5 23t-106.5 11v-409q15 -1 38 -5t40 -6q205 -30 310 -130t105 -260z"/>
<glyph glyph-name="percent" horiz-adv-x="1801" unicode="%" d="M1574 1428l-1183 -1428h-163l1180 1428h166zM1445 337q0 138 -27 220.5t-99 82.5q-65 0 -94 -77.5t-29 -215.5q0 -144 26.5 -226.5t100.5 -82.5q64 0 93 77.5t29 221.5zM1710 339q0 -167 -112.5 -270.5t-276.5 -103.5q-166 0 -278 103.5t-112 270.5t112 270.5t277 103.5 t277.5 -103.5t112.5 -270.5zM605 1084q0 138 -27 220.5t-99 82.5q-65 0 -94 -77.5t-29 -215.5q0 -144 26.5 -226.5t100.5 -82.5q64 0 93 77.5t29 221.5zM870 1086q0 -167 -112.5 -270.5t-276.5 -103.5q-166 0 -278 103.5t-112 270.5t112 270.5t277 103.5t277.5 -103.5 t112.5 -270.5z"/>
<glyph glyph-name="ampersand" horiz-adv-x="1637" unicode="&amp;" d="M878 213q-84 101 -195.5 235t-207.5 255q-53 -52 -76.5 -121.5t-23.5 -139.5q0 -133 85 -217t216 -84q61 0 106 15.5t96 56.5zM871 1172q0 88 -42.5 138.5t-110.5 50.5q-65 0 -105 -41.5t-40 -108.5q0 -58 37 -131.5t114 -178.5q76 53 111.5 123.5t35.5 147.5zM1646 0 h-588q-24 27 -62 70.5t-65 77.5q-106 -98 -211.5 -140.5t-224.5 -42.5q-187 0 -306.5 101t-119.5 263q0 81 21.5 139t69.5 116q46 56 114 100.5t153 83.5q-90 114 -125.5 194t-35.5 164q0 144 120 237.5t287 93.5q156 0 253 -74t97 -196q0 -106 -58 -189.5t-193 -163.5 q109 -140 168.5 -210.5t158.5 -185.5q63 93 94.5 171t31.5 131q0 30 -44.5 48.5t-125.5 34.5v76h559v-76q-91 -8 -134.5 -22t-85.5 -57q-18 -18 -44.5 -63.5t-50.5 -87.5q-29 -51 -62 -107t-80 -117q92 -108 151.5 -161.5t97.5 -73.5q43 -23 109 -36.5t131 -17.5v-80z"/>
<glyph glyph-name="quotesingle" horiz-adv-x="551" unicode="&apos;" d="M441 1369q0 -55 -48.5 -213.5t-82.5 -332.5h-69q-35 174 -83 332.5t-48 213.5q0 64 43 112t123 48q78 0 121.5 -48t43.5 -112z"/>
<glyph glyph-name="parenleft" horiz-adv-x="915" unicode="(" d="M848 -328q-137 18 -268.5 81t-234.5 177q-104 114 -167 280.5t-63 391.5t63 391.5t167 280.5q103 113 234.5 176.5t268.5 81.5v-90q-189 -35 -290 -243.5t-101 -596.5t101 -596.5t290 -243.5v-90z"/>
<glyph glyph-name="parenright" horiz-adv-x="915" unicode=")" d="M801 602q0 -225 -63 -391.5t-167 -280.5q-103 -113 -234.5 -176.5t-268.5 -81.5v90q189 35 290 243.5t101 596.5t-101 596.5t-290 243.5v90q137 -18 268.5 -81.5t234.5 -176.5q104 -114 167 -280.5t63 -391.5z"/>
<glyph glyph-name="asterisk" horiz-adv-x="987" unicode="*" d="M907 1083q0 -45 -25.5 -65.5t-64.5 -20.5q-25 0 -103.5 22t-166.5 33q58 -76 128 -143t70 -114q0 -33 -29 -57.5t-61 -24.5q-22 0 -41 12.5t-33 35.5q-12 22 -32.5 100t-54.5 160q-33 -78 -55 -160.5t-32 -99.5q-16 -25 -32.5 -36.5t-41.5 -11.5q-33 0 -61.5 23.5 t-28.5 58.5q0 47 70 114t128 143q-84 -10 -165 -32.5t-105 -22.5q-39 0 -64.5 20.5t-25.5 65.5q0 41 25.5 63.5t64.5 22.5q31 0 99.5 -20.5t170.5 -32.5q-66 84 -132 147.5t-66 109.5q0 33 29 57.5t61 24.5q23 0 41.5 -12t32.5 -35q12 -22 33 -101t54 -160q33 82 54.5 161 t32.5 100q12 21 31.5 34t42.5 13q33 0 61.5 -23.5t28.5 -58.5q0 -46 -62.5 -107.5t-134.5 -149.5q100 13 171.5 33t97.5 20q39 0 64.5 -22.5t25.5 -63.5z"/>
<glyph glyph-name="plus" d="M1275 493h-473v-473h-165v473h-473v163h473v473h165v-473h473v-163z" unicode="+"/>
<glyph glyph-name="comma" horiz-adv-x="672" unicode="," d="M539 53q0 -122 -102 -249.5t-245 -192.5l-44 71q49 26 92.5 56t77.5 70q35 42 55.5 85.5t25.5 106.5h-56q-102 0 -154 46t-52 127q0 64 50 115.5t123 51.5q112 0 170.5 -76.5t58.5 -210.5z"/>
<glyph glyph-name="hyphen" horiz-adv-x="776" unicode="-" d="M691 435h-606v221h606v-221z"/>
<glyph glyph-name="hyphen" horiz-adv-x="776" unicode="­" d="M691 435h-606v221h606v-221z"/>
<glyph glyph-name="period" horiz-adv-x="672" unicode="." d="M534 166q0 -79 -58.5 -137t-138.5 -58q-81 0 -139.5 57.5t-58.5 137.5t58.5 138.5t139.5 58.5q80 0 138.5 -59t58.5 -138z"/>
<glyph glyph-name="slash" horiz-adv-x="966" unicode="/" d="M898 1523l-691 -1947h-180l689 1947h182z"/>
<glyph glyph-name="zero" horiz-adv-x="1436" unicode="0" d="M902 187q29 67 41.5 149.5t12.5 200.5q0 106 -11.5 191t-38.5 151q-28 68 -74 105t-113 37q-68 0 -114 -36.5t-75 -103.5q-26 -61 -38 -149.5t-12 -194.5q0 -111 10.5 -189t38.5 -150q25 -65 72 -105t116 -40q64 0 111 36t74 98zM1184 932q76 -80 112.5 -182.5 t36.5 -212.5q0 -131 -45.5 -236.5t-124.5 -178.5q-83 -76 -193 -116t-253 -40q-151 0 -266.5 47t-192.5 124q-76 76 -115.5 179t-39.5 221q0 117 37.5 217t115.5 181q76 79 193 126.5t269 47.5q157 0 274 -49t192 -128z"/>
<glyph glyph-name="one" horiz-adv-x="1003" unicode="1" d="M946 0h-825v76q30 2 95.5 10t89.5 16q30 10 47 34t17 66v634h-253v95h55q87 0 150.5 19t105.5 46q43 28 70.5 58t43.5 53h176q-3 -65 -6 -152t-3 -156v-586q0 -36 15.5 -62.5t44.5 -40.5q26 -12 87 -22t90 -12v-76z"/>
<glyph glyph-name="two" horiz-adv-x="1283" unicode="2" d="M1194 0h-1084v181q71 72 155.5 131.5t171.5 105.5q93 49 156 87.5t99 80.5q36 39 51.5 85t15.5 103q0 127 -60 185t-159 58q-31 0 -58.5 -4.5t-57.5 -16.5q15 -45 29 -93t14 -107q0 -71 -51 -113t-130 -42q-75 0 -119.5 49t-44.5 119q0 122 142 211t346 89 q236 0 381.5 -81t145.5 -261q0 -93 -38.5 -150t-113.5 -100q-67 -39 -148.5 -64t-174.5 -48q-99 -25 -172.5 -53t-130.5 -67v-11h835v-274z"/>
<glyph glyph-name="three" horiz-adv-x="1279" unicode="3" d="M1036 336q60 -40 100 -106.5t40 -163.5q0 -187 -179 -311t-461 -124q-202 0 -343 86.5t-141 212.5q0 71 45.5 120t121.5 49q79 0 129.5 -42.5t50.5 -113.5q0 -49 -17.5 -109.5t-27.5 -89.5q22 -10 57 -15.5t82 -5.5q58 0 113.5 19t96.5 62q43 45 66.5 105.5t23.5 160.5 q0 57 -10.5 108t-38.5 89t-76.5 59.5t-123.5 21.5h-127v121h90q126 0 182.5 74.5t56.5 227.5q0 123 -54.5 184.5t-157.5 61.5q-39 0 -68 -4.5t-59 -16.5q11 -34 27 -95t16 -104q0 -71 -49 -113t-128 -42q-75 0 -119.5 49t-44.5 119q0 124 143.5 211.5t360.5 87.5 q150 0 248.5 -35t155.5 -86q56 -50 77.5 -107.5t21.5 -103.5q0 -44 -18.5 -99.5t-54.5 -97.5q-44 -51 -115 -88t-166 -57v-16q65 -4 140.5 -24t133.5 -59z"/>
<glyph glyph-name="four" horiz-adv-x="1330" unicode="4" d="M711 221v643l-509 -643h509zM1261 10h-215v-379h-335v379h-662v184l718 909h279v-882h215v-211z"/>
<glyph glyph-name="five" horiz-adv-x="1227" unicode="5" d="M964 474q75 -50 126 -134.5t51 -209.5q0 -220 -170.5 -359.5t-435.5 -139.5q-205 0 -342 88t-137 208q0 71 45.5 120t121.5 49q79 0 129.5 -42.5t50.5 -113.5q0 -50 -17 -109t-28 -90q24 -9 56 -13.5t60 -4.5q57 0 112 25.5t94 74.5q45 56 68 132.5t23 173.5 q0 141 -75.5 231.5t-195.5 90.5q-93 0 -156 -37.5t-113 -98.5l-78 26l97 736h845v-276h-773l-41 -330q54 34 139 65t200 31q89 0 175.5 -19.5t168.5 -73.5z"/>
<glyph glyph-name="six" horiz-adv-x="1327" unicode="6" d="M873 436q0 158 -55.5 251t-148.5 93q-62 0 -107.5 -21t-91.5 -88q0 -5 -0.5 -17.5t-1.5 -32.5q-1 -22 -1.5 -41t-0.5 -32q0 -240 58.5 -367.5t150.5 -127.5q89 0 143.5 100t54.5 283zM1243 463q0 -212 -159.5 -355t-407.5 -143q-259 0 -416 162.5t-157 436.5 q0 366 247 605t671 289l23 -99l-106 -18q-121 -33 -202.5 -90.5t-134.5 -131.5q-51 -71 -80 -160.5t-44 -176.5q87 78 172.5 105t183.5 27q172 0 291 -125.5t119 -325.5z"/>
<glyph glyph-name="seven" horiz-adv-x="1135" unicode="7" d="M1144 958l-728 -1327h-150l674 1177h-458q-87 0 -136 -1t-90 -20q-33 -15 -56.5 -69.5t-37.5 -133.5h-73v493h1055v-119z"/>
<glyph glyph-name="eight" horiz-adv-x="1385" unicode="8" d="M945 296q0 70 -30 116t-86 83q-56 36 -142.5 74t-164.5 77q-33 -39 -58 -117t-25 -165q0 -147 71 -230t187 -83t182 68t66 177zM891 1114q0 116 -51.5 187.5t-143.5 71.5q-87 0 -144 -61t-57 -156q0 -66 25 -110.5t71 -77.5q42 -31 118.5 -68t136.5 -67q22 50 33.5 122.5 t11.5 158.5zM1281 397q0 -184 -164.5 -309t-447.5 -125q-253 0 -409 107t-156 274q0 129 83.5 212.5t263.5 125.5q-144 65 -217.5 164t-73.5 221q0 167 159.5 280t394.5 113q228 0 369.5 -100t141.5 -248q0 -114 -77 -191.5t-230 -123.5q192 -69 277.5 -169.5t85.5 -230.5z "/>
<glyph glyph-name="nine" horiz-adv-x="1327" unicode="9" d="M859 453q0 14 1 34t1 39q0 240 -57.5 367.5t-149.5 127.5q-89 0 -144.5 -97t-55.5 -280q0 -160 56.5 -255t148.5 -95q58 0 107 23t91 86q0 5 1 17.5t1 32.5zM1224 508q0 -364 -246 -595.5t-672 -287.5l-23 99l106 18q123 35 204 90t133 128q54 75 82 159t42 173 q-88 -77 -170.5 -101.5t-185.5 -24.5q-86 0 -161 34t-130 93q-56 60 -87.5 144.5t-31.5 183.5q0 211 162 349.5t405 138.5q263 0 418 -163t155 -438z"/>
<glyph glyph-name="colon" horiz-adv-x="752" unicode=":" d="M574 166q0 -79 -58.5 -137t-138.5 -58q-81 0 -139.5 57.5t-58.5 137.5t58.5 138.5t139.5 58.5q80 0 138.5 -59t58.5 -138zM574 799q0 -79 -58.5 -137t-138.5 -58q-81 0 -139.5 57.5t-58.5 137.5t58.5 138.5t139.5 58.5q80 0 138.5 -59t58.5 -138z"/>
<glyph glyph-name="less" d="M1209 6l-1000 500v139l1000 500v-188l-786 -382l786 -381v-188z" unicode="&lt;"/>
<glyph glyph-name="equal" d="M1255 286h-1070v163h1070v-163zM1255 700h-1070v163h1070v-163z" unicode="="/>
<glyph glyph-name="greater" d="M1231 506l-1000 -500v188l786 381l-786 382v188l1000 -500v-139z" unicode="&gt;"/>
<glyph glyph-name="question" horiz-adv-x="1123" unicode="?" d="M656 156q0 -76 -57.5 -130.5t-134.5 -54.5q-78 0 -135.5 54.5t-57.5 130.5t57.5 131.5t135.5 55.5q77 0 134.5 -55.5t57.5 -131.5zM1016 1037q0 -201 -138 -326t-368 -143l-6 -136h-89v389q145 12 227 91.5t82 216.5q0 109 -57.5 174.5t-154.5 65.5q-41 0 -73 -8.5 t-62 -26.5q10 -32 23.5 -82.5t13.5 -93.5q0 -70 -45.5 -108.5t-126.5 -38.5q-76 0 -119.5 48t-43.5 118q0 115 131 195t316 80q219 0 354.5 -114t135.5 -301z"/>
<glyph glyph-name="at" horiz-adv-x="1980" unicode="@" d="M1189 760q-1 55 -27.5 90t-78.5 35q-50 0 -96.5 -45t-83.5 -118q-36 -72 -57.5 -164.5t-21.5 -181.5q0 -68 19.5 -104t62.5 -36q38 0 68 19.5t62 63.5zM1658 1173q87 -92 129.5 -210.5t42.5 -245.5q0 -252 -142.5 -427t-354.5 -175q-110 0 -181 37.5t-91 95.5h-5 q-23 -25 -48.5 -50.5t-54.5 -42.5q-32 -18 -60 -26.5t-75 -8.5q-123 0 -191.5 77.5t-68.5 204.5q0 96 40.5 197.5t110.5 185.5q68 81 164 133.5t199 52.5q69 0 104.5 -24.5t52.5 -74.5h2l32 87h257l-201 -555q-8 -20 -14.5 -56t-6.5 -55q0 -41 18 -64.5t57 -23.5 q157 0 252 144.5t95 378.5q0 117 -39 216t-116 173t-193 116.5t-265 42.5q-143 0 -276.5 -53.5t-242.5 -157.5q-107 -101 -172.5 -247.5t-65.5 -327.5q0 -177 52 -311.5t143 -224.5q92 -91 216 -137t274 -46q171 0 303 44.5t236 125.5l39 -62q-114 -91 -256.5 -146.5 t-328.5 -55.5q-157 0 -316 50.5t-280 149.5q-123 99 -198.5 250t-75.5 350q0 175 68 336.5t193 287.5q123 124 303.5 200t393.5 76q188 0 321.5 -55.5t220.5 -148.5z"/>
<glyph glyph-name="A" horiz-adv-x="1553" unicode="A" d="M864 574l-206 514l-203 -514h409zM1609 0h-773v78q54 4 127 19.5t73 38.5q0 8 -1.5 18t-8.5 27l-121 294h-490q-17 -41 -37.5 -96t-35.5 -98q-19 -56 -22.5 -81t-3.5 -35q0 -32 48.5 -54.5t161.5 -32.5v-78h-582v78q33 2 74.5 10.5t65.5 23.5q41 24 69.5 59t47.5 83 q116 281 232.5 563t257.5 622h200q196 -482 307 -762t189 -464q13 -30 33 -54.5t57 -46.5q28 -16 65 -24t67 -10v-78z"/>
<glyph glyph-name="B" horiz-adv-x="1551" unicode="B" d="M1070 397q0 148 -88 227t-253 79q-19 0 -50.5 -1.5t-46.5 -2.5v-519q9 -37 56 -62.5t114 -25.5q119 0 193.5 80t74.5 225zM1000 1078q0 118 -66.5 184t-199.5 66q-19 0 -49.5 -1.5t-52.5 -2.5v-526h52q162 0 239 75.5t77 204.5zM1322 651q64 -44 104 -110.5t40 -156.5 q0 -108 -45.5 -182.5t-130.5 -117.5q-90 -46 -207.5 -65t-276.5 -19h-737v78q31 3 78 9t66 14q37 15 50.5 39.5t13.5 63.5v1000q0 36 -11 60t-53 42q-31 13 -72 21.5t-72 13.5v78h771q291 0 420 -80t129 -236q0 -72 -29 -126.5t-83 -94.5q-49 -37 -117 -64t-146 -45v-19 q78 -8 162 -34.5t146 -68.5z"/>
<glyph glyph-name="C" horiz-adv-x="1465" unicode="C" d="M813 -38q-156 0 -292 50.5t-237 146.5q-99 94 -156 232.5t-57 304.5q0 165 57.5 305.5t161.5 243.5q102 101 245 156.5t306 55.5q118 0 215 -28.5t164 -64.5l62 55h87l9 -518h-88q-75 237 -180 348t-256 111q-188 0 -286 -165.5t-98 -464.5q0 -169 33.5 -288.5 t87.5 -192.5q58 -76 137 -111.5t175 -35.5q140 0 249.5 76t199.5 230l86 -52q-43 -88 -98 -157.5t-127 -119.5q-79 -55 -174.5 -86t-225.5 -31z"/>
<glyph glyph-name="D" horiz-adv-x="1708" unicode="D" d="M1143 256q49 80 71.5 190.5t22.5 254.5q0 141 -30 257t-88 198t-144.5 127t-196.5 45q-35 0 -79.5 -1.5t-66.5 -2.5v-1077q0 -36 9.5 -63.5t32.5 -48.5t56.5 -32.5t87.5 -11.5q113 0 194 42t131 123zM1347 1273q130 -85 210 -226.5t80 -346.5q0 -180 -71.5 -313.5 t-189.5 -218.5q-120 -85 -272.5 -126.5t-319.5 -41.5h-715v78q32 1 80 6t64 12q36 15 50 40.5t14 61.5v1006q0 34 -13 61.5t-51 44.5t-80.5 23t-65.5 8v78h755q121 0 259 -31t266 -115z"/>
<glyph glyph-name="E" horiz-adv-x="1477" unicode="E" d="M1327 1057h-76q-29 81 -100 164t-141 98q-30 7 -83.5 8.5t-88.5 1.5h-206v-548h146q55 0 100 13t82 50q23 23 46.5 81t30.5 101h76v-592h-76q-6 42 -30.5 105.5t-46.5 87.5q-33 36 -78 49.5t-104 13.5h-146v-409q0 -64 9.5 -101.5t35.5 -57.5q25 -19 68.5 -25t118.5 -6 q35 0 84 1t86 6q42 5 78.5 15t54.5 29q48 49 108 149.5t79 150.5h73l-27 -442h-1331v78q28 2 76 8t68 14q38 16 51 40.5t13 62.5v1001q0 36 -11 59.5t-53 42.5q-26 12 -73 22t-71 13v78h1258v-362z"/>
<glyph glyph-name="F" horiz-adv-x="1375" unicode="F" d="M1344 1040h-77q-29 83 -102.5 176.5t-139.5 102.5q-30 4 -80 7t-92 3h-221v-557h141q60 0 104 13.5t78 48.5q25 25 48.5 83.5t28.5 100.5h76v-597h-76q-4 45 -31 109.5t-46 85.5q-29 32 -74 47.5t-108 15.5h-141v-470q0 -36 13.5 -61.5t51.5 -41.5q22 -9 60.5 -16.5 t76.5 -11.5v-78h-765v78q29 3 77 8.5t67 13.5q36 14 50 39t14 64v1001q0 34 -12.5 59.5t-51.5 42.5q-28 12 -74 22t-70 13v78h1275v-379z"/>
<glyph glyph-name="G" horiz-adv-x="1653" unicode="G" d="M1649 577q-31 -3 -55 -7t-60 -16q-41 -13 -54 -43t-13 -63v-165q0 -50 1 -80.5t3 -75.5q-100 -60 -295.5 -113t-359.5 -53q-154 0 -289 47t-237 141q-102 93 -160.5 231t-58.5 316q0 166 55 307t159 243q102 101 248.5 156t324.5 55q121 0 224 -29.5t170 -63.5l62 55h87 l9 -518h-88q-76 233 -182 346t-268 113q-192 0 -296.5 -168t-104.5 -463q0 -313 102.5 -490t290.5 -177q88 0 156.5 26.5t106.5 61.5v288q0 36 -13 60.5t-52 42.5q-30 14 -75 23t-75 13v78h737v-78z"/>
<glyph glyph-name="H" horiz-adv-x="1870" unicode="H" d="M1801 0h-767v78q25 2 73 6t66 12q37 15 51 39.5t14 62.5v489h-606v-478q0 -34 14.5 -61t49.5 -42q19 -8 65 -17t75 -11v-78h-767v78q25 1 73.5 6.5t70.5 13.5q36 13 50 39.5t14 62.5v1004q0 35 -12.5 59t-51.5 42q-29 13 -76 23.5t-68 12.5v78h767v-78q-31 -2 -74 -10 t-66 -15q-39 -13 -51.5 -41.5t-12.5 -60.5v-424h606v414q0 35 -13 59t-52 42q-26 12 -69.5 22.5t-69.5 13.5v78h767v-78q-32 -2 -72 -8.5t-72 -16.5q-38 -13 -51 -41t-13 -61v-1005q0 -36 13 -61t51 -42q24 -10 69.5 -18t74.5 -10v-78z"/>
<glyph glyph-name="I" horiz-adv-x="913" unicode="I" d="M850 0h-787v78q27 2 79.5 6t72.5 12q37 15 50.5 39.5t13.5 62.5v1006q0 34 -13 60t-51 42q-24 10 -71 20.5t-81 14.5v78h787v-78q-30 -3 -75 -8.5t-76 -15.5q-39 -13 -52 -40.5t-13 -62.5v-1005q0 -36 13.5 -61.5t51.5 -41.5q21 -9 69.5 -17.5t81.5 -10.5v-78z"/>
<glyph glyph-name="J" horiz-adv-x="1219" unicode="J" d="M1166 1341q-40 -5 -68 -10t-63 -14q-41 -11 -52.5 -39t-11.5 -64v-782q0 -108 -43.5 -198t-119.5 -151q-77 -60 -172 -90.5t-203 -30.5q-187 0 -301.5 90t-114.5 247q0 93 52.5 154t144.5 61q87 0 138.5 -51t51.5 -126q0 -64 -44.5 -118.5t-101.5 -100.5v-13 q9 -20 39 -34t61 -14q120 0 188.5 86t68.5 260v801q0 36 -11 60t-53 42q-30 13 -72.5 22t-70.5 13v78h758v-78z"/>
<glyph glyph-name="K" horiz-adv-x="1673" unicode="K" d="M1736 0h-562q-127 195 -229 326t-261 329h-52v-446q0 -36 13 -61t52 -42q18 -8 53.5 -16t70.5 -12v-78h-754v78q27 2 76.5 6t69.5 12q36 14 50 39t14 63v1006q0 35 -12 59t-52 43q-31 14 -75 23t-71 12v78h779v-78q-31 -3 -74.5 -8.5t-74.5 -15.5q-39 -13 -52 -41 t-13 -62v-478h42q78 71 182 171t161 164q80 89 117.5 141t37.5 90q0 17 -36 26t-110 13v78h617v-78q-112 -12 -188 -40.5t-151 -95.5q-107 -96 -176.5 -166.5t-178.5 -180.5q96 -117 231 -286.5t269 -330.5q34 -41 78 -78.5t97 -60.5q25 -11 57 -17t55 -7v-78z"/>
<glyph glyph-name="L" horiz-adv-x="1404" unicode="L" d="M1404 455l-28 -455h-1307v78q35 3 82 9.5t62 12.5q36 14 50 39t14 64v1001q0 36 -11 59.5t-53 42.5q-31 14 -74.5 22.5t-69.5 12.5v78h779v-78q-32 -3 -75.5 -8.5t-75.5 -15.5q-39 -13 -52 -40.5t-13 -62.5v-933q0 -66 9 -104t35 -56q26 -19 72.5 -24.5t128.5 -5.5 q80 0 155.5 9.5t108.5 41.5q51 51 104.5 143.5t85.5 169.5h73z"/>
<glyph glyph-name="M" horiz-adv-x="2096" unicode="M" d="M2019 0h-769v78q34 3 83.5 10t67.5 15q37 15 53 41t16 66v1060l-488 -1247h-126q-9 33 -44.5 131t-57.5 157l-359 975v-863q0 -124 16.5 -188.5t53.5 -94.5q25 -21 89.5 -40t90.5 -22v-78h-610v78q25 3 81.5 13.5t92.5 36.5q40 28 54 94.5t14 189.5v703q0 64 -16 106.5 t-48 67.5q-40 31 -82 40t-85 12v78h653l350 -937l295 761q15 42 29 100t15 76h629v-78q-32 -2 -67 -8t-67 -16q-39 -13 -51.5 -41t-12.5 -62v-1005q0 -36 12.5 -60.5t51.5 -42.5q20 -9 65.5 -17t70.5 -11v-78z"/>
<glyph glyph-name="N" horiz-adv-x="1719" unicode="N" d="M1699 1341q-28 -3 -80 -11t-94 -39q-37 -27 -52.5 -92.5t-15.5 -192.5v-1014h-178l-884 1097v-666q0 -124 16.5 -188.5t53.5 -94.5q27 -22 86 -39t94 -23v-78h-610v78q39 3 89.5 14.5t84.5 35.5q39 29 53.5 87.5t14.5 196.5v672q0 50 -15.5 94.5t-48.5 76.5 q-35 34 -80.5 53.5t-103.5 30.5v80h534l776 -960v537q0 128 -17 190.5t-54 92.5q-29 23 -86 39.5t-92 22.5v78h609v-78z"/>
<glyph glyph-name="O" horiz-adv-x="1679" unicode="O" d="M1123 246q45 91 65 206t20 260q0 123 -17.5 239.5t-59.5 207.5q-43 91 -114 146t-177 55q-181 0 -275 -171.5t-94 -484.5q0 -133 20.5 -251t64.5 -206q45 -89 114 -138.5t170 -49.5q99 0 170 50t113 137zM1380 1261q105 -96 166.5 -232t61.5 -310q0 -155 -52 -295 t-150 -241q-103 -105 -242 -163.5t-331 -58.5q-155 0 -293 51t-243 148q-104 95 -165 231t-61 303q0 174 59.5 315.5t163.5 242.5q103 99 244.5 152.5t301.5 53.5q159 0 298.5 -52t241.5 -145z"/>
<glyph glyph-name="P" horiz-adv-x="1436" unicode="P" d="M1009 1013q0 160 -64.5 237.5t-229.5 77.5h-83v-623h42q164 0 249.5 75.5t85.5 232.5zM1399 1064q0 -120 -49.5 -206.5t-136.5 -140.5q-90 -56 -205.5 -81t-259.5 -25h-116v-399q0 -36 13.5 -62.5t51.5 -42.5q20 -8 65 -17t76 -12v-78h-769v78q29 3 77 8.5t67 13.5 q39 16 51.5 39t12.5 64v1001q0 35 -12 60.5t-52 42.5q-28 12 -74.5 21.5t-69.5 12.5v78h783q275 0 411 -87.5t136 -267.5z"/>
<glyph glyph-name="Q" horiz-adv-x="1679" unicode="Q" d="M1123 246q45 91 65 206t20 260q0 123 -17.5 239.5t-59.5 207.5q-43 91 -114 146t-177 55q-181 0 -275 -171.5t-94 -484.5q0 -133 20.5 -251t64.5 -206q45 -89 114 -138.5t170 -49.5q99 0 170 50t113 137zM1380 1261q105 -96 166.5 -232t61.5 -310q0 -247 -123.5 -434 t-349.5 -269q3 -119 72 -206t163 -87q58 0 101.5 7t78.5 16v-88q-57 -24 -169 -48.5t-235 -24.5q-168 0 -276.5 100.5t-121.5 280.5q-142 14 -264 70t-215 151q-91 94 -144.5 223t-53.5 284q0 174 59.5 315.5t163.5 242.5q103 99 244.5 152.5t301.5 53.5q159 0 298.5 -52 t241.5 -145z"/>
<glyph glyph-name="R" horiz-adv-x="1633" unicode="R" d="M1017 1055q0 142 -79.5 207.5t-226.5 65.5h-79v-594h76q147 0 228 77t81 244zM1698 0h-544q-141 216 -234.5 344t-232.5 296h-55v-431q0 -36 13.5 -61t51.5 -42q19 -8 59.5 -16.5t69.5 -11.5v-78h-757v78q29 3 76.5 8.5t67.5 13.5q38 16 51 40.5t13 62.5v1001 q0 36 -11 60t-53 42q-32 13 -75.5 22t-68.5 13v78h796q267 0 405.5 -83.5t138.5 -252.5q0 -149 -85.5 -239.5t-260.5 -141.5q68 -88 158.5 -204t188.5 -237q31 -39 84.5 -95.5t94.5 -69.5q23 -7 58.5 -12t50.5 -6v-78z"/>
<glyph glyph-name="S" horiz-adv-x="1329" unicode="S" d="M664 -38q-130 0 -242.5 32t-190.5 76l-69 -70h-85l-13 513h86q29 -73 74 -154t104 -145q61 -67 136.5 -109t176.5 -42q136 0 208.5 66.5t72.5 167.5q0 83 -61.5 139.5t-190.5 97.5q-84 27 -154.5 50t-132.5 47q-143 57 -212.5 163t-69.5 237q0 83 36 159.5t105 137.5 q66 57 169 93t224 36q118 0 221 -32.5t162 -65.5l61 60h87l8 -484h-86q-30 78 -70.5 159.5t-85.5 135.5q-49 58 -113 92.5t-150 34.5q-108 0 -176.5 -61t-68.5 -151q0 -85 59.5 -139t185.5 -95q74 -25 151 -50t137 -48q145 -56 220.5 -154.5t75.5 -244.5q0 -92 -43 -178 t-116 -143q-80 -63 -185 -97t-245 -34z"/>
<glyph glyph-name="T" horiz-adv-x="1401" unicode="T" d="M1388 1013h-77q-31 91 -99.5 195t-126.5 112q-32 4 -79 7t-81 3h-47v-1113q0 -36 13 -63.5t51 -43.5q23 -9 71.5 -18.5t82.5 -13.5v-78h-791v78q29 3 81.5 8.5t71.5 13.5q39 16 52 43t13 64v1123h-47q-34 0 -81 -3t-79 -7q-58 -8 -126.5 -112t-99.5 -195h-77v406h1375 v-406z"/>
<glyph glyph-name="U" horiz-adv-x="1707" unicode="U" d="M1703 1341q-29 -3 -83.5 -13.5t-91.5 -36.5q-38 -25 -53.5 -90t-15.5 -195v-528q0 -233 -158 -375t-418 -142q-303 0 -469 137t-166 382v726q0 35 -13.5 60t-51.5 45q-26 13 -64 21t-62 11v76h744v-76q-32 -2 -65 -7.5t-67 -16.5q-38 -12 -51 -40t-13 -63v-716 q0 -211 93 -307t270 -96q174 0 273 106t99 312v481q0 128 -17.5 191.5t-53.5 91.5q-26 22 -90.5 40t-90.5 22v78h615v-78z"/>
<glyph glyph-name="V" horiz-adv-x="1561" unicode="V" d="M1602 1339q-33 -3 -63 -12t-62 -28q-43 -25 -66.5 -53.5t-46.5 -78.5q-31 -69 -87 -201.5t-128 -301.5q-64 -152 -138.5 -333t-142.5 -347h-201q-140 343 -285 697t-204 492q-23 50 -44.5 75.5t-68.5 52.5q-34 19 -60 26.5t-69 13.5v78h769v-76q-108 -13 -146.5 -27.5 t-38.5 -36.5q0 -11 3.5 -23.5t10.5 -33.5q32 -88 116 -287.5t249 -608.5q101 249 168 421t118 304q25 64 41.5 119.5t16.5 83.5q0 32 -46 53.5t-170 31.5v80h575v-80z"/>
<glyph glyph-name="W" horiz-adv-x="2307" unicode="W" d="M2345 1339q-31 -3 -62 -13.5t-61 -26.5q-46 -26 -65.5 -57t-35.5 -75q-55 -152 -169.5 -487t-238.5 -696h-201l-375 1055l-338 -1055h-201q-167 486 -256 748.5t-150 440.5q-19 54 -43 78.5t-62 49.5q-27 18 -57.5 26.5t-70.5 13.5v78h757v-76q-67 -8 -100 -15.5 t-52 -15.5q-18 -8 -22 -17t-4 -16q0 -14 3.5 -27t7.5 -30q24 -78 97 -296t180 -541l323 1034h212l375 -1066q83 257 132.5 420t83.5 279q20 71 32 119t12 83q0 21 -19.5 36t-52.5 26q-28 9 -72.5 14.5t-77.5 8.5v80h571v-80z"/>
<glyph glyph-name="X" horiz-adv-x="1656" unicode="X" d="M1659 0h-865v78q124 7 160 21.5t36 38.5q0 13 -13 41.5t-36 65.5q-35 59 -93.5 147.5t-121.5 182.5q-210 -243 -266.5 -323t-56.5 -106q0 -14 4.5 -23.5t23.5 -18.5q14 -8 48 -15t81 -11v-78h-551v78q43 3 68.5 9t50.5 17q58 27 103 68.5t93 96.5q70 79 158 179t185 213 q-92 139 -184 270t-156 223q-32 46 -79.5 92t-99.5 66q-26 11 -58 18.5t-77 10.5v78h867v-78q-101 -4 -149.5 -18t-48.5 -42q0 -14 9.5 -35.5t37.5 -67.5q24 -40 74.5 -117t114.5 -175q189 225 237.5 293.5t48.5 93.5q0 29 -28 43.5t-131 24.5v78h553v-78q-38 -1 -62.5 -7 t-56.5 -19q-62 -28 -104 -69t-92 -96q-74 -82 -141.5 -159.5t-165.5 -189.5q121 -182 207 -305t163 -231q30 -46 77.5 -92.5t98.5 -66.5q24 -9 55 -17t82 -11v-78z"/>
<glyph glyph-name="Y" horiz-adv-x="1499" unicode="Y" d="M1567 1341q-36 -4 -66 -13t-57 -25q-43 -24 -76.5 -61.5t-65.5 -83.5q-65 -95 -136.5 -206.5t-155.5 -245.5q-55 -85 -67.5 -130.5t-12.5 -157.5v-201q0 -36 13.5 -63t51.5 -44q17 -7 72 -18.5t81 -13.5v-78h-791v78q28 2 80.5 8t73.5 14q37 16 50.5 42.5t13.5 64.5v250 q0 33 -1 58t-7 42q-7 19 -24 48.5t-44 76.5q-77 135 -149 256t-137 227q-34 55 -68.5 88.5t-70.5 54.5q-27 15 -65.5 23t-69.5 10v78h813v-78q-112 -3 -151 -15.5t-39 -34.5q0 -11 14.5 -44t51.5 -102q34 -65 99.5 -179t157.5 -267q190 301 261 420.5t71 146.5 q0 34 -41.5 52t-134.5 23v78h526v-78z"/>
<glyph glyph-name="Z" horiz-adv-x="1412" unicode="Z" d="M1397 479l-48 -479h-1332v61l917 1266h-311q-95 0 -137 -5.5t-79 -22.5q-43 -16 -95 -84.5t-139 -228.5h-81l44 433h1234v-61l-917 -1266h357q168 0 228.5 13.5t88.5 48.5q57 69 105.5 151.5t89.5 173.5h75z"/>
<glyph glyph-name="bracketleft" horiz-adv-x="915" unicode="[" d="M847 -310h-662v1829h662v-99h-347v-1630h347v-100z"/>
<glyph glyph-name="backslash" horiz-adv-x="966" unicode="\" d="M939 -424h-180l-691 1947h182z"/>
<glyph glyph-name="bracketright" horiz-adv-x="915" unicode="]" d="M731 -310h-662v100h347v1630h-347v99h662v-1829z"/>
<glyph glyph-name="asciicircum" d="M1233 760h-196l-317 513l-317 -513h-194l442 696h140z" unicode="^"/>
<glyph glyph-name="underscore" d="M1445 -302h-1450v122h1450v-122z" unicode="_"/>
<glyph glyph-name="grave" horiz-adv-x="1024" unicode="`" d="M741 1139l-42 -38q-166 100 -250.5 144.5t-144.5 85.5q-47 32 -66.5 56.5t-19.5 72.5q0 36 38.5 62t86.5 26q61 0 97 -18.5t82 -85.5q33 -48 89.5 -127.5t129.5 -177.5z"/>
<glyph glyph-name="a" horiz-adv-x="1220" unicode="a" d="M704 542q-56 -19 -111 -43.5t-90 -51.5q-37 -28 -58 -71.5t-21 -102.5q0 -78 35.5 -113t87.5 -35q55 0 90.5 22.5t62.5 55.5zM1201 21q-44 -19 -104 -35t-127 -16q-123 0 -181 36.5t-79 104.5h-6q-34 -34 -65.5 -58t-67.5 -41q-47 -22 -90.5 -32.5t-121.5 -10.5 q-116 0 -198 68.5t-82 181.5q0 65 18 110.5t51 80.5q30 32 69.5 53t86.5 39q90 33 216 68.5t184 63.5v96q0 25 -4 66t-17 69q-14 32 -44 54t-79 22q-44 0 -73.5 -12.5t-47.5 -25.5q3 -20 17 -61t14 -79q0 -17 -9 -42.5t-26 -40.5q-23 -20 -51.5 -31t-87.5 -11 q-84 0 -127 40.5t-43 105.5q0 56 44.5 100.5t108.5 73.5q63 30 145 46.5t152 16.5q97 0 178 -11.5t146 -47.5q62 -35 98.5 -101.5t36.5 -173.5q0 -113 -4.5 -268t-4.5 -204q0 -45 13.5 -71t41.5 -39q17 -8 53.5 -9.5t66.5 -1.5v-73z"/>
<glyph glyph-name="b" horiz-adv-x="1322" unicode="b" d="M892 477q0 76 -11.5 146.5t-38.5 124.5t-71 86.5t-109 32.5q-61 0 -101 -20t-72 -59v-582q6 -20 22.5 -52.5t33.5 -50.5q24 -26 51 -39.5t76 -13.5q102 0 161 111.5t59 315.5zM1251 489q0 -225 -148.5 -373t-376.5 -148q-88 0 -151.5 12.5t-107.5 30.5q-46 19 -73.5 37.5 t-43.5 30.5l-143 -130l-59 23q5 73 8.5 158.5t3.5 230.5v936q0 38 -15.5 70.5t-41.5 49.5q-19 12 -55.5 21t-67.5 11v73l494 26l15 -16v-650h6q73 71 150 104t154 33q210 0 331 -143t121 -387z"/>
<glyph glyph-name="c" horiz-adv-x="1088" unicode="c" d="M629 -32q-139 0 -245.5 40.5t-175.5 110.5q-69 71 -103 168t-34 211q0 104 41.5 198t112.5 165q73 73 181.5 116.5t239.5 43.5q184 0 291 -69.5t107 -187.5q0 -72 -38 -116t-131 -44q-75 0 -125.5 36t-50.5 94q0 49 16 97t19 73q-11 18 -28 27.5t-53 9.5q-45 0 -82 -21 t-69 -74q-31 -50 -49.5 -134t-18.5 -202q0 -178 83.5 -287t199.5 -109q111 0 176.5 49.5t116.5 140.5l75 -52q-31 -61 -74 -111.5t-103 -89.5q-63 -41 -128 -62t-151 -21z"/>
<glyph glyph-name="d" horiz-adv-x="1358" unicode="d" d="M841 199v565q-7 23 -19.5 51t-34.5 53q-20 21 -53.5 37t-75.5 16q-100 0 -164 -113t-64 -319q0 -81 11.5 -145.5t40.5 -117.5t74.5 -83t109.5 -30q61 0 101 23.5t74 62.5zM1351 21l-493 -29l-15 14v92l-7 2q-49 -53 -132.5 -92.5t-168.5 -39.5q-202 0 -333 150t-131 388 q0 211 146.5 362t354.5 151q82 0 154 -18.5t115 -43.5v327q0 37 -15 69.5t-40 50.5q-31 22 -77.5 31.5t-93.5 13.5v73l540 26l15 -16v-1311q0 -38 12.5 -64t40.5 -41q21 -11 61.5 -16t66.5 -6v-73z"/>
<glyph glyph-name="e" horiz-adv-x="1171" unicode="e" d="M751 619q0 60 -6 123t-21 103q-17 47 -46.5 71t-74.5 24q-77 0 -123 -78t-50 -247zM1133 239q-35 -57 -84.5 -107.5t-112.5 -86.5q-67 -38 -135.5 -57.5t-157.5 -19.5q-148 0 -255.5 42t-177.5 113t-104.5 167.5t-34.5 209.5q0 102 37.5 195.5t106.5 166.5 q68 71 171.5 115t231.5 44q140 0 230 -34t149 -94q57 -57 83 -134.5t26 -162.5v-65h-676q0 -205 79 -312t251 -107q94 0 169 51.5t128 130.5z"/>
<glyph glyph-name="f" horiz-adv-x="805" unicode="f" d="M1004 1379q0 -25 -8 -55t-26 -51q-21 -25 -47 -38t-78 -13q-79 0 -124 55t-96 183q-40 -17 -65 -88t-25 -305v-79h276v-108h-274v-689q0 -39 18 -60.5t47 -31.5q24 -8 63 -15.5t70 -10.5v-73h-675v73q26 2 50.5 5t43.5 10q32 12 43.5 34.5t11.5 59.5v698h-203v108h203 q0 107 31 207.5t96 179.5q63 78 166 126t242 48q124 0 192 -47t68 -123z"/>
<glyph glyph-name="g" horiz-adv-x="1181" unicode="g" d="M877 -151q0 34 -19 67.5t-85 54.5q-36 6 -118.5 8t-226.5 2q-35 -30 -58.5 -71t-23.5 -99q0 -25 14 -55t44 -56q35 -29 78 -45.5t130 -16.5q129 0 197 50t68 161zM709 689q0 117 -37 185t-114 68q-39 0 -68 -18.5t-47 -53.5q-17 -34 -23 -79.5t-6 -93.5q0 -109 38 -179 t108 -70q72 0 110.5 63t38.5 178zM1178 880h-220q39 -44 58.5 -93t19.5 -102q0 -69 -37 -129.5t-97 -98.5q-61 -39 -143 -61t-178 -22h-163q-12 -9 -26.5 -28.5t-14.5 -37.5q0 -44 35 -61t127 -19q91 -2 184 -7.5t133 -6.5q58 -3 115 -23.5t99 -53.5q46 -35 76 -89.5 t30 -125.5q0 -76 -36.5 -143t-111.5 -116q-79 -51 -189.5 -79t-273.5 -28q-263 0 -400 64t-137 192q0 79 74 130t230 56v12q-92 31 -143.5 82.5t-51.5 119.5q0 42 20.5 71t52.5 51q28 19 68 32.5t67 21.5v11q-135 50 -198.5 122t-63.5 176q0 147 135.5 235t343.5 88 q68 0 131.5 -11.5t96.5 -20.5h388v-108z"/>
<glyph glyph-name="h" horiz-adv-x="1392" unicode="h" d="M1358 0h-602v73q20 2 47 5t40 10q21 11 29.5 32t8.5 62v468q0 103 -38.5 154t-109.5 51q-40 0 -74.5 -12t-67.5 -35q-29 -20 -46.5 -41t-29.5 -37v-537q0 -37 9 -58.5t34 -35.5q15 -9 39.5 -16t47.5 -10v-73h-608v73q26 2 50.5 5t43.5 10q32 12 43.5 34.5t11.5 59.5v1115 q0 32 -15 68t-42 54q-20 13 -58 20.5t-68 9.5v73l497 26l15 -16v-688h4q38 34 68.5 61.5t74.5 55.5q37 24 96.5 41t128.5 17q162 0 243.5 -93t81.5 -245v-490q0 -37 11 -59t41 -35q18 -8 40 -14t54 -10v-73z"/>
<glyph glyph-name="i" horiz-adv-x="724" unicode="i" d="M544 1364q0 -76 -58.5 -129.5t-138.5 -53.5q-81 0 -139.5 53.5t-58.5 129.5t58.5 130t139.5 54t139 -54t58 -130zM690 0h-632v73q26 2 51 5t43 10q32 12 45 34.5t13 59.5v582q0 35 -16 61.5t-40 42.5q-18 12 -54.5 23t-66.5 14v73l490 26l15 -15v-794q0 -35 15 -59.5 t43 -36.5q20 -9 44 -16t50 -10v-73z"/>
<glyph glyph-name="j" horiz-adv-x="709" unicode="j" d="M555 1364q0 -76 -58.5 -129.5t-138.5 -53.5q-81 0 -139.5 53.5t-58.5 129.5t58.5 130t139.5 54t139 -54t58 -130zM551 118q0 -103 -35 -208t-100 -180q-71 -82 -172 -128t-231 -46q-121 0 -186.5 46.5t-65.5 125.5q0 28 6.5 52t27.5 50q16 22 49.5 37.5t75.5 15.5 q83 0 128 -59.5t92 -178.5q41 23 60.5 98t19.5 326v691q0 35 -15 61.5t-41 44.5q-19 13 -60.5 24.5t-73.5 14.5v73l506 26l15 -15v-871z"/>
<glyph glyph-name="k" horiz-adv-x="1294" unicode="k" d="M1341 0h-471q-87 153 -159 259.5t-136 197.5l-60 -51v-218q0 -36 10.5 -59t40.5 -34q18 -8 42 -14t48 -8v-73h-619v73q25 2 50 5.5t44 9.5q32 11 43.5 34t11.5 60v1115q0 33 -14.5 68.5t-42.5 53.5q-19 12 -57 20t-69 10v73l497 26l15 -16v-1032q74 66 166.5 153 t148.5 144q33 34 36.5 51.5t3.5 21.5q0 18 -31.5 30t-94.5 21v71h508v-69q-100 -28 -152.5 -52.5t-114.5 -65.5q-41 -27 -79.5 -56.5t-88.5 -73.5q98 -142 181 -263t174 -256q31 -47 77 -63t92 -20v-73z"/>
<glyph glyph-name="l" horiz-adv-x="705" unicode="l" d="M667 0h-627v73q26 2 50.5 5t43.5 10q32 12 43.5 34.5t11.5 59.5v1108q0 38 -15.5 70.5t-41.5 49.5q-20 13 -60.5 25t-71.5 14v73l503 26l15 -16v-1337q0 -37 13 -60t42 -36q20 -9 42 -16t52 -10v-73z"/>
<glyph glyph-name="m" horiz-adv-x="2080" unicode="m" d="M2045 0h-596v73q22 3 46 5t40 10q22 10 28 33.5t6 60.5v467q0 103 -36.5 154.5t-104.5 51.5q-43 0 -76.5 -13.5t-61.5 -33.5q-29 -21 -45 -42t-27 -36v-537q0 -36 8.5 -58.5t31.5 -35.5q16 -9 36.5 -16t43.5 -10v-73h-571v73q19 2 46 5t40 10q21 11 27.5 32t6.5 62v467 q0 103 -36.5 154.5t-104.5 51.5q-43 0 -76.5 -13.5t-61.5 -33.5q-29 -21 -45 -42t-27 -36v-537q0 -35 9 -58t32 -36q16 -9 36.5 -16t43.5 -10v-73h-599v73q26 2 51 5t43 10q32 12 44 34.5t12 59.5v582q0 32 -17 62.5t-41 47.5q-18 12 -45.5 20t-60.5 11v73l477 26l15 -15 v-141h4q28 25 66.5 59.5t72.5 55.5q37 24 95 40t127 16q114 0 190.5 -49.5t108.5 -131.5h9q29 27 71 63.5t77 58.5q39 25 99.5 42t129.5 17q151 0 232.5 -89t81.5 -253v-486q0 -37 11 -59.5t40 -34.5q16 -7 39.5 -14t54.5 -10v-73z"/>
<glyph glyph-name="n" horiz-adv-x="1413" unicode="n" d="M1378 0h-602v73q19 2 46 5t41 10q21 11 30 32t9 62v468q0 102 -37.5 153.5t-110.5 51.5q-40 0 -74.5 -12t-67.5 -35q-29 -20 -46.5 -41t-29.5 -37v-537q0 -35 10 -58.5t33 -35.5q16 -9 40 -16t47 -10v-73h-608v73q25 2 50.5 5.5t43.5 9.5q32 11 44 34t12 60v582 q0 31 -16 61t-42 49q-18 12 -45.5 20t-60.5 11v73l477 26l15 -15v-145h4q28 25 68 60t74 57q37 24 97 41t128 17q163 0 244.5 -92.5t81.5 -245.5v-490q0 -37 11 -59t41 -35q16 -7 39.5 -14t53.5 -10v-73z"/>
<glyph glyph-name="o" horiz-adv-x="1302" unicode="o" d="M823 181q22 56 32.5 136t10.5 186q0 70 -10 160t-30 142q-24 63 -66.5 99t-107.5 36q-71 0 -113.5 -39t-65.5 -101q-21 -57 -29 -133.5t-8 -159.5q0 -109 7 -180.5t34 -143.5q23 -62 66 -98t109 -36q60 0 103 33.5t68 98.5zM1079 874q74 -69 113 -165t39 -208 q0 -111 -38.5 -209.5t-112.5 -168.5q-79 -75 -188.5 -115t-250.5 -40q-122 0 -224.5 35t-181.5 105q-76 67 -120 165.5t-44 220.5q0 120 38.5 213.5t115.5 166.5q74 70 182.5 108.5t242.5 38.5q140 0 246.5 -38.5t182.5 -108.5z"/>
<glyph glyph-name="p" horiz-adv-x="1347" unicode="p" d="M917 483q0 75 -11 143.5t-39 122.5q-27 54 -71.5 86t-108.5 32q-65 0 -104 -22.5t-68 -58.5v-567q6 -20 23 -51.5t34 -50.5q25 -27 57 -40t70 -13q99 0 158.5 106.5t59.5 312.5zM1276 487q0 -211 -141 -362t-357 -151q-96 0 -156 19.5t-99 47.5h-8v-281q0 -35 15.5 -61 t43.5 -38q27 -11 76.5 -20t82.5 -11v-74h-722v74q25 2 63 7.5t57 11.5q32 11 43.5 37.5t11.5 60.5v1023q-3 33 -15.5 58t-39.5 44q-20 13 -53 21.5t-65 11.5v73l487 26l15 -13v-111l8 -2q66 67 146.5 104t159.5 37q207 0 327 -146.5t120 -385.5z"/>
<glyph glyph-name="q" horiz-adv-x="1328" unicode="q" d="M841 199v565q-7 25 -19.5 54t-35.5 56q-22 25 -54.5 41t-78.5 16q-100 0 -161.5 -117t-61.5 -323q0 -84 13 -148.5t39 -112.5q30 -53 72 -82t112 -29q64 0 104 21.5t71 58.5zM1355 -444h-700v74q28 2 67.5 6.5t61.5 12.5q31 10 44 36t13 62v349l-8 2q-17 -16 -44.5 -39 t-66.5 -41q-43 -21 -82.5 -32.5t-104.5 -11.5q-208 0 -336 144t-128 388q0 221 153 367t387 146q118 0 213 -26.5t177 -69.5l130 128l55 -13q-3 -63 -9.5 -164.5t-6.5 -168.5v-941q0 -37 13.5 -63.5t43.5 -39.5q22 -10 60 -19t68 -12v-74z"/>
<glyph glyph-name="r" horiz-adv-x="1065" unicode="r" d="M1054 809q0 -76 -47 -133.5t-124 -57.5q-73 0 -123.5 37t-50.5 109q0 35 5 54.5t9 36.5q-46 -2 -97 -32t-90 -80v-549q0 -35 11 -58t37 -36q22 -11 71.5 -18.5t71.5 -8.5v-73h-669v73q25 2 50.5 5.5t43.5 9.5q32 11 44 34t12 60v582q0 36 -17 64.5t-41 45.5 q-18 12 -45.5 20t-60.5 11v73l477 26l15 -15v-145h4q69 80 146.5 125.5t161.5 45.5q93 0 149.5 -57.5t56.5 -148.5z"/>
<glyph glyph-name="s" horiz-adv-x="1050" unicode="s" d="M521 -34q-97 0 -189.5 28.5t-143.5 60.5l-30 -68h-78l-13 373h73q15 -45 50 -101.5t80 -101.5q47 -45 107.5 -76t129.5 -31q91 0 135.5 35.5t44.5 109.5q0 40 -20 66t-55 45q-39 20 -85.5 34t-114.5 34t-116.5 40.5t-100.5 64.5q-45 39 -72 94t-27 131q0 141 118.5 228 t310.5 87q91 0 167.5 -18.5t128.5 -40.5l21 59h76l16 -341h-71q-35 104 -120 179.5t-183 75.5q-77 0 -121 -32t-44 -89q0 -76 64.5 -110t180.5 -64q179 -46 262 -125.5t83 -202.5q0 -164 -128.5 -254t-335.5 -90z"/>
<glyph glyph-name="t" horiz-adv-x="814" unicode="t" d="M802 46q-64 -28 -137 -50.5t-178 -22.5q-156 0 -231.5 76t-75.5 217v614h-180v108h184v303h325v-303h280v-108h-278v-548q0 -117 32.5 -166t116.5 -49q27 0 75 4t67 9v-84z"/>
<glyph glyph-name="u" horiz-adv-x="1386" unicode="u" d="M1363 21l-477 -29l-15 14v131h-6q-34 -31 -66.5 -60.5t-77.5 -53.5q-51 -27 -96.5 -40t-132.5 -13q-151 0 -231.5 91t-80.5 257v450q0 39 -15 63.5t-40 43.5q-20 15 -52 21.5t-58 8.5v73l485 26l11 -15v-665q0 -103 39.5 -152t108.5 -49q71 0 127.5 37t82.5 79v539 q0 34 -13 61t-38 44q-18 12 -51.5 16t-68.5 6v73l485 26l15 -15v-772q0 -35 14 -59.5t41 -41.5q19 -12 49.5 -16.5t60.5 -5.5v-73z"/>
<glyph glyph-name="v" horiz-adv-x="1161" unicode="v" d="M1198 919q-45 -7 -87.5 -34t-70.5 -84q-70 -146 -137.5 -294.5t-132.5 -287.5q-20 -42 -45.5 -108t-42.5 -120h-184q-115 267 -196.5 443t-172.5 378q-21 47 -65.5 74t-90.5 33v73h616v-73q-34 -1 -80 -15t-46 -36q0 -6 4 -18t10 -27q32 -76 96.5 -219t136.5 -301 q50 109 95.5 213.5t112.5 266.5q9 24 10.5 39t1.5 20q0 18 -17.5 31.5t-41.5 23.5q-25 10 -48 15t-38 7v73h413v-73z"/>
<glyph glyph-name="w" horiz-adv-x="1768" unicode="w" d="M1782 919q-46 -7 -85 -30.5t-66 -87.5q-70 -171 -112 -276t-118 -303q-16 -41 -38.5 -113t-35.5 -118h-195l-252 680l-236 -680h-193q-101 273 -159 423.5t-155 397.5q-18 47 -61.5 74t-89.5 33v73h614v-73q-34 -3 -81 -16t-47 -35q0 -10 2.5 -17.5t8.5 -27.5 q27 -78 74 -201.5t110 -287.5l222 658h198l253 -680q58 154 89.5 242.5t79.5 228.5q7 21 8.5 37.5t0.5 21.5q0 18 -18 32.5t-43 23.5t-48.5 14t-39.5 7v73h413v-73z"/>
<glyph glyph-name="x" horiz-adv-x="1204" unicode="x" d="M1198 0h-625v73q49 3 82 8.5t33 22.5q0 8 -8.5 25t-21.5 38q-19 31 -65.5 98t-87.5 124q-58 -67 -97 -115t-82 -103q-15 -18 -21 -33t-6 -18q0 -23 32.5 -35t77.5 -12v-73h-406v73q81 17 129.5 54t65.5 57q73 78 123.5 129.5t135.5 144.5q-57 79 -138 193t-135 187 q-27 36 -66 55.5t-101 25.5v73h611v-73q-33 0 -65 -4t-32 -14q0 -8 5 -20t13 -25q19 -32 60 -94t88 -130q45 55 75.5 90t78.5 99q18 24 22.5 36t4.5 15q0 17 -21.5 30.5t-84.5 16.5v73h398v-73q-49 -8 -95 -33t-96 -78q-78 -81 -113.5 -118.5t-117.5 -124.5q46 -65 133 -189 t150 -209q27 -38 60.5 -62t106.5 -32v-73z"/>
<glyph glyph-name="y" horiz-adv-x="1151" unicode="y" d="M1188 919q-45 -7 -87.5 -34t-70.5 -84q-86 -182 -177 -387.5t-202 -444.5q-62 -134 -120 -214t-109 -123q-48 -40 -95 -58t-95 -18q-95 0 -153.5 53t-58.5 119q0 28 6.5 52t27.5 50q16 22 49.5 37.5t75.5 15.5q56 0 107 -39t106 -108q33 33 81.5 98.5t71.5 134.5 q-119 250 -211 433.5t-206 409.5q-25 48 -67 74.5t-89 32.5v73h612v-73q-34 -1 -78.5 -15t-44.5 -36q0 -8 3 -17.5t11 -27.5q34 -70 96.5 -194.5t145.5 -291.5q62 142 105.5 244.5t84.5 201.5q10 25 11.5 39.5t1.5 19.5q0 18 -17.5 31.5t-41.5 23.5q-25 10 -48 15t-38 7v73 h413v-73z"/>
<glyph glyph-name="z" horiz-adv-x="1076" unicode="z" d="M1028 0h-984v69l574 832q-119 0 -214 -3t-150 -24q-19 -7 -50.5 -72.5t-49.5 -136.5h-71v327h930v-62l-576 -839q24 0 70 -1t88 -1q49 0 105 2.5t87 6.5q41 5 65.5 28t38.5 55q13 29 34 87.5t32 104.5h71v-373z"/>
<glyph glyph-name="braceleft" horiz-adv-x="1024" unicode="{" d="M956 -333q-132 0 -241.5 12t-187.5 52t-120 115.5t-42 200.5q0 60 6.5 124.5t6.5 119.5q0 72 -20 116t-61 70t-99.5 35.5t-125.5 14.5v150q66 5 125.5 14.5t99.5 35.5q41 27 61 67t20 119q0 57 -6.5 120.5t-6.5 123.5q0 123 41 198t121 118q74 39 187.5 51.5t241.5 12.5 v-87q-54 -4 -94 -10.5t-83 -32.5q-36 -22 -58.5 -67t-22.5 -119v-190q0 -104 -28.5 -175t-80.5 -114q-49 -41 -114 -64.5t-141 -37.5v-76q72 -14 139.5 -38t115.5 -65q50 -42 79.5 -111.5t29.5 -176.5v-190q0 -74 22 -118.5t59 -68.5q36 -22 83 -31t94 -11v-87z"/>
<glyph glyph-name="bar" horiz-adv-x="794" unicode="|" d="M483 -424h-171v1947h171v-1947z"/>
<glyph glyph-name="braceright" horiz-adv-x="1024" unicode="}" d="M953 527q-67 -5 -125.5 -14.5t-99.5 -35.5t-61 -70t-20 -116q0 -55 6.5 -119.5t6.5 -124.5q0 -125 -42 -200.5t-120 -115.5t-187.5 -52t-241.5 -12v87q47 2 95 11t82 31q37 24 59 68.5t22 118.5v190q0 107 29.5 176.5t79.5 111.5q48 41 115.5 65t139.5 38v76 q-76 14 -141 38t-114 64q-52 43 -80.5 114t-28.5 175v190q0 74 -22.5 119t-58.5 67q-43 26 -83 32.5t-94 10.5v87q128 0 240.5 -11.5t188.5 -52.5q80 -43 121 -118t41 -198q0 -60 -6.5 -123.5t-6.5 -120.5q0 -79 20 -119t61 -67q38 -25 98.5 -35t126.5 -15v-150z"/>
<glyph glyph-name="asciitilde" d="M1295 735q-20 -55 -53.5 -113t-74.5 -103q-51 -56 -110.5 -89.5t-126.5 -33.5q-76 0 -138.5 26.5t-120.5 60.5q-46 28 -106 58t-107 30q-66 0 -115 -47.5t-94 -151.5l-104 42q15 44 47.5 103t80.5 113q45 51 106.5 87t130.5 36q82 0 145.5 -28.5t115.5 -59.5 q53 -32 104.5 -59.5t106.5 -27.5q70 0 119 52.5t90 146.5z" unicode="~"/>
<glyph glyph-name="exclamdown" horiz-adv-x="771" unicode="¡" d="M529 424q26 -110 38.5 -164t12.5 -103q0 -77 -57.5 -131.5t-137.5 -54.5q-79 0 -136.5 54.5t-57.5 131.5q0 49 15 113.5t36 154.5t48 211.5t57 319.5h77q23 -153 51 -285.5t54 -246.5zM578 1262q0 -76 -57.5 -131.5t-134.5 -55.5q-78 0 -135.5 55.5t-57.5 131.5 t57.5 130.5t135.5 54.5q77 0 134.5 -54.5t57.5 -130.5z"/>
<glyph glyph-name="cent" horiz-adv-x="1240" unicode="¢" d="M697 138v800q-42 -6 -80 -33.5t-67 -77.5q-28 -48 -45.5 -130t-17.5 -187q0 -142 60 -240.5t150 -131.5zM1176 262q-57 -114 -156 -187.5t-224 -93.5v-280h-99v278q-276 4 -421.5 142t-145.5 377q0 104 41 195t111 161q72 72 177.5 117t237.5 50v255h99v-256 q84 -8 145.5 -32.5t98.5 -55.5q38 -31 56.5 -65t18.5 -64q0 -67 -38.5 -109t-125.5 -42q-48 0 -92 27.5t-63 98.5v-657h1q110 0 181 50t121 143z"/>
<glyph glyph-name="sterling" horiz-adv-x="1413" unicode="£" d="M1295 0h-1171v188q93 31 140 71.5t66 94.5q20 54 21.5 118t1.5 154h-194v116h194q-3 41 -10.5 117.5t-7.5 123.5q0 207 146 342t384 135q168 0 294.5 -81.5t126.5 -202.5q0 -72 -43 -119t-121 -47q-79 0 -130 41t-51 112q0 53 19 107t29 84q-30 7 -60 10.5t-59 3.5 q-21 0 -48.5 -7t-62.5 -40q-30 -28 -51.5 -86t-21.5 -148q0 -63 5 -166t5 -179h389v-116h-389q-23 -141 -72.5 -212t-163.5 -133v-11h835v-270z"/>
<glyph glyph-name="currency" d="M922 571q0 85 -60 146t-143 61q-85 0 -145 -60.5t-60 -146.5q0 -83 60 -144.5t145 -61.5q82 0 142.5 60t60.5 146zM1245 156l-106 -111l-236 231q-48 -25 -89 -39t-95 -14q-46 0 -94.5 15.5t-87.5 37.5l-238 -233l-106 115l231 233q-25 39 -39 87t-14 93t13.5 92t39.5 91 l-231 237l110 109l234 -234q38 24 87 39t95 15q45 0 92.5 -14t87.5 -38l234 232l112 -109l-231 -237q22 -39 37.5 -87t15.5 -96q0 -44 -15.5 -93.5t-37.5 -86.5z" unicode="¤"/>
<glyph glyph-name="yen" horiz-adv-x="1500" unicode="¥" d="M1522 1341q-33 -4 -57.5 -12t-55.5 -26q-43 -24 -76.5 -61.5t-65.5 -83.5q-65 -95 -164.5 -252t-183.5 -291v-32h433v-116h-431v-250q0 -36 13.5 -63t51.5 -44q17 -7 72 -18.5t81 -13.5v-78h-779v78q28 2 80.5 8t73.5 14q37 16 50.5 42.5t13.5 64.5v260h-431v116h433v20 q-70 122 -170.5 292t-161.5 270q-35 56 -68 89.5t-71 53.5q-30 15 -63.5 23t-61.5 10v78h783v-78q-99 -2 -139.5 -14.5t-40.5 -35.5q0 -12 7.5 -32.5t43.5 -88.5q28 -54 91.5 -164.5t150.5 -256.5q208 330 255 410.5t47 106.5q0 35 -38 52.5t-128 22.5v78h506v-78z"/>
<glyph glyph-name="brokenbar" horiz-adv-x="794" unicode="¦" d="M483 -424h-171v810h171v-810zM483 723h-171v800h171v-800z"/>
<glyph glyph-name="section" horiz-adv-x="1154" unicode="§" d="M778 577q0 52 -23 88.5t-66 65.5q-39 27 -108.5 57t-119.5 52q-37 -32 -61 -88.5t-24 -106.5q0 -53 25 -90.5t67 -65.5q46 -30 105.5 -55.5t119.5 -51.5q49 43 67 92t18 103zM1033 644q0 -106 -70.5 -181t-188.5 -114q102 -42 154 -112t52 -154q0 -135 -125.5 -225 t-343.5 -90q-104 0 -173 19.5t-111 49.5t-59.5 65.5t-17.5 66.5q0 55 32.5 90.5t94.5 35.5q44 0 76 -23t54 -60q21 -35 35.5 -74.5t30.5 -84.5q5 -1 14 -2t14 -1q94 0 155.5 36t61.5 116q0 48 -20 81t-59 59q-38 27 -101 53.5t-125 51.5q-151 61 -221.5 138.5t-70.5 192.5 q0 98 57 170t202 125q-112 46 -163 116.5t-51 159.5q0 131 130 218t337 87q99 0 170 -19t114 -50q41 -29 59 -64.5t18 -67.5q0 -53 -30.5 -89.5t-96.5 -36.5q-46 0 -76.5 23t-53.5 60q-19 30 -36.5 78.5t-29.5 80.5q-7 2 -15 2.5t-13 0.5q-94 0 -154.5 -37.5t-60.5 -114.5 q0 -50 20.5 -82t62.5 -59t103 -52t127 -52q150 -60 221 -136t71 -195z"/>
<glyph glyph-name="dieresis" horiz-adv-x="1024" unicode="¨" d="M424 1349q0 -67 -48 -117.5t-112 -50.5q-65 0 -112 50t-47 118q0 67 46.5 117.5t112.5 50.5q64 0 112 -50.5t48 -117.5zM919 1349q0 -67 -47.5 -117.5t-111.5 -50.5q-65 0 -112.5 50t-47.5 118q0 67 47 117.5t113 50.5q64 0 111.5 -50.5t47.5 -117.5z"/>
<glyph glyph-name="copyright" horiz-adv-x="1929" unicode="©" d="M1393 381q-24 -56 -61 -105t-91 -85q-56 -37 -117 -56.5t-147 -19.5q-101 0 -193.5 32.5t-160.5 93.5q-68 62 -107 149.5t-39 201.5q0 222 148.5 363t373.5 141q79 0 141.5 -20t104.5 -42l35 51h65l4 -370h-69q-51 156 -112 229t-160 73q-118 0 -181 -107.5t-63 -293.5 q0 -187 68 -289t199 -102q100 0 170.5 48t125.5 144zM1751 602q0 330 -228 563t-558 233t-558 -233t-228 -563t228 -563t558 -233t558 233t228 563zM1849 602q0 -366 -259 -624.5t-625 -258.5t-625 258.5t-259 624.5t259 624.5t625 258.5t625 -258.5t259 -624.5z"/>
<glyph glyph-name="ordfeminine" horiz-adv-x="1130" unicode="ª" d="M644 1063q-45 -16 -89.5 -34.5t-72.5 -38.5q-30 -22 -47 -56t-17 -82q0 -63 28.5 -87.5t70.5 -24.5q46 0 75 19t49 44zM1055 649q-32 -14 -87 -28t-104 -14q-99 0 -148 28.5t-67 85.5h-5q-23 -22 -49 -43.5t-60 -36.5q-39 -17 -74.5 -25.5t-100.5 -8.5q-96 0 -163 55.5 t-67 146.5q0 82 42.5 137t142.5 91q66 24 173.5 54t155.5 53v71q0 22 -3 53.5t-14 55.5q-11 25 -35 43t-66 18t-63.5 -8t-32.5 -16q4 -21 14.5 -47.5t10.5 -65.5q0 -42 -36.5 -71.5t-109.5 -29.5q-62 0 -101.5 30t-39.5 88q0 45 35.5 80t91.5 61q54 25 121.5 38t123.5 13 q81 0 148 -10t119 -38q52 -30 81.5 -81t29.5 -141q0 -96 -4 -214t-4 -161q0 -36 10.5 -56.5t35.5 -32.5q16 -6 45 -7t54 -1v-66z"/>
<glyph glyph-name="guillemotleft" horiz-adv-x="1250" unicode="«" d="M691 140l-52 -43q-122 86 -240.5 171t-177.5 133q-37 29 -55 63t-18 83q0 48 17.5 80t55.5 63q67 55 176 132.5t242 172.5l52 -43l-308 -409zM1130 140l-52 -43q-122 86 -240.5 171t-177.5 133q-37 29 -55 63t-18 83q0 48 17.5 80t55.5 63q67 55 176 132.5t242 172.5 l52 -43l-308 -409z"/>
<glyph glyph-name="logicalnot" d="M1266 50h-170v473h-932v163h1102v-636z" unicode="¬"/>
<glyph glyph-name="registered" horiz-adv-x="1929" unicode="®" d="M1124 836q0 93 -52 131t-148 38h-50v-376h48q99 0 150.5 50t51.5 157zM1574 145h-362q-96 147 -157.5 230.5t-146.5 185.5h-34v-269q0 -25 7.5 -40.5t35.5 -27.5q12 -5 35.5 -12.5t41.5 -8.5v-58h-482v58q19 2 45.5 6.5t41.5 10.5q26 11 34 27.5t8 40.5v636q0 25 -6 39.5 t-36 27.5q-19 8 -45.5 15.5t-41.5 10.5v58h515q174 0 265 -54.5t91 -165.5q0 -104 -60.5 -162t-164.5 -88q38 -48 92 -118.5t135 -170.5q20 -26 55 -57.5t62 -41.5q12 -4 37 -9t35 -5v-58zM1751 602q0 330 -228 563t-558 233t-558 -233t-228 -563t228 -563t558 -233t558 233 t228 563zM1849 602q0 -366 -259 -624.5t-625 -258.5t-625 258.5t-259 624.5t259 624.5t625 258.5t625 -258.5t259 -624.5z"/>
<glyph glyph-name="overscore" d="M1445 1603h-1450v122h1450v-122z" unicode="¯"/>
<glyph glyph-name="degree" horiz-adv-x="860" unicode="°" d="M593 1121q0 122 -45 185t-120 63q-77 0 -119.5 -65.5t-42.5 -171.5q0 -115 43 -179.5t123 -64.5q68 0 114.5 61.5t46.5 171.5zM773 1129q0 -140 -95.5 -235.5t-248.5 -95.5t-248 96.5t-95 234.5q0 143 97.5 237t245.5 94q152 0 248 -95.5t96 -235.5z"/>
<glyph glyph-name="plusminus" d="M1275 0h-1111v163h473v395h-473v163h473v473h165v-473h473v-163h-473v-395h473v-163z" unicode="±"/>
<glyph glyph-name="twosuperior" horiz-adv-x="1130" unicode="²" d="M1001 490h-824v141q39 41 132 109.5t156 114.5q40 29 84 70.5t64 74.5q28 44 42 82t14 104q0 89 -44.5 141t-120.5 52q-23 0 -45 -3.5t-44 -11.5q10 -28 21.5 -64t11.5 -81q0 -52 -38.5 -83.5t-98.5 -31.5q-56 0 -90.5 38.5t-34.5 93.5q0 91 109 156t262 65 q184 0 292 -73.5t108 -203.5q0 -86 -33 -146t-82 -100t-109.5 -69.5t-107.5 -48.5q-68 -29 -128 -54t-133 -57v-12h637v-203z"/>
<glyph glyph-name="threesuperior" horiz-adv-x="1130" unicode="³" d="M881 932q43 -28 70 -72.5t27 -111.5q0 -126 -127.5 -211t-324.5 -85q-157 0 -269 64.5t-112 156.5q0 56 33 94t92 38q60 0 98 -31.5t38 -83.5q0 -41 -11.5 -78.5t-21.5 -63.5q22 -8 49 -13t51 -5q42 0 86 11.5t71 34.5q32 27 49 66t17 107q0 92 -40.5 137.5t-137.5 45.5 h-88v93h62q90 0 130.5 49t40.5 153q0 71 -40.5 111.5t-104.5 40.5q-23 0 -48.5 -3.5t-47.5 -11.5q10 -28 21.5 -64t11.5 -81q0 -52 -36 -81.5t-96 -29.5q-56 0 -90.5 37.5t-34.5 92.5q0 92 110.5 155.5t262.5 63.5q105 0 176 -22.5t114 -60.5q40 -34 55.5 -73.5t15.5 -69.5 q0 -32 -10 -67.5t-37 -65.5q-25 -29 -76.5 -57.5t-120.5 -41.5v-11q46 -2 99.5 -16t93.5 -40z"/>
<glyph glyph-name="acute" horiz-adv-x="1024" unicode="´" d="M804 1460q0 -45 -20.5 -72.5t-65.5 -56.5q-49 -32 -155 -90.5t-240 -139.5l-42 38q88 117 136 186.5t83 118.5q43 61 82 82.5t97 21.5q48 0 86.5 -26t38.5 -62z"/>
<glyph glyph-name="mu1" horiz-adv-x="1368" unicode="µ" d="M1345 21q-44 -19 -104 -35t-127 -16q-112 0 -174.5 42t-79.5 124h-6q-51 -86 -123.5 -126t-142.5 -40q-69 0 -118 14t-84 46h-11v-28q0 -41 31.5 -146.5t31.5 -147.5q0 -72 -53.5 -112t-119.5 -40q-68 0 -113.5 45.5t-45.5 114.5q0 61 17.5 127t25.5 113 q10 56 15.5 102.5t5.5 87.5v846h328v-661q0 -107 40.5 -154t116.5 -47q64 0 114.5 30.5t81.5 78.5v753h329v-777q0 -41 13 -67t43 -41q20 -9 54 -11t55 -2v-73z"/>
<glyph glyph-name="paragraph" horiz-adv-x="1124" unicode="¶" d="M1075 1336h-111v-1552h-123v1552h-165v-1552h-123v844q-199 0 -333 98.5t-134 294.5q0 165 112.5 281.5t309.5 116.5h567v-83z"/>
<glyph glyph-name="middot" horiz-adv-x="692" unicode="·" d="M544 546q0 -79 -58.5 -137t-138.5 -58q-81 0 -139.5 57.5t-58.5 137.5t58.5 138.5t139.5 58.5q80 0 138.5 -59t58.5 -138z"/>
<glyph glyph-name="cedilla" horiz-adv-x="1024" unicode="¸" d="M728 -252q0 -57 -29 -96t-83 -59q-56 -21 -135.5 -29t-197.5 -8v78q50 0 98 0.5t78 7.5q35 7 54 22.5t19 49.5q0 40 -38 52t-100 12v239h86v-113q110 0 179 -37.5t69 -118.5z"/>
<glyph glyph-name="onesuperior" horiz-adv-x="1130" unicode="¹" d="M905 490h-627v72q22 1 72.5 6.5t68.5 12.5q24 8 36.5 24.5t12.5 48.5v582h-193v84h40q62 0 111 13t84 35q30 19 52.5 41t35.5 40h134q-2 -41 -4.5 -105t-2.5 -121v-561q0 -28 11.5 -46t34.5 -29q18 -8 64 -16t70 -9v-72z"/>
<glyph glyph-name="ordmasculine" horiz-adv-x="1130" unicode="º" d="M702 786q20 52 27 112t7 141q0 60 -6 124.5t-25 111.5q-19 48 -52.5 76.5t-87.5 28.5q-57 0 -90.5 -30t-52.5 -79q-18 -48 -23.5 -110t-5.5 -119q0 -86 5.5 -142.5t26.5 -111.5q18 -48 52 -76.5t88 -28.5q51 0 85 27.5t52 75.5zM1040 1037q0 -188 -126.5 -309.5 t-356.5 -121.5q-218 0 -343 121.5t-125 304.5q0 187 126 306t349 119q225 0 350.5 -119t125.5 -301z"/>
<glyph glyph-name="guillemotright" horiz-adv-x="1250" unicode="»" d="M663 547q0 -47 -17.5 -82t-55.5 -64q-62 -50 -173 -130t-245 -174l-52 43l308 403l-308 409l52 43q133 -94 243.5 -173.5t174.5 -131.5q36 -28 54.5 -61.5t18.5 -81.5zM1102 547q0 -47 -17.5 -82t-55.5 -64q-62 -50 -173 -130t-245 -174l-52 43l308 403l-308 409l52 43 q133 -94 243.5 -173.5t174.5 -131.5q36 -28 54.5 -61.5t18.5 -81.5z"/>
<glyph glyph-name="onequarter" horiz-adv-x="2194" unicode="¼" d="M1580 1429l-818 -1429h-156l816 1429h158zM775 490h-627v72q22 1 72.5 6.5t68.5 12.5q24 8 36.5 24.5t12.5 48.5v582h-193v84h40q62 0 111 13t84 35q30 19 52.5 41t35.5 40h134q-2 -41 -4.5 -105t-2.5 -121v-561q0 -28 11.5 -46t34.5 -29q18 -8 64 -16t70 -9v-72z M1680 373v421l-354 -421h354zM2068 226h-155v-246h-233v246h-477v139l502 600h208v-592h155v-147z"/>
<glyph glyph-name="onehalf" horiz-adv-x="2194" unicode="½" d="M1540 1429l-818 -1429h-156l816 1429h158zM775 490h-627v72q22 1 72.5 6.5t68.5 12.5q24 8 36.5 24.5t12.5 48.5v582h-193v84h40q62 0 111 13t84 35q30 19 52.5 41t35.5 40h134q-2 -41 -4.5 -105t-2.5 -121v-561q0 -28 11.5 -46t34.5 -29q18 -8 64 -16t70 -9v-72zM2116 0 h-824v141q39 41 132 109.5t156 114.5q40 29 84 70.5t64 74.5q28 44 42 82t14 104q0 89 -44.5 141t-120.5 52q-23 0 -45 -3.5t-44 -11.5q10 -28 21.5 -64t11.5 -81q0 -52 -38.5 -83.5t-98.5 -31.5q-56 0 -90.5 38.5t-34.5 93.5q0 91 109 156t262 65q184 0 292 -73.5 t108 -203.5q0 -86 -33 -146t-82 -100t-109.5 -69.5t-107.5 -48.5q-68 -29 -128 -54t-133 -57v-12h637v-203z"/>
<glyph glyph-name="threequarters" horiz-adv-x="2194" unicode="¾" d="M1677 1429l-818 -1429h-156l816 1429h158zM851 932q43 -28 70 -72.5t27 -111.5q0 -126 -127.5 -211t-324.5 -85q-157 0 -269 64.5t-112 156.5q0 56 33 94t92 38q60 0 98 -31.5t38 -83.5q0 -41 -11.5 -78.5t-21.5 -63.5q22 -8 49 -13t51 -5q42 0 86 11.5t71 34.5 q32 27 49 66t17 107q0 92 -40.5 137.5t-137.5 45.5h-88v93h62q90 0 130.5 49t40.5 153q0 71 -40.5 111.5t-104.5 40.5q-23 0 -48.5 -3.5t-47.5 -11.5q10 -28 21.5 -64t11.5 -81q0 -52 -36 -81.5t-96 -29.5q-56 0 -90.5 37.5t-34.5 92.5q0 92 110.5 155.5t262.5 63.5 q105 0 176 -22.5t114 -60.5q40 -34 55.5 -73.5t15.5 -69.5q0 -32 -10 -67.5t-37 -65.5q-25 -29 -76.5 -57.5t-120.5 -41.5v-11q46 -2 99.5 -16t93.5 -40zM1725 373v421l-354 -421h354zM2113 226h-155v-246h-233v246h-477v139l502 600h208v-592h155v-147z"/>
<glyph glyph-name="questiondown" horiz-adv-x="1123" unicode="¿" d="M1045 246q0 -115 -131 -195t-316 -80q-220 0 -355 115t-135 300q0 194 131.5 320t374.5 149l6 136h89v-389q-140 -13 -224.5 -90t-84.5 -218q0 -110 58 -175t154 -65q39 0 75 9.5t60 25.5q-11 33 -24 80t-13 96q0 70 45.5 108.5t126.5 38.5q76 0 119.5 -48t43.5 -118z M853 1267q0 -76 -57.5 -131.5t-135.5 -55.5q-77 0 -134.5 55.5t-57.5 131.5t57.5 130.5t134.5 54.5q78 0 135.5 -54.5t57.5 -130.5z"/>
<glyph glyph-name="Agrave" horiz-adv-x="1553" unicode="À" d="M864 574l-206 514l-203 -514h409zM1609 0h-773v78q54 4 127 19.5t73 38.5q0 8 -1.5 18t-8.5 27l-121 294h-490q-17 -41 -37.5 -96t-35.5 -98q-19 -56 -22.5 -81t-3.5 -35q0 -32 48.5 -54.5t161.5 -32.5v-78h-582v78q33 2 74.5 10.5t65.5 23.5q41 24 69.5 59t47.5 83 q116 281 232.5 563t257.5 622h200q196 -482 307 -762t189 -464q13 -30 33 -54.5t57 -46.5q28 -16 65 -24t67 -10v-78zM990 1526l-33 -41q-163 70 -270 107.5t-158 59.5t-76 47.5t-25 68.5t42 71.5t108 28.5q40 0 73.5 -17t73.5 -59q46 -49 102.5 -107.5t162.5 -158.5z"/>
<glyph glyph-name="Aacute" horiz-adv-x="1553" unicode="Á" d="M864 574l-206 514l-203 -514h409zM1609 0h-773v78q54 4 127 19.5t73 38.5q0 8 -1.5 18t-8.5 27l-121 294h-490q-17 -41 -37.5 -96t-35.5 -98q-19 -56 -22.5 -81t-3.5 -35q0 -32 48.5 -54.5t161.5 -32.5v-78h-582v78q33 2 74.5 10.5t65.5 23.5q41 24 69.5 59t47.5 83 q116 281 232.5 563t257.5 622h200q196 -482 307 -762t189 -464q13 -30 33 -54.5t57 -46.5q28 -16 65 -24t67 -10v-78zM1128 1768q0 -42 -26 -69t-75 -47q-56 -23 -168 -64t-260 -103l-33 41q102 97 155 151t110 115q38 40 73 58t74 18q65 0 107.5 -27.5t42.5 -72.5z"/>
<glyph glyph-name="Acircumflex" horiz-adv-x="1553" unicode="Â" d="M864 574l-206 514l-203 -514h409zM1609 0h-773v78q54 4 127 19.5t73 38.5q0 8 -1.5 18t-8.5 27l-121 294h-490q-17 -41 -37.5 -96t-35.5 -98q-19 -56 -22.5 -81t-3.5 -35q0 -32 48.5 -54.5t161.5 -32.5v-78h-582v78q33 2 74.5 10.5t65.5 23.5q41 24 69.5 59t47.5 83 q116 281 232.5 563t257.5 622h200q196 -482 307 -762t189 -464q13 -30 33 -54.5t57 -46.5q28 -16 65 -24t67 -10v-78zM1171 1513l-33 -29l-351 203l-344 -203l-33 29q104 128 155.5 189t85.5 105q23 30 54.5 45.5t85.5 15.5q55 0 81.5 -14t51.5 -43q41 -48 82.5 -98 t164.5 -200z"/>
<glyph glyph-name="Atilde" horiz-adv-x="1553" unicode="Ã" d="M864 574l-206 514l-203 -514h409zM1609 0h-773v78q54 4 127 19.5t73 38.5q0 8 -1.5 18t-8.5 27l-121 294h-490q-17 -41 -37.5 -96t-35.5 -98q-19 -56 -22.5 -81t-3.5 -35q0 -32 48.5 -54.5t161.5 -32.5v-78h-582v78q33 2 74.5 10.5t65.5 23.5q41 24 69.5 59t47.5 83 q116 281 232.5 563t257.5 622h200q196 -482 307 -762t189 -464q13 -30 33 -54.5t57 -46.5q28 -16 65 -24t67 -10v-78zM1231 1844q-12 -43 -39.5 -96.5t-66.5 -97.5q-44 -49 -90 -78t-107 -29q-72 0 -125.5 17.5t-92.5 37.5q-34 18 -75.5 37t-78.5 19q-45 0 -75.5 -34 t-71.5 -114l-72 30q14 40 40 90t65 99q34 43 86 76t104 33q66 0 118 -16.5t96 -38.5q46 -23 75.5 -38.5t72.5 -15.5q80 0 109.5 40t50.5 103z"/>
<glyph glyph-name="Adieresis" horiz-adv-x="1553" unicode="Ä" d="M864 574l-206 514l-203 -514h409zM1609 0h-773v78q54 4 127 19.5t73 38.5q0 8 -1.5 18t-8.5 27l-121 294h-490q-17 -41 -37.5 -96t-35.5 -98q-19 -56 -22.5 -81t-3.5 -35q0 -32 48.5 -54.5t161.5 -32.5v-78h-582v78q33 2 74.5 10.5t65.5 23.5q41 24 69.5 59t47.5 83 q116 281 232.5 563t257.5 622h200q196 -482 307 -762t189 -464q13 -30 33 -54.5t57 -46.5q28 -16 65 -24t67 -10v-78zM683 1690q0 -67 -48 -117.5t-112 -50.5q-65 0 -112 50t-47 118q0 67 46.5 117.5t112.5 50.5q64 0 112 -50.5t48 -117.5zM1219 1690q0 -67 -47.5 -117.5 t-111.5 -50.5q-65 0 -112.5 50t-47.5 118q0 67 47 117.5t113 50.5q64 0 111.5 -50.5t47.5 -117.5z"/>
<glyph glyph-name="Aring" horiz-adv-x="1553" unicode="Å" d="M915 1635q0 71 -33.5 117t-98.5 46q-63 0 -97.5 -44t-34.5 -119q0 -72 34 -118.5t98 -46.5t98 45.5t34 119.5zM864 574l-206 514l-203 -514h409zM1609 0h-773v78q54 4 127 19.5t73 38.5q0 8 -1.5 18t-8.5 27l-121 294h-490q-17 -41 -37.5 -96t-35.5 -98 q-19 -56 -22.5 -81t-3.5 -35q0 -32 48.5 -54.5t161.5 -32.5v-78h-582v78q33 2 74.5 10.5t65.5 23.5q41 24 69.5 59t47.5 83q105 255 238.5 577.5t242.5 585.5q-85 22 -134 79.5t-49 140.5q0 102 82 166.5t202 64.5q123 0 203.5 -63t80.5 -168q0 -78 -46 -135.5t-124 -81.5 q165 -406 295.5 -731t194.5 -476q13 -30 33 -54.5t57 -46.5q28 -16 65 -24t67 -10v-78z"/>
<glyph glyph-name="AE" horiz-adv-x="2191" unicode="Æ" d="M1012 688v641h-77l-364 -641h441zM2041 1057h-76q-29 81 -100 164t-141 98q-30 6 -83.5 8t-88.5 2h-186v-548h126q55 0 100 13t82 50q23 23 46.5 81t30.5 101h76v-592h-76q-6 42 -30.5 105.5t-46.5 87.5q-33 36 -78 49.5t-104 13.5h-126v-409q0 -130 39 -160t183 -30 q141 0 204 13t89 38q48 49 108 149.5t79 150.5h73l-27 -442h-1310v78q28 2 76 8t68 14q34 14 49 38t15 65v388h-496q-78 -136 -120 -212t-55 -99q-37 -69 -42 -92.5t-5 -29.5q0 -21 21.5 -36t50.5 -23q32 -9 64 -14t58 -7v-78h-582v78q25 2 69 11.5t66 22.5q45 24 78.5 59.5 t60.5 82.5q146 248 300.5 511t321.5 551q-29 9 -85.5 15.5t-98.5 9.5v78h1423v-362z"/>
<glyph glyph-name="Ccedilla" horiz-adv-x="1465" unicode="Ç" d="M725 -32q-129 12 -242 61t-199 131q-99 94 -156 232t-57 304q0 165 57.5 305.5t161.5 243.5q102 101 245 156.5t306 55.5q118 0 215 -28.5t164 -64.5l62 55h87l9 -518h-88q-75 237 -180 348t-256 111q-188 0 -286 -165.5t-98 -464.5q0 -169 33.5 -288.5t87.5 -192.5 q58 -76 137 -110.5t175 -34.5q140 0 249.5 75t199.5 229l86 -52q-43 -88 -98 -157.5t-127 -119.5q-79 -55 -174.5 -85t-227.5 -30v-60q110 0 179 -37.5t69 -118.5q0 -57 -29 -96t-83 -59q-56 -21 -135.5 -29t-197.5 -8v78q50 0 98 0.5t78 7.5q35 7 54 22.5t19 49.5 q0 40 -38 52t-100 12v190z"/>
<glyph glyph-name="Egrave" horiz-adv-x="1477" unicode="È" d="M1327 1057h-76q-29 81 -100 164t-141 98q-30 7 -83.5 8.5t-88.5 1.5h-206v-548h146q55 0 100 13t82 50q23 23 46.5 81t30.5 101h76v-592h-76q-6 42 -30.5 105.5t-46.5 87.5q-33 36 -78 49.5t-104 13.5h-146v-409q0 -64 9.5 -101.5t35.5 -57.5q25 -19 68.5 -25t118.5 -6 q35 0 84 1t86 6q42 5 78.5 15t54.5 29q48 49 108 149.5t79 150.5h73l-27 -442h-1331v78q28 2 76 8t68 14q38 16 51 40.5t13 62.5v1001q0 36 -11 59.5t-53 42.5q-26 12 -73 22t-71 13v78h1258v-362zM980 1526l-33 -41q-163 70 -270 107.5t-158 59.5t-76 47.5t-25 68.5 t42 71.5t108 28.5q40 0 73.5 -17t73.5 -59q46 -49 102.5 -107.5t162.5 -158.5z"/>
<glyph glyph-name="Eacute" horiz-adv-x="1477" unicode="É" d="M1327 1057h-76q-29 81 -100 164t-141 98q-30 7 -83.5 8.5t-88.5 1.5h-206v-548h146q55 0 100 13t82 50q23 23 46.5 81t30.5 101h76v-592h-76q-6 42 -30.5 105.5t-46.5 87.5q-33 36 -78 49.5t-104 13.5h-146v-409q0 -64 9.5 -101.5t35.5 -57.5q25 -19 68.5 -25t118.5 -6 q35 0 84 1t86 6q42 5 78.5 15t54.5 29q48 49 108 149.5t79 150.5h73l-27 -442h-1331v78q28 2 76 8t68 14q38 16 51 40.5t13 62.5v1001q0 36 -11 59.5t-53 42.5q-26 12 -73 22t-71 13v78h1258v-362zM1063 1768q0 -42 -26 -69t-75 -47q-56 -23 -168 -64t-260 -103l-33 41 q102 97 155 151t110 115q38 40 73 58t74 18q65 0 107.5 -27.5t42.5 -72.5z"/>
<glyph glyph-name="Ecircumflex" horiz-adv-x="1477" unicode="Ê" d="M1327 1057h-76q-29 81 -100 164t-141 98q-30 7 -83.5 8.5t-88.5 1.5h-206v-548h146q55 0 100 13t82 50q23 23 46.5 81t30.5 101h76v-592h-76q-6 42 -30.5 105.5t-46.5 87.5q-33 36 -78 49.5t-104 13.5h-146v-409q0 -64 9.5 -101.5t35.5 -57.5q25 -19 68.5 -25t118.5 -6 q35 0 84 1t86 6q42 5 78.5 15t54.5 29q48 49 108 149.5t79 150.5h73l-27 -442h-1331v78q28 2 76 8t68 14q38 16 51 40.5t13 62.5v1001q0 36 -11 59.5t-53 42.5q-26 12 -73 22t-71 13v78h1258v-362zM1150 1513l-33 -29l-351 203l-344 -203l-33 29q104 128 155.5 189t85.5 105 q23 30 54.5 45.5t85.5 15.5q55 0 81.5 -14t51.5 -43q41 -48 82.5 -98t164.5 -200z"/>
<glyph glyph-name="Edieresis" horiz-adv-x="1477" unicode="Ë" d="M1327 1057h-76q-29 81 -100 164t-141 98q-30 7 -83.5 8.5t-88.5 1.5h-206v-548h146q55 0 100 13t82 50q23 23 46.5 81t30.5 101h76v-592h-76q-6 42 -30.5 105.5t-46.5 87.5q-33 36 -78 49.5t-104 13.5h-146v-409q0 -64 9.5 -101.5t35.5 -57.5q25 -19 68.5 -25t118.5 -6 q35 0 84 1t86 6q42 5 78.5 15t54.5 29q48 49 108 149.5t79 150.5h73l-27 -442h-1331v78q28 2 76 8t68 14q38 16 51 40.5t13 62.5v1001q0 36 -11 59.5t-53 42.5q-26 12 -73 22t-71 13v78h1258v-362zM671 1700q0 -67 -48 -117.5t-112 -50.5q-65 0 -112 50t-47 118 q0 67 46.5 117.5t112.5 50.5q64 0 112 -50.5t48 -117.5zM1207 1700q0 -67 -47.5 -117.5t-111.5 -50.5q-65 0 -112.5 50t-47.5 118q0 67 47 117.5t113 50.5q64 0 111.5 -50.5t47.5 -117.5z"/>
<glyph glyph-name="Igrave" horiz-adv-x="913" unicode="Ì" d="M850 0h-787v78q27 2 79.5 6t72.5 12q37 15 50.5 39.5t13.5 62.5v1006q0 34 -13 60t-51 42q-24 10 -71 20.5t-81 14.5v78h787v-78q-30 -3 -75 -8.5t-76 -15.5q-39 -13 -52 -40.5t-13 -62.5v-1005q0 -36 13.5 -61.5t51.5 -41.5q21 -9 69.5 -17.5t81.5 -10.5v-78zM760 1526 l-33 -41q-163 70 -270 107.5t-158 59.5t-76 47.5t-25 68.5t42 71.5t108 28.5q40 0 73.5 -17t73.5 -59q46 -49 102.5 -107.5t162.5 -158.5z"/>
<glyph glyph-name="Iacute" horiz-adv-x="913" unicode="Í" d="M850 0h-787v78q27 2 79.5 6t72.5 12q37 15 50.5 39.5t13.5 62.5v1006q0 34 -13 60t-51 42q-24 10 -71 20.5t-81 14.5v78h787v-78q-30 -3 -75 -8.5t-76 -15.5q-39 -13 -52 -40.5t-13 -62.5v-1005q0 -36 13.5 -61.5t51.5 -41.5q21 -9 69.5 -17.5t81.5 -10.5v-78zM728 1768 q0 -42 -26 -69t-75 -47q-56 -23 -168 -64t-260 -103l-33 41q102 97 155 151t110 115q38 40 73 58t74 18q65 0 107.5 -27.5t42.5 -72.5z"/>
<glyph glyph-name="Icircumflex" horiz-adv-x="913" unicode="Î" d="M850 0h-787v78q27 2 79.5 6t72.5 12q37 15 50.5 39.5t13.5 62.5v1006q0 34 -13 60t-51 42q-24 10 -71 20.5t-81 14.5v78h787v-78q-30 -3 -75 -8.5t-76 -15.5q-39 -13 -52 -40.5t-13 -62.5v-1005q0 -36 13.5 -61.5t51.5 -41.5q21 -9 69.5 -17.5t81.5 -10.5v-78zM837 1513 l-33 -29l-351 203l-344 -203l-33 29q104 128 155.5 189t85.5 105q23 30 54.5 45.5t85.5 15.5q55 0 81.5 -14t51.5 -43q41 -48 82.5 -98t164.5 -200z"/>
<glyph glyph-name="Idieresis" horiz-adv-x="913" unicode="Ï" d="M850 0h-787v78q27 2 79.5 6t72.5 12q37 15 50.5 39.5t13.5 62.5v1006q0 34 -13 60t-51 42q-24 10 -71 20.5t-81 14.5v78h787v-78q-30 -3 -75 -8.5t-76 -15.5q-39 -13 -52 -40.5t-13 -62.5v-1005q0 -36 13.5 -61.5t51.5 -41.5q21 -9 69.5 -17.5t81.5 -10.5v-78zM368 1700 q0 -67 -48 -117.5t-112 -50.5q-65 0 -112 50t-47 118q0 67 46.5 117.5t112.5 50.5q64 0 112 -50.5t48 -117.5zM863 1700q0 -67 -47.5 -117.5t-111.5 -50.5q-65 0 -112.5 50t-47.5 118q0 67 47 117.5t113 50.5q64 0 111.5 -50.5t47.5 -117.5z"/>
<glyph glyph-name="Eth" horiz-adv-x="1708" unicode="Ð" d="M1237 701q0 141 -30 257t-88 198t-144.5 127t-196.5 45q-35 0 -80 -1.5t-67 -2.5v-533h305v-105h-305v-439q0 -36 9.5 -63.5t32.5 -47.5q24 -22 57.5 -33.5t87.5 -11.5q113 0 194 42t131 123q49 80 71.5 190.5t22.5 254.5zM1347 1273q130 -85 210 -226.5t80 -346.5 q0 -180 -71.5 -313.5t-189.5 -218.5q-120 -85 -272.5 -126.5t-319.5 -41.5h-715v78q32 1 80 6t64 12q36 15 50 40.5t14 61.5v488h-195v105h195v413q0 34 -13 61.5t-51 44.5t-80.5 23t-65.5 8v78h755q121 0 259 -31t266 -115z"/>
<glyph glyph-name="Ntilde" horiz-adv-x="1719" unicode="Ñ" d="M1699 1341q-28 -3 -80 -11t-94 -39q-37 -27 -52.5 -92.5t-15.5 -192.5v-1014h-178l-884 1097v-666q0 -124 16.5 -188.5t53.5 -94.5q27 -22 86 -39t94 -23v-78h-610v78q39 3 89.5 14.5t84.5 35.5q39 29 53.5 87.5t14.5 196.5v672q0 50 -15.5 94.5t-48.5 76.5 q-35 34 -80.5 53.5t-103.5 30.5v80h534l776 -960v537q0 128 -17 190.5t-54 92.5q-29 23 -86 39.5t-92 22.5v78h609v-78zM1332 1844q-12 -43 -39.5 -96.5t-66.5 -97.5q-44 -49 -90 -78t-107 -29q-72 0 -125.5 17.5t-92.5 37.5q-34 18 -75.5 37t-78.5 19q-45 0 -75.5 -34 t-71.5 -114l-72 30q14 40 40 90t65 99q34 43 86 76t104 33q66 0 118 -16.5t96 -38.5q46 -23 75.5 -38.5t72.5 -15.5q80 0 109.5 40t50.5 103z"/>
<glyph glyph-name="Ograve" horiz-adv-x="1679" unicode="Ò" d="M1123 246q45 91 65 206t20 260q0 123 -17.5 239.5t-59.5 207.5q-43 91 -114 146t-177 55q-181 0 -275 -171.5t-94 -484.5q0 -133 20.5 -251t64.5 -206q45 -89 114 -138.5t170 -49.5q99 0 170 50t113 137zM1380 1261q105 -96 166.5 -232t61.5 -310q0 -155 -52 -295 t-150 -241q-103 -105 -242 -163.5t-331 -58.5q-155 0 -293 51t-243 148q-104 95 -165 231t-61 303q0 174 59.5 315.5t163.5 242.5q103 99 244.5 152.5t301.5 53.5q159 0 298.5 -52t241.5 -145zM1107 1526l-33 -41q-163 70 -270 107.5t-158 59.5t-76 47.5t-25 68.5t42 71.5 t108 28.5q40 0 73.5 -17t73.5 -59q46 -49 102.5 -107.5t162.5 -158.5z"/>
<glyph glyph-name="Oacute" horiz-adv-x="1679" unicode="Ó" d="M1123 246q45 91 65 206t20 260q0 123 -17.5 239.5t-59.5 207.5q-43 91 -114 146t-177 55q-181 0 -275 -171.5t-94 -484.5q0 -133 20.5 -251t64.5 -206q45 -89 114 -138.5t170 -49.5q99 0 170 50t113 137zM1380 1261q105 -96 166.5 -232t61.5 -310q0 -155 -52 -295 t-150 -241q-103 -105 -242 -163.5t-331 -58.5q-155 0 -293 51t-243 148q-104 95 -165 231t-61 303q0 174 59.5 315.5t163.5 242.5q103 99 244.5 152.5t301.5 53.5q159 0 298.5 -52t241.5 -145zM1098 1768q0 -42 -26 -69t-75 -47q-56 -23 -168 -64t-260 -103l-33 41 q102 97 155 151t110 115q38 40 73 58t74 18q65 0 107.5 -27.5t42.5 -72.5z"/>
<glyph glyph-name="Ocircumflex" horiz-adv-x="1679" unicode="Ô" d="M1123 246q45 91 65 206t20 260q0 123 -17.5 239.5t-59.5 207.5q-43 91 -114 146t-177 55q-181 0 -275 -171.5t-94 -484.5q0 -133 20.5 -251t64.5 -206q45 -89 114 -138.5t170 -49.5q99 0 170 50t113 137zM1380 1261q105 -96 166.5 -232t61.5 -310q0 -155 -52 -295 t-150 -241q-103 -105 -242 -163.5t-331 -58.5q-155 0 -293 51t-243 148q-104 95 -165 231t-61 303q0 174 59.5 315.5t163.5 242.5q103 99 244.5 152.5t301.5 53.5q159 0 298.5 -52t241.5 -145zM1220 1513l-33 -29l-351 203l-344 -203l-33 29q104 128 155.5 189t85.5 105 q23 30 54.5 45.5t85.5 15.5q55 0 81.5 -14t51.5 -43q41 -48 82.5 -98t164.5 -200z"/>
<glyph glyph-name="Otilde" horiz-adv-x="1679" unicode="Õ" d="M1123 246q45 91 65 206t20 260q0 123 -17.5 239.5t-59.5 207.5q-43 91 -114 146t-177 55q-181 0 -275 -171.5t-94 -484.5q0 -133 20.5 -251t64.5 -206q45 -89 114 -138.5t170 -49.5q99 0 170 50t113 137zM1380 1261q105 -96 166.5 -232t61.5 -310q0 -155 -52 -295 t-150 -241q-103 -105 -242 -163.5t-331 -58.5q-155 0 -293 51t-243 148q-104 95 -165 231t-61 303q0 174 59.5 315.5t163.5 242.5q103 99 244.5 152.5t301.5 53.5q159 0 298.5 -52t241.5 -145zM1286 1844q-12 -43 -39.5 -96.5t-66.5 -97.5q-44 -49 -90 -78t-107 -29 q-72 0 -125.5 17.5t-92.5 37.5q-34 18 -75.5 37t-78.5 19q-45 0 -75.5 -34t-71.5 -114l-72 30q14 40 40 90t65 99q34 43 86 76t104 33q66 0 118 -16.5t96 -38.5q46 -23 75.5 -38.5t72.5 -15.5q80 0 109.5 40t50.5 103z"/>
<glyph glyph-name="Odieresis" horiz-adv-x="1679" unicode="Ö" d="M1123 246q45 91 65 206t20 260q0 123 -17.5 239.5t-59.5 207.5q-43 91 -114 146t-177 55q-181 0 -275 -171.5t-94 -484.5q0 -133 20.5 -251t64.5 -206q45 -89 114 -138.5t170 -49.5q99 0 170 50t113 137zM1380 1261q105 -96 166.5 -232t61.5 -310q0 -155 -52 -295 t-150 -241q-103 -105 -242 -163.5t-331 -58.5q-155 0 -293 51t-243 148q-104 95 -165 231t-61 303q0 174 59.5 315.5t163.5 242.5q103 99 244.5 152.5t301.5 53.5q159 0 298.5 -52t241.5 -145zM731 1700q0 -67 -48 -117.5t-112 -50.5q-65 0 -112 50t-47 118q0 67 46.5 117.5 t112.5 50.5q64 0 112 -50.5t48 -117.5zM1267 1700q0 -67 -47.5 -117.5t-111.5 -50.5q-65 0 -112.5 50t-47.5 118q0 67 47 117.5t113 50.5q64 0 111.5 -50.5t47.5 -117.5z"/>
<glyph glyph-name="multiply" d="M1217 192l-115 -115l-383 384l-383 -384l-115 115l385 383l-385 382l115 116l383 -385l383 385l115 -116l-385 -382z" unicode="×"/>
<glyph glyph-name="Oslash" horiz-adv-x="1679" unicode="Ø" d="M1129 243q47 92 67 207.5t20 261.5q0 76 -6 155t-21 147l-665 -720q45 -115 123 -176t193 -61q99 0 172.5 50t116.5 136zM1156 1123q-43 109 -119 174.5t-197 65.5q-185 0 -281 -171.5t-96 -487.5q0 -92 5.5 -159.5t22.5 -142.5zM1608 719q0 -155 -52 -295t-150 -241 q-103 -105 -242 -163.5t-331 -58.5q-135 0 -259 39.5t-224 115.5l-197 -211l-74 68l197 207q-96 96 -150.5 228t-54.5 286q0 174 59.5 315.5t163.5 242.5q103 99 244.5 152.5t301.5 53.5q140 0 264.5 -39.5t225.5 -117.5l195 208l74 -68l-195 -205q94 -94 149 -226.5 t55 -290.5z"/>
<glyph glyph-name="Ugrave" horiz-adv-x="1707" unicode="Ù" d="M1703 1341q-29 -3 -83.5 -13.5t-91.5 -36.5q-38 -25 -53.5 -90t-15.5 -195v-528q0 -233 -158 -375t-418 -142q-303 0 -469 137t-166 382v726q0 35 -13.5 60t-51.5 45q-26 13 -64 21t-62 11v76h744v-76q-32 -2 -65 -7.5t-67 -16.5q-38 -12 -51 -40t-13 -63v-716 q0 -211 93 -307t270 -96q174 0 273 106t99 312v481q0 128 -17.5 191.5t-53.5 91.5q-26 22 -90.5 40t-90.5 22v78h615v-78zM1120 1526l-33 -41q-163 70 -270 107.5t-158 59.5t-76 47.5t-25 68.5t42 71.5t108 28.5q40 0 73.5 -17t73.5 -59q46 -49 102.5 -107.5t162.5 -158.5z "/>
<glyph glyph-name="Uacute" horiz-adv-x="1707" unicode="Ú" d="M1703 1341q-29 -3 -83.5 -13.5t-91.5 -36.5q-38 -25 -53.5 -90t-15.5 -195v-528q0 -233 -158 -375t-418 -142q-303 0 -469 137t-166 382v726q0 35 -13.5 60t-51.5 45q-26 13 -64 21t-62 11v76h744v-76q-32 -2 -65 -7.5t-67 -16.5q-38 -12 -51 -40t-13 -63v-716 q0 -211 93 -307t270 -96q174 0 273 106t99 312v481q0 128 -17.5 191.5t-53.5 91.5q-26 22 -90.5 40t-90.5 22v78h615v-78zM1198 1768q0 -42 -26 -69t-75 -47q-56 -23 -168 -64t-260 -103l-33 41q102 97 155 151t110 115q38 40 73 58t74 18q65 0 107.5 -27.5t42.5 -72.5z"/>
<glyph glyph-name="Ucircumflex" horiz-adv-x="1707" unicode="Û" d="M1703 1341q-29 -3 -83.5 -13.5t-91.5 -36.5q-38 -25 -53.5 -90t-15.5 -195v-528q0 -233 -158 -375t-418 -142q-303 0 -469 137t-166 382v726q0 35 -13.5 60t-51.5 45q-26 13 -64 21t-62 11v76h744v-76q-32 -2 -65 -7.5t-67 -16.5q-38 -12 -51 -40t-13 -63v-716 q0 -211 93 -307t270 -96q174 0 273 106t99 312v481q0 128 -17.5 191.5t-53.5 91.5q-26 22 -90.5 40t-90.5 22v78h615v-78zM1310 1513l-33 -29l-351 203l-344 -203l-33 29q104 128 155.5 189t85.5 105q23 30 54.5 45.5t85.5 15.5q55 0 81.5 -14t51.5 -43q41 -48 82.5 -98 t164.5 -200z"/>
<glyph glyph-name="Udieresis" horiz-adv-x="1707" unicode="Ü" d="M1703 1341q-29 -3 -83.5 -13.5t-91.5 -36.5q-38 -25 -53.5 -90t-15.5 -195v-528q0 -233 -158 -375t-418 -142q-303 0 -469 137t-166 382v726q0 35 -13.5 60t-51.5 45q-26 13 -64 21t-62 11v76h744v-76q-32 -2 -65 -7.5t-67 -16.5q-38 -12 -51 -40t-13 -63v-716 q0 -211 93 -307t270 -96q174 0 273 106t99 312v481q0 128 -17.5 191.5t-53.5 91.5q-26 22 -90.5 40t-90.5 22v78h615v-78zM801 1700q0 -67 -48 -117.5t-112 -50.5q-65 0 -112 50t-47 118q0 67 46.5 117.5t112.5 50.5q64 0 112 -50.5t48 -117.5zM1337 1700 q0 -67 -47.5 -117.5t-111.5 -50.5q-65 0 -112.5 50t-47.5 118q0 67 47 117.5t113 50.5q64 0 111.5 -50.5t47.5 -117.5z"/>
<glyph glyph-name="Yacute" horiz-adv-x="1499" unicode="Ý" d="M1567 1341q-36 -4 -66 -13t-57 -25q-43 -24 -76.5 -61.5t-65.5 -83.5q-65 -95 -136.5 -206.5t-155.5 -245.5q-55 -85 -67.5 -130.5t-12.5 -157.5v-201q0 -36 13.5 -63t51.5 -44q17 -7 72 -18.5t81 -13.5v-78h-791v78q28 2 80.5 8t73.5 14q37 16 50.5 42.5t13.5 64.5v250 q0 33 -1 58t-7 42q-7 19 -24 48.5t-44 76.5q-77 135 -149 256t-137 227q-34 55 -68.5 88.5t-70.5 54.5q-27 15 -65.5 23t-69.5 10v78h813v-78q-112 -3 -151 -15.5t-39 -34.5q0 -11 14.5 -44t51.5 -102q34 -65 99.5 -179t157.5 -267q190 301 261 420.5t71 146.5 q0 34 -41.5 52t-134.5 23v78h526v-78zM1123 1768q0 -42 -26 -69t-75 -47q-56 -23 -168 -64t-260 -103l-33 41q102 97 155 151t110 115q38 40 73 58t74 18q65 0 107.5 -27.5t42.5 -72.5z"/>
<glyph glyph-name="Thorn" horiz-adv-x="1450" unicode="Þ" d="M1008 735q0 160 -66 238t-231 78h-79v-632h52q164 0 244 79.5t80 236.5zM1399 752q0 -108 -51 -189t-135 -134q-81 -51 -183 -77t-205 -26h-193v-117q0 -37 14.5 -62t50.5 -41q20 -8 62.5 -17.5t72.5 -10.5v-78h-763v78q28 2 75.5 8t68.5 14q33 14 48.5 37.5t15.5 65.5 v1001q0 36 -11 60.5t-53 41.5q-28 12 -71.5 22.5t-72.5 12.5v78h763v-78q-26 -1 -71 -11t-64 -18q-36 -15 -50.5 -42t-14.5 -60v-66h220q276 0 411.5 -93.5t135.5 -298.5z"/>
<glyph glyph-name="germandbls" horiz-adv-x="1347" unicode="ß" d="M1151 804q56 -53 90.5 -126.5t34.5 -179.5q0 -218 -130 -363.5t-349 -145.5q-61 0 -115.5 5.5t-83.5 11.5v86q16 -3 33.5 -5t30.5 -2q121 0 188 112t67 307q0 174 -63 276t-188 102h-28v93h37q35 0 73 15.5t65 46.5q34 38 50 88.5t16 114.5q0 113 -43 170t-118 57 q-116 0 -158.5 -94.5t-42.5 -275.5v-1097h-480v73q30 3 51 4.5t43 10.5q28 11 41.5 33t13.5 61v835q0 167 43.5 261.5t118.5 151.5q82 65 182 92.5t204 27.5q86 0 167.5 -18.5t146.5 -56.5q64 -38 103.5 -97.5t39.5 -140.5q0 -66 -26 -118.5t-65 -87.5q-43 -39 -93 -62 t-100 -32v-9q57 -11 122.5 -40.5t121.5 -83.5z"/>
<glyph glyph-name="agrave" horiz-adv-x="1220" unicode="à" d="M704 542q-56 -19 -111 -43.5t-90 -51.5q-37 -28 -58 -71.5t-21 -102.5q0 -78 35.5 -113t87.5 -35q55 0 90.5 22.5t62.5 55.5zM1201 21q-44 -19 -104 -35t-127 -16q-123 0 -181 36.5t-79 104.5h-6q-34 -34 -65.5 -58t-67.5 -41q-47 -22 -90.5 -32.5t-121.5 -10.5 q-116 0 -198 68.5t-82 181.5q0 65 18 110.5t51 80.5q30 32 69.5 53t86.5 39q90 33 216 68.5t184 63.5v96q0 25 -4 66t-17 69q-14 32 -44 54t-79 22q-44 0 -73.5 -12.5t-47.5 -25.5q3 -20 17 -61t14 -79q0 -17 -9 -42.5t-26 -40.5q-23 -20 -51.5 -31t-87.5 -11 q-84 0 -127 40.5t-43 105.5q0 56 44.5 100.5t108.5 73.5q63 30 145 46.5t152 16.5q97 0 178 -11.5t146 -47.5q62 -35 98.5 -101.5t36.5 -173.5q0 -113 -4.5 -268t-4.5 -204q0 -45 13.5 -71t41.5 -39q17 -8 53.5 -9.5t66.5 -1.5v-73zM821 1139l-42 -38q-166 100 -250.5 144.5 t-144.5 85.5q-47 32 -66.5 56.5t-19.5 72.5q0 36 38.5 62t86.5 26q61 0 97 -18.5t82 -85.5q33 -48 89.5 -127.5t129.5 -177.5z"/>
<glyph glyph-name="aacute" horiz-adv-x="1220" unicode="á" d="M704 542q-56 -19 -111 -43.5t-90 -51.5q-37 -28 -58 -71.5t-21 -102.5q0 -78 35.5 -113t87.5 -35q55 0 90.5 22.5t62.5 55.5zM1201 21q-44 -19 -104 -35t-127 -16q-123 0 -181 36.5t-79 104.5h-6q-34 -34 -65.5 -58t-67.5 -41q-47 -22 -90.5 -32.5t-121.5 -10.5 q-116 0 -198 68.5t-82 181.5q0 65 18 110.5t51 80.5q30 32 69.5 53t86.5 39q90 33 216 68.5t184 63.5v96q0 25 -4 66t-17 69q-14 32 -44 54t-79 22q-44 0 -73.5 -12.5t-47.5 -25.5q3 -20 17 -61t14 -79q0 -17 -9 -42.5t-26 -40.5q-23 -20 -51.5 -31t-87.5 -11 q-84 0 -127 40.5t-43 105.5q0 56 44.5 100.5t108.5 73.5q63 30 145 46.5t152 16.5q97 0 178 -11.5t146 -47.5q62 -35 98.5 -101.5t36.5 -173.5q0 -113 -4.5 -268t-4.5 -204q0 -45 13.5 -71t41.5 -39q17 -8 53.5 -9.5t66.5 -1.5v-73zM884 1460q0 -45 -20.5 -72.5t-65.5 -56.5 q-49 -32 -155 -90.5t-240 -139.5l-42 38q88 117 136 186.5t83 118.5q43 61 82 82.5t97 21.5q48 0 86.5 -26t38.5 -62z"/>
<glyph glyph-name="acircumflex" horiz-adv-x="1220" unicode="â" d="M704 542q-56 -19 -111 -43.5t-90 -51.5q-37 -28 -58 -71.5t-21 -102.5q0 -78 35.5 -113t87.5 -35q55 0 90.5 22.5t62.5 55.5zM1201 21q-44 -19 -104 -35t-127 -16q-123 0 -181 36.5t-79 104.5h-6q-34 -34 -65.5 -58t-67.5 -41q-47 -22 -90.5 -32.5t-121.5 -10.5 q-116 0 -198 68.5t-82 181.5q0 65 18 110.5t51 80.5q30 32 69.5 53t86.5 39q90 33 216 68.5t184 63.5v96q0 25 -4 66t-17 69q-14 32 -44 54t-79 22q-44 0 -73.5 -12.5t-47.5 -25.5q3 -20 17 -61t14 -79q0 -17 -9 -42.5t-26 -40.5q-23 -20 -51.5 -31t-87.5 -11 q-84 0 -127 40.5t-43 105.5q0 56 44.5 100.5t108.5 73.5q63 30 145 46.5t152 16.5q97 0 178 -11.5t146 -47.5q62 -35 98.5 -101.5t36.5 -173.5q0 -113 -4.5 -268t-4.5 -204q0 -45 13.5 -71t41.5 -39q17 -8 53.5 -9.5t66.5 -1.5v-73zM963 1132l-54 -29l-320 254l-316 -254 l-51 29q100 161 139 224t92 131q23 31 54.5 46t85.5 15q55 0 82 -14t51 -43q47 -57 100.5 -141t136.5 -218z"/>
<glyph glyph-name="atilde" horiz-adv-x="1220" unicode="ã" d="M704 542q-56 -19 -111 -43.5t-90 -51.5q-37 -28 -58 -71.5t-21 -102.5q0 -78 35.5 -113t87.5 -35q55 0 90.5 22.5t62.5 55.5zM1201 21q-44 -19 -104 -35t-127 -16q-123 0 -181 36.5t-79 104.5h-6q-34 -34 -65.5 -58t-67.5 -41q-47 -22 -90.5 -32.5t-121.5 -10.5 q-116 0 -198 68.5t-82 181.5q0 65 18 110.5t51 80.5q30 32 69.5 53t86.5 39q90 33 216 68.5t184 63.5v96q0 25 -4 66t-17 69q-14 32 -44 54t-79 22q-44 0 -73.5 -12.5t-47.5 -25.5q3 -20 17 -61t14 -79q0 -17 -9 -42.5t-26 -40.5q-23 -20 -51.5 -31t-87.5 -11 q-84 0 -127 40.5t-43 105.5q0 56 44.5 100.5t108.5 73.5q63 30 145 46.5t152 16.5q97 0 178 -11.5t146 -47.5q62 -35 98.5 -101.5t36.5 -173.5q0 -113 -4.5 -268t-4.5 -204q0 -45 13.5 -71t41.5 -39q17 -8 53.5 -9.5t66.5 -1.5v-73zM1039 1479q-12 -43 -39.5 -96.5 t-66.5 -97.5q-44 -49 -90 -78t-107 -29q-72 0 -125.5 17.5t-92.5 37.5q-34 18 -75.5 37t-78.5 19q-45 0 -75.5 -34t-71.5 -114l-72 30q14 40 40 90t65 99q34 43 86 76t104 33q66 0 118 -16.5t96 -38.5q46 -23 75.5 -38.5t72.5 -15.5q80 0 109.5 40t50.5 103z"/>
<glyph glyph-name="adieresis" horiz-adv-x="1220" unicode="ä" d="M704 542q-56 -19 -111 -43.5t-90 -51.5q-37 -28 -58 -71.5t-21 -102.5q0 -78 35.5 -113t87.5 -35q55 0 90.5 22.5t62.5 55.5zM1201 21q-44 -19 -104 -35t-127 -16q-123 0 -181 36.5t-79 104.5h-6q-34 -34 -65.5 -58t-67.5 -41q-47 -22 -90.5 -32.5t-121.5 -10.5 q-116 0 -198 68.5t-82 181.5q0 65 18 110.5t51 80.5q30 32 69.5 53t86.5 39q90 33 216 68.5t184 63.5v96q0 25 -4 66t-17 69q-14 32 -44 54t-79 22q-44 0 -73.5 -12.5t-47.5 -25.5q3 -20 17 -61t14 -79q0 -17 -9 -42.5t-26 -40.5q-23 -20 -51.5 -31t-87.5 -11 q-84 0 -127 40.5t-43 105.5q0 56 44.5 100.5t108.5 73.5q63 30 145 46.5t152 16.5q97 0 178 -11.5t146 -47.5q62 -35 98.5 -101.5t36.5 -173.5q0 -113 -4.5 -268t-4.5 -204q0 -45 13.5 -71t41.5 -39q17 -8 53.5 -9.5t66.5 -1.5v-73zM504 1349q0 -67 -48 -117.5t-112 -50.5 q-65 0 -112 50t-47 118q0 67 46.5 117.5t112.5 50.5q64 0 112 -50.5t48 -117.5zM999 1349q0 -67 -47.5 -117.5t-111.5 -50.5q-65 0 -112.5 50t-47.5 118q0 67 47 117.5t113 50.5q64 0 111.5 -50.5t47.5 -117.5z"/>
<glyph glyph-name="aring" horiz-adv-x="1220" unicode="å" d="M704 542q-56 -19 -111 -43.5t-90 -51.5q-37 -28 -58 -71.5t-21 -102.5q0 -78 35.5 -113t87.5 -35q55 0 90.5 22.5t62.5 55.5zM1201 21q-44 -19 -104 -35t-127 -16q-123 0 -181 36.5t-79 104.5h-6q-34 -34 -65.5 -58t-67.5 -41q-47 -22 -90.5 -32.5t-121.5 -10.5 q-116 0 -198 68.5t-82 181.5q0 65 18 110.5t51 80.5q30 32 69.5 53t86.5 39q90 33 216 68.5t184 63.5v96q0 25 -4 66t-17 69q-14 32 -44 54t-79 22q-44 0 -73.5 -12.5t-47.5 -25.5q3 -20 17 -61t14 -79q0 -17 -9 -42.5t-26 -40.5q-23 -20 -51.5 -31t-87.5 -11 q-84 0 -127 40.5t-43 105.5q0 56 44.5 100.5t108.5 73.5q63 30 145 46.5t152 16.5q97 0 178 -11.5t146 -47.5q62 -35 98.5 -101.5t36.5 -173.5q0 -113 -4.5 -268t-4.5 -204q0 -45 13.5 -71t41.5 -39q17 -8 53.5 -9.5t66.5 -1.5v-73zM723 1326q0 71 -33.5 116.5t-98.5 45.5 q-63 0 -97.5 -43.5t-34.5 -118.5q0 -72 34 -116.5t98 -44.5t98 43.5t34 117.5zM870 1327q0 -104 -77 -168t-202 -64q-128 0 -203.5 61.5t-75.5 170.5q0 106 80.5 168.5t198.5 62.5q120 0 199.5 -62t79.5 -169z"/>
<glyph glyph-name="ae" horiz-adv-x="1756" unicode="æ" d="M703 203v329q-60 -16 -111 -35.5t-89 -47.5q-36 -27 -57.5 -70.5t-21.5 -102.5q0 -81 35.5 -116t87.5 -35q55 0 95 24t61 54zM1341 619q0 52 -5.5 119t-17.5 104q-15 44 -43 71t-75 27q-79 0 -121 -79.5t-46 -245.5zM1718 239q-70 -120 -194.5 -195.5t-283.5 -75.5 q-163 0 -278.5 50.5t-181.5 141.5h-6q-26 -30 -61.5 -64t-83.5 -62q-52 -30 -111.5 -47.5t-148.5 -17.5q-124 0 -207 68.5t-83 181.5q0 65 18 110.5t51 80.5q30 32 69.5 53t86.5 39q95 35 223 69.5t176 48.5v110q0 25 -4 66t-17 69q-14 32 -43.5 54t-78.5 22 q-44 0 -73.5 -12.5t-47.5 -25.5q3 -20 17 -61t14 -79q0 -17 -9 -42.5t-26 -40.5q-23 -20 -51.5 -31t-87.5 -11q-84 0 -127 40t-43 106q0 54 42 98t111 76q63 30 145 46.5t152 16.5q109 0 194.5 -22t153.5 -77q53 38 131.5 68.5t159.5 30.5q130 0 222 -34.5t148 -93.5 q56 -58 81 -135t25 -162v-65h-658q0 -204 77 -311.5t245 -107.5q92 0 163.5 53t123.5 130z"/>
<glyph glyph-name="ccedilla" horiz-adv-x="1088" unicode="ç" d="M545 -26q-108 9 -193.5 48t-143.5 97q-69 71 -103 168t-34 211q0 104 41.5 198t112.5 165q73 73 181.5 116.5t239.5 43.5q184 0 291 -69.5t107 -187.5q0 -72 -38 -116t-131 -44q-75 0 -125.5 36t-50.5 94q0 49 16 97t19 73q-11 18 -28 27.5t-53 9.5q-45 0 -82 -21 t-69 -74q-31 -50 -49.5 -134t-18.5 -202q0 -178 83.5 -287t199.5 -109q111 0 176.5 49.5t116.5 140.5l75 -52q-31 -61 -74 -111.5t-103 -89.5q-63 -41 -133 -61t-144 -20v-66q110 0 179 -37.5t69 -118.5q0 -57 -29 -96t-83 -59q-56 -21 -135.5 -29t-197.5 -8v78q50 0 98 1 t78 7q35 7 54 22.5t19 49.5q0 40 -38 52t-100 12v196z"/>
<glyph glyph-name="egrave" horiz-adv-x="1171" unicode="è" d="M751 619q0 60 -6 123t-21 103q-17 47 -46.5 71t-74.5 24q-77 0 -123 -78t-50 -247zM1133 239q-35 -57 -84.5 -107.5t-112.5 -86.5q-67 -38 -135.5 -57.5t-157.5 -19.5q-148 0 -255.5 42t-177.5 113t-104.5 167.5t-34.5 209.5q0 102 37.5 195.5t106.5 166.5 q68 71 171.5 115t231.5 44q140 0 230 -34t149 -94q57 -57 83 -134.5t26 -162.5v-65h-676q0 -205 79 -312t251 -107q94 0 169 51.5t128 130.5zM825 1139l-42 -38q-166 100 -250.5 144.5t-144.5 85.5q-47 32 -66.5 56.5t-19.5 72.5q0 36 38.5 62t86.5 26q61 0 97 -18.5 t82 -85.5q33 -48 89.5 -127.5t129.5 -177.5z"/>
<glyph glyph-name="eacute" horiz-adv-x="1171" unicode="é" d="M751 619q0 60 -6 123t-21 103q-17 47 -46.5 71t-74.5 24q-77 0 -123 -78t-50 -247zM1133 239q-35 -57 -84.5 -107.5t-112.5 -86.5q-67 -38 -135.5 -57.5t-157.5 -19.5q-148 0 -255.5 42t-177.5 113t-104.5 167.5t-34.5 209.5q0 102 37.5 195.5t106.5 166.5 q68 71 171.5 115t231.5 44q140 0 230 -34t149 -94q57 -57 83 -134.5t26 -162.5v-65h-676q0 -205 79 -312t251 -107q94 0 169 51.5t128 130.5zM884 1460q0 -45 -20.5 -72.5t-65.5 -56.5q-49 -32 -155 -90.5t-240 -139.5l-42 38q88 117 136 186.5t83 118.5q43 61 82 82.5 t97 21.5q48 0 86.5 -26t38.5 -62z"/>
<glyph glyph-name="ecircumflex" horiz-adv-x="1171" unicode="ê" d="M751 619q0 60 -6 123t-21 103q-17 47 -46.5 71t-74.5 24q-77 0 -123 -78t-50 -247zM1133 239q-35 -57 -84.5 -107.5t-112.5 -86.5q-67 -38 -135.5 -57.5t-157.5 -19.5q-148 0 -255.5 42t-177.5 113t-104.5 167.5t-34.5 209.5q0 102 37.5 195.5t106.5 166.5 q68 71 171.5 115t231.5 44q140 0 230 -34t149 -94q57 -57 83 -134.5t26 -162.5v-65h-676q0 -205 79 -312t251 -107q94 0 169 51.5t128 130.5zM967 1132l-54 -29l-320 254l-316 -254l-51 29q100 161 139 224t92 131q23 31 54.5 46t85.5 15q55 0 82 -14t51 -43 q47 -57 100.5 -141t136.5 -218z"/>
<glyph glyph-name="edieresis" horiz-adv-x="1171" unicode="ë" d="M751 619q0 60 -6 123t-21 103q-17 47 -46.5 71t-74.5 24q-77 0 -123 -78t-50 -247zM1133 239q-35 -57 -84.5 -107.5t-112.5 -86.5q-67 -38 -135.5 -57.5t-157.5 -19.5q-148 0 -255.5 42t-177.5 113t-104.5 167.5t-34.5 209.5q0 102 37.5 195.5t106.5 166.5 q68 71 171.5 115t231.5 44q140 0 230 -34t149 -94q57 -57 83 -134.5t26 -162.5v-65h-676q0 -205 79 -312t251 -107q94 0 169 51.5t128 130.5zM508 1349q0 -67 -48 -117.5t-112 -50.5q-65 0 -112 50t-47 118q0 67 46.5 117.5t112.5 50.5q64 0 112 -50.5t48 -117.5zM1003 1349 q0 -67 -47.5 -117.5t-111.5 -50.5q-65 0 -112.5 50t-47.5 118q0 67 47 117.5t113 50.5q64 0 111.5 -50.5t47.5 -117.5z"/>
<glyph glyph-name="igrave" horiz-adv-x="724" unicode="ì" d="M690 0h-632v73q26 2 51 5t43 10q32 12 45 34.5t13 59.5v582q0 35 -16 61.5t-40 42.5q-18 12 -54.5 23t-66.5 14v73l490 26l15 -15v-794q0 -35 15 -59.5t43 -36.5q20 -9 44 -16t50 -10v-73zM581 1139l-42 -38q-166 100 -250.5 144.5t-144.5 85.5q-47 32 -66.5 56.5 t-19.5 72.5q0 36 38.5 62t86.5 26q61 0 97 -18.5t82 -85.5q33 -48 89.5 -127.5t129.5 -177.5z"/>
<glyph glyph-name="iacute" horiz-adv-x="724" unicode="í" d="M690 0h-632v73q26 2 51 5t43 10q32 12 45 34.5t13 59.5v582q0 35 -16 61.5t-40 42.5q-18 12 -54.5 23t-66.5 14v73l490 26l15 -15v-794q0 -35 15 -59.5t43 -36.5q20 -9 44 -16t50 -10v-73zM633 1460q0 -45 -20.5 -72.5t-65.5 -56.5q-49 -32 -155 -90.5t-240 -139.5 l-42 38q88 117 136 186.5t83 118.5q43 61 82 82.5t97 21.5q48 0 86.5 -26t38.5 -62z"/>
<glyph glyph-name="icircumflex" horiz-adv-x="724" unicode="î" d="M683 1132l-54 -29l-300 254l-296 -254l-51 29q86 151 126 219t85 136q22 33 53 47t87 14q57 0 85 -14t48 -43q47 -65 94.5 -147.5t122.5 -211.5zM690 0h-632v73q26 2 51 5t43 10q32 12 45 34.5t13 59.5v582q0 35 -16 61.5t-40 42.5q-18 12 -54.5 23t-66.5 14v73l490 26 l15 -15v-794q0 -35 15 -59.5t43 -36.5q20 -9 44 -16t50 -10v-73z"/>
<glyph glyph-name="idieresis" horiz-adv-x="724" unicode="ï" d="M260 1349q0 -67 -48 -117.5t-112 -50.5q-65 0 -112 50t-47 118q0 67 46.5 117.5t112.5 50.5q64 0 112 -50.5t48 -117.5zM719 1349q0 -67 -47.5 -117.5t-111.5 -50.5q-65 0 -112.5 50t-47.5 118q0 67 47 117.5t113 50.5q64 0 111.5 -50.5t47.5 -117.5zM690 0h-632v73 q26 2 51 5t43 10q32 12 45 34.5t13 59.5v582q0 35 -16 61.5t-40 42.5q-18 12 -54.5 23t-66.5 14v73l490 26l15 -15v-794q0 -35 15 -59.5t43 -36.5q20 -9 44 -16t50 -10v-73z"/>
<glyph glyph-name="eth" horiz-adv-x="1306" unicode="ð" d="M820 180q25 61 36.5 142.5t11.5 179.5q0 86 -10 165.5t-34 133.5q-25 58 -65 89t-105 31q-69 0 -110.5 -34t-66.5 -93q-24 -56 -32.5 -132.5t-8.5 -155.5q0 -101 10 -179t36 -144q26 -64 68 -99t104 -35q57 0 99 34t67 97zM1124 1082q54 -99 80.5 -209.5t26.5 -242.5 q0 -315 -157 -488.5t-430 -173.5q-255 0 -414 145.5t-159 386.5q0 228 142.5 373.5t372.5 145.5q96 0 164.5 -29t116.5 -86l10 2q-13 95 -47 187.5t-94 170.5l-212 -134l-60 83l205 129q-35 35 -80.5 69.5t-88.5 62.5l48 74q46 -19 103.5 -44.5t143.5 -79.5l196 124l60 -83 l-167 -105q61 -47 128.5 -122t111.5 -156z"/>
<glyph glyph-name="ntilde" horiz-adv-x="1413" unicode="ñ" d="M1378 0h-602v73q19 2 46 5t41 10q21 11 30 32t9 62v468q0 102 -37.5 153.5t-110.5 51.5q-40 0 -74.5 -12t-67.5 -35q-29 -20 -46.5 -41t-29.5 -37v-537q0 -35 10 -58.5t33 -35.5q16 -9 40 -16t47 -10v-73h-608v73q25 2 50.5 5.5t43.5 9.5q32 11 44 34t12 60v582 q0 31 -16 61t-42 49q-18 12 -45.5 20t-60.5 11v73l477 26l15 -15v-145h4q28 25 68 60t74 57q37 24 97 41t128 17q163 0 244.5 -92.5t81.5 -245.5v-490q0 -37 11 -59t41 -35q16 -7 39.5 -14t53.5 -10v-73zM1151 1479q-12 -43 -39.5 -96.5t-66.5 -97.5q-44 -49 -90 -78 t-107 -29q-72 0 -125.5 17.5t-92.5 37.5q-34 18 -75.5 37t-78.5 19q-45 0 -75.5 -34t-71.5 -114l-72 30q14 40 40 90t65 99q34 43 86 76t104 33q66 0 118 -16.5t96 -38.5q46 -23 75.5 -38.5t72.5 -15.5q80 0 109.5 40t50.5 103z"/>
<glyph glyph-name="ograve" horiz-adv-x="1302" unicode="ò" d="M823 181q22 56 32.5 136t10.5 186q0 70 -10 160t-30 142q-24 63 -66.5 99t-107.5 36q-71 0 -113.5 -39t-65.5 -101q-21 -57 -29 -133.5t-8 -159.5q0 -109 7 -180.5t34 -143.5q23 -62 66 -98t109 -36q60 0 103 33.5t68 98.5zM1079 874q74 -69 113 -165t39 -208 q0 -111 -38.5 -209.5t-112.5 -168.5q-79 -75 -188.5 -115t-250.5 -40q-122 0 -224.5 35t-181.5 105q-76 67 -120 165.5t-44 220.5q0 120 38.5 213.5t115.5 166.5q74 70 182.5 108.5t242.5 38.5q140 0 246.5 -38.5t182.5 -108.5zM880 1139l-42 -38q-166 100 -250.5 144.5 t-144.5 85.5q-47 32 -66.5 56.5t-19.5 72.5q0 36 38.5 62t86.5 26q61 0 97 -18.5t82 -85.5q33 -48 89.5 -127.5t129.5 -177.5z"/>
<glyph glyph-name="oacute" horiz-adv-x="1302" unicode="ó" d="M823 181q22 56 32.5 136t10.5 186q0 70 -10 160t-30 142q-24 63 -66.5 99t-107.5 36q-71 0 -113.5 -39t-65.5 -101q-21 -57 -29 -133.5t-8 -159.5q0 -109 7 -180.5t34 -143.5q23 -62 66 -98t109 -36q60 0 103 33.5t68 98.5zM1079 874q74 -69 113 -165t39 -208 q0 -111 -38.5 -209.5t-112.5 -168.5q-79 -75 -188.5 -115t-250.5 -40q-122 0 -224.5 35t-181.5 105q-76 67 -120 165.5t-44 220.5q0 120 38.5 213.5t115.5 166.5q74 70 182.5 108.5t242.5 38.5q140 0 246.5 -38.5t182.5 -108.5zM943 1460q0 -45 -20.5 -72.5t-65.5 -56.5 q-49 -32 -155 -90.5t-240 -139.5l-42 38q88 117 136 186.5t83 118.5q43 61 82 82.5t97 21.5q48 0 86.5 -26t38.5 -62z"/>
<glyph glyph-name="ocircumflex" horiz-adv-x="1302" unicode="ô" d="M823 181q22 56 32.5 136t10.5 186q0 70 -10 160t-30 142q-24 63 -66.5 99t-107.5 36q-71 0 -113.5 -39t-65.5 -101q-21 -57 -29 -133.5t-8 -159.5q0 -109 7 -180.5t34 -143.5q23 -62 66 -98t109 -36q60 0 103 33.5t68 98.5zM1079 874q74 -69 113 -165t39 -208 q0 -111 -38.5 -209.5t-112.5 -168.5q-79 -75 -188.5 -115t-250.5 -40q-122 0 -224.5 35t-181.5 105q-76 67 -120 165.5t-44 220.5q0 120 38.5 213.5t115.5 166.5q74 70 182.5 108.5t242.5 38.5q140 0 246.5 -38.5t182.5 -108.5zM1022 1132l-54 -29l-320 254l-316 -254 l-51 29q100 161 139 224t92 131q23 31 54.5 46t85.5 15q55 0 82 -14t51 -43q47 -57 100.5 -141t136.5 -218z"/>
<glyph glyph-name="otilde" horiz-adv-x="1302" unicode="õ" d="M823 181q22 56 32.5 136t10.5 186q0 70 -10 160t-30 142q-24 63 -66.5 99t-107.5 36q-71 0 -113.5 -39t-65.5 -101q-21 -57 -29 -133.5t-8 -159.5q0 -109 7 -180.5t34 -143.5q23 -62 66 -98t109 -36q60 0 103 33.5t68 98.5zM1079 874q74 -69 113 -165t39 -208 q0 -111 -38.5 -209.5t-112.5 -168.5q-79 -75 -188.5 -115t-250.5 -40q-122 0 -224.5 35t-181.5 105q-76 67 -120 165.5t-44 220.5q0 120 38.5 213.5t115.5 166.5q74 70 182.5 108.5t242.5 38.5q140 0 246.5 -38.5t182.5 -108.5zM1098 1479q-12 -43 -39.5 -96.5t-66.5 -97.5 q-44 -49 -90 -78t-107 -29q-72 0 -125.5 17.5t-92.5 37.5q-34 18 -75.5 37t-78.5 19q-45 0 -75.5 -34t-71.5 -114l-72 30q14 40 40 90t65 99q34 43 86 76t104 33q66 0 118 -16.5t96 -38.5q46 -23 75.5 -38.5t72.5 -15.5q80 0 109.5 40t50.5 103z"/>
<glyph glyph-name="odieresis" horiz-adv-x="1302" unicode="ö" d="M823 181q22 56 32.5 136t10.5 186q0 70 -10 160t-30 142q-24 63 -66.5 99t-107.5 36q-71 0 -113.5 -39t-65.5 -101q-21 -57 -29 -133.5t-8 -159.5q0 -109 7 -180.5t34 -143.5q23 -62 66 -98t109 -36q60 0 103 33.5t68 98.5zM1079 874q74 -69 113 -165t39 -208 q0 -111 -38.5 -209.5t-112.5 -168.5q-79 -75 -188.5 -115t-250.5 -40q-122 0 -224.5 35t-181.5 105q-76 67 -120 165.5t-44 220.5q0 120 38.5 213.5t115.5 166.5q74 70 182.5 108.5t242.5 38.5q140 0 246.5 -38.5t182.5 -108.5zM563 1349q0 -67 -48 -117.5t-112 -50.5 q-65 0 -112 50t-47 118q0 67 46.5 117.5t112.5 50.5q64 0 112 -50.5t48 -117.5zM1058 1349q0 -67 -47.5 -117.5t-111.5 -50.5q-65 0 -112.5 50t-47.5 118q0 67 47 117.5t113 50.5q64 0 111.5 -50.5t47.5 -117.5z"/>
<glyph glyph-name="divide" d="M882 166q0 -69 -48 -117.5t-114 -48.5q-67 0 -115 48.5t-48 117.5t48 118t115 49q66 0 114 -49t48 -118zM1275 493h-1111v163h1111v-163zM882 982q0 -69 -48 -117.5t-114 -48.5q-67 0 -115 48.5t-48 117.5t48 118t115 49q66 0 114 -49t48 -118z" unicode="÷"/>
<glyph glyph-name="oslash" horiz-adv-x="1302" unicode="ø" d="M828 176q27 67 37 144.5t10 182.5q0 32 -1 81t-5 79l-417 -432q24 -86 70 -136.5t130 -50.5q62 0 106.5 34.5t69.5 97.5zM849 762q-25 93 -74 138t-123 45q-71 0 -115.5 -39t-69.5 -102q-24 -62 -32 -142t-8 -155q0 -53 1.5 -90.5t4.5 -84.5zM1259 1041l-179 -176 q72 -69 111.5 -161t39.5 -203t-38.5 -209.5t-112.5 -168.5q-79 -75 -188.5 -115t-250.5 -40q-99 0 -189.5 26.5t-164.5 77.5l-186 -189l-66 61l185 184q-68 67 -108.5 160.5t-40.5 205.5q0 235 155 381t424 146q112 0 203 -27t160 -73l180 181z"/>
<glyph glyph-name="ugrave" horiz-adv-x="1386" unicode="ù" d="M1363 21l-477 -29l-15 14v131h-6q-34 -31 -66.5 -60.5t-77.5 -53.5q-51 -27 -96.5 -40t-132.5 -13q-151 0 -231.5 91t-80.5 257v450q0 39 -15 63.5t-40 43.5q-20 15 -52 21.5t-58 8.5v73l485 26l11 -15v-665q0 -103 39.5 -152t108.5 -49q71 0 127.5 37t82.5 79v539 q0 34 -13 61t-38 44q-18 12 -51.5 16t-68.5 6v73l485 26l15 -15v-772q0 -35 14 -59.5t41 -41.5q19 -12 49.5 -16.5t60.5 -5.5v-73zM906 1139l-42 -38q-166 100 -250.5 144.5t-144.5 85.5q-47 32 -66.5 56.5t-19.5 72.5q0 36 38.5 62t86.5 26q61 0 97 -18.5t82 -85.5 q33 -48 89.5 -127.5t129.5 -177.5z"/>
<glyph glyph-name="uacute" horiz-adv-x="1386" unicode="ú" d="M1363 21l-477 -29l-15 14v131h-6q-34 -31 -66.5 -60.5t-77.5 -53.5q-51 -27 -96.5 -40t-132.5 -13q-151 0 -231.5 91t-80.5 257v450q0 39 -15 63.5t-40 43.5q-20 15 -52 21.5t-58 8.5v73l485 26l11 -15v-665q0 -103 39.5 -152t108.5 -49q71 0 127.5 37t82.5 79v539 q0 34 -13 61t-38 44q-18 12 -51.5 16t-68.5 6v73l485 26l15 -15v-772q0 -35 14 -59.5t41 -41.5q19 -12 49.5 -16.5t60.5 -5.5v-73zM974 1460q0 -45 -20.5 -72.5t-65.5 -56.5q-49 -32 -155 -90.5t-240 -139.5l-42 38q88 117 136 186.5t83 118.5q43 61 82 82.5t97 21.5 q48 0 86.5 -26t38.5 -62z"/>
<glyph glyph-name="ucircumflex" horiz-adv-x="1386" unicode="û" d="M1363 21l-477 -29l-15 14v131h-6q-34 -31 -66.5 -60.5t-77.5 -53.5q-51 -27 -96.5 -40t-132.5 -13q-151 0 -231.5 91t-80.5 257v450q0 39 -15 63.5t-40 43.5q-20 15 -52 21.5t-58 8.5v73l485 26l11 -15v-665q0 -103 39.5 -152t108.5 -49q71 0 127.5 37t82.5 79v539 q0 34 -13 61t-38 44q-18 12 -51.5 16t-68.5 6v73l485 26l15 -15v-772q0 -35 14 -59.5t41 -41.5q19 -12 49.5 -16.5t60.5 -5.5v-73zM1048 1132l-54 -29l-320 254l-316 -254l-51 29q100 161 139 224t92 131q23 31 54.5 46t85.5 15q55 0 82 -14t51 -43q47 -57 100.5 -141 t136.5 -218z"/>
<glyph glyph-name="udieresis" horiz-adv-x="1386" unicode="ü" d="M1363 21l-477 -29l-15 14v131h-6q-34 -31 -66.5 -60.5t-77.5 -53.5q-51 -27 -96.5 -40t-132.5 -13q-151 0 -231.5 91t-80.5 257v450q0 39 -15 63.5t-40 43.5q-20 15 -52 21.5t-58 8.5v73l485 26l11 -15v-665q0 -103 39.5 -152t108.5 -49q71 0 127.5 37t82.5 79v539 q0 34 -13 61t-38 44q-18 12 -51.5 16t-68.5 6v73l485 26l15 -15v-772q0 -35 14 -59.5t41 -41.5q19 -12 49.5 -16.5t60.5 -5.5v-73zM589 1349q0 -67 -48 -117.5t-112 -50.5q-65 0 -112 50t-47 118q0 67 46.5 117.5t112.5 50.5q64 0 112 -50.5t48 -117.5zM1084 1349 q0 -67 -47.5 -117.5t-111.5 -50.5q-65 0 -112.5 50t-47.5 118q0 67 47 117.5t113 50.5q64 0 111.5 -50.5t47.5 -117.5z"/>
<glyph glyph-name="yacute" horiz-adv-x="1151" unicode="ý" d="M1188 919q-45 -7 -87.5 -34t-70.5 -84q-86 -182 -177 -387.5t-202 -444.5q-62 -134 -120 -214t-109 -123q-48 -40 -95 -58t-95 -18q-95 0 -153.5 53t-58.5 119q0 28 6.5 52t27.5 50q16 22 49.5 37.5t75.5 15.5q56 0 107 -39t106 -108q33 33 81.5 98.5t71.5 134.5 q-119 250 -211 433.5t-206 409.5q-25 48 -67 74.5t-89 32.5v73h612v-73q-34 -1 -78.5 -15t-44.5 -36q0 -8 3 -17.5t11 -27.5q34 -70 96.5 -194.5t145.5 -291.5q62 142 105.5 244.5t84.5 201.5q10 25 11.5 39.5t1.5 19.5q0 18 -17.5 31.5t-41.5 23.5q-25 10 -48 15t-38 7v73 h413v-73zM924 1460q0 -45 -20.5 -72.5t-65.5 -56.5q-49 -32 -155 -90.5t-240 -139.5l-42 38q88 117 136 186.5t83 118.5q43 61 82 82.5t97 21.5q48 0 86.5 -26t38.5 -62z"/>
<glyph glyph-name="thorn" horiz-adv-x="1321" unicode="þ" d="M891 483q0 75 -11 143.5t-39 122.5t-72 86t-108 32q-65 0 -104 -22.5t-68 -58.5v-567q6 -20 23 -51.5t34 -50.5q25 -27 57 -40t70 -13q99 0 158.5 106.5t59.5 312.5zM1250 487q0 -211 -141 -362t-357 -151q-96 0 -156 19.5t-99 47.5h-8v-281q0 -35 15.5 -61t43.5 -38 q27 -12 76.5 -20.5t82.5 -10.5v-74h-722v74q25 2 64 7.5t56 11.5q32 11 43.5 37.5t11.5 60.5v1550q0 38 -15.5 70.5t-41.5 49.5q-19 12 -55.5 21t-67.5 11v73l494 26l15 -13v-655l8 -2q66 67 146.5 104t159.5 37q207 0 327 -146.5t120 -385.5z"/>
<glyph glyph-name="dotlessi" horiz-adv-x="724" unicode="ı" d="M690 0h-632v73q26 2 51 5t43 10q32 12 45 34.5t13 59.5v582q0 35 -16 61.5t-40 42.5q-18 12 -54.5 23t-66.5 14v73l490 26l15 -15v-794q0 -35 15 -59.5t43 -36.5q20 -9 44 -16t50 -10v-73z"/>
<glyph glyph-name="circumflex" horiz-adv-x="1024" unicode="ˆ" d="M883 1132l-54 -29l-320 254l-316 -254l-51 29q100 161 139 224t92 131q23 31 54.5 46t85.5 15q55 0 82 -14t51 -43q47 -57 100.5 -141t136.5 -218z"/>
<glyph glyph-name="ring" horiz-adv-x="1024" unicode="˚" d="M644 1335q0 71 -33.5 116.5t-98.5 45.5q-63 0 -97.5 -43.5t-34.5 -118.5q0 -72 34 -116.5t98 -44.5t98 43.5t34 117.5zM791 1336q0 -104 -77 -168t-202 -64q-128 0 -203.5 61.5t-75.5 170.5q0 106 80.5 168.5t198.5 62.5q120 0 199.5 -62t79.5 -169z"/>
<glyph glyph-name="tilde" horiz-adv-x="1024" unicode="˜" d="M959 1479q-12 -43 -39.5 -96.5t-66.5 -97.5q-44 -49 -90 -78t-107 -29q-72 0 -125.5 17.5t-92.5 37.5q-34 18 -75.5 37t-78.5 19q-45 0 -75.5 -34t-71.5 -114l-72 30q14 40 40 90t65 99q34 43 86 76t104 33q66 0 118 -16.5t96 -38.5q46 -23 75.5 -38.5t72.5 -15.5 q80 0 109.5 40t50.5 103z"/>
<glyph glyph-name="afii10023" horiz-adv-x="1477" unicode="Ё" d="M1327 1057h-76q-29 81 -100 164t-141 98q-30 7 -83.5 8.5t-88.5 1.5h-206v-548h146q55 0 100 13t82 50q23 23 46.5 81t30.5 101h76v-592h-76q-6 42 -30.5 105.5t-46.5 87.5q-33 36 -78 49.5t-104 13.5h-146v-409q0 -64 9.5 -101.5t35.5 -57.5q25 -19 68.5 -25t118.5 -6 q35 0 84 1t86 6q42 5 78.5 15t54.5 29q48 49 108 149.5t79 150.5h73l-27 -442h-1331v78q28 2 76 8t68 14q38 16 51 40.5t13 62.5v1001q0 36 -11 59.5t-53 42.5q-26 12 -73 22t-71 13v78h1258v-362zM671 1700q0 -67 -48 -117.5t-112 -50.5q-65 0 -112 50t-47 118 q0 67 46.5 117.5t112.5 50.5q64 0 112 -50.5t48 -117.5zM1207 1700q0 -67 -47.5 -117.5t-111.5 -50.5q-65 0 -112.5 50t-47.5 118q0 67 47 117.5t113 50.5q64 0 111.5 -50.5t47.5 -117.5z"/>
<glyph glyph-name="afii10051" horiz-adv-x="1810" unicode="Ђ" d="M1770 453q0 -82 -33 -169.5t-94 -155.5q-65 -71 -153.5 -114t-211.5 -43q-157 0 -230.5 45t-73.5 114q0 55 30.5 96.5t82.5 41.5t86 -21t55 -53t35.5 -72t25.5 -76h21q39 54 62.5 139t23.5 220q0 169 -71 253t-213 84q-75 0 -128 -17t-120 -50v-675h-573v78 q29 3 81.5 8.5t71.5 13.5q39 16 52 43t13 64v1123h-32q-37 0 -76.5 -2.5t-84.5 -7.5q-61 -8 -129 -116.5t-97 -190.5h-77v406h1361v-396h-77q-27 78 -95 183t-131 114q-32 4 -79 7t-81 3h-47v-564q86 47 200 83.5t220 36.5q228 0 357 -117t129 -316z"/>
<glyph glyph-name="afii10052" horiz-adv-x="1347" unicode="Ѓ" d="M1334 994h-79q-11 34 -39 90.5t-60 102.5q-37 54 -73 89t-75 42q-36 6 -80 8.5t-93 2.5h-203v-1120q0 -37 16 -62.5t50 -39.5q21 -8 66 -15.5t93 -13.5v-78h-788v78q29 3 77 8.5t67 13.5q36 14 50 39t14 64v1001q0 34 -12.5 59.5t-51.5 42.5q-28 12 -74 22t-70 13v78 h1265v-425zM1081 1768q0 -42 -26 -69t-75 -47q-56 -23 -168 -64t-260 -103l-33 41q102 97 155 151t110 115q38 40 73 58t74 18q65 0 107.5 -27.5t42.5 -72.5z"/>
<glyph glyph-name="afii10053" horiz-adv-x="1502" unicode="Є" d="M1447 297q0 -68 -46 -129.5t-129 -106.5q-88 -48 -195 -73.5t-256 -25.5q-169 0 -306.5 50.5t-236.5 147.5q-98 95 -152 231.5t-54 306.5q0 173 60.5 312.5t163.5 239.5q104 99 244 153t298 54q118 0 208.5 -23.5t175.5 -69.5l62 55h87l9 -506h-88q-22 69 -55.5 147 t-85.5 145t-124.5 111t-170.5 44q-87 0 -154.5 -34.5t-127.5 -119.5q-56 -81 -88 -202.5t-34 -295.5q37 34 63 59t59 51q28 22 62.5 37.5t66.5 15.5q51 0 86.5 -13t70.5 -30t72.5 -29.5t89.5 -12.5q67 0 94.5 11t52.5 31l41 -52q-28 -34 -60.5 -69.5t-70.5 -63.5 q-42 -31 -77 -47t-86 -16t-90 13.5t-69 27.5q-28 14 -68.5 28t-80.5 14q-60 0 -88.5 -9t-64.5 -24q4 -262 129 -417.5t319 -155.5q85 0 144.5 23t90.5 43q-13 35 -31.5 89.5t-18.5 103.5q0 76 51 121t137 45q82 0 126.5 -50.5t44.5 -134.5z"/>
<glyph glyph-name="afii10054" horiz-adv-x="1329" unicode="Ѕ" d="M664 -38q-130 0 -242.5 32t-190.5 76l-69 -70h-85l-13 513h86q29 -73 74 -154t104 -145q61 -67 136.5 -109t176.5 -42q136 0 208.5 66.5t72.5 167.5q0 83 -61.5 139.5t-190.5 97.5q-84 27 -154.5 50t-132.5 47q-143 57 -212.5 163t-69.5 237q0 83 36 159.5t105 137.5 q66 57 169 93t224 36q118 0 221 -32.5t162 -65.5l61 60h87l8 -484h-86q-30 78 -70.5 159.5t-85.5 135.5q-49 58 -113 92.5t-150 34.5q-108 0 -176.5 -61t-68.5 -151q0 -85 59.5 -139t185.5 -95q74 -25 151 -50t137 -48q145 -56 220.5 -154.5t75.5 -244.5q0 -92 -43 -178 t-116 -143q-80 -63 -185 -97t-245 -34z"/>
<glyph glyph-name="afii10055" horiz-adv-x="913" unicode="І" d="M850 0h-787v78q27 2 79.5 6t72.5 12q37 15 50.5 39.5t13.5 62.5v1006q0 34 -13 60t-51 42q-24 10 -71 20.5t-81 14.5v78h787v-78q-30 -3 -75 -8.5t-76 -15.5q-39 -13 -52 -40.5t-13 -62.5v-1005q0 -36 13.5 -61.5t51.5 -41.5q21 -9 69.5 -17.5t81.5 -10.5v-78z"/>
<glyph glyph-name="afii10056" horiz-adv-x="913" unicode="Ї" d="M850 0h-787v78q27 2 79.5 6t72.5 12q37 15 50.5 39.5t13.5 62.5v1006q0 34 -13 60t-51 42q-24 10 -71 20.5t-81 14.5v78h787v-78q-30 -3 -75 -8.5t-76 -15.5q-39 -13 -52 -40.5t-13 -62.5v-1005q0 -36 13.5 -61.5t51.5 -41.5q21 -9 69.5 -17.5t81.5 -10.5v-78zM368 1700 q0 -67 -48 -117.5t-112 -50.5q-65 0 -112 50t-47 118q0 67 46.5 117.5t112.5 50.5q64 0 112 -50.5t48 -117.5zM863 1700q0 -67 -47.5 -117.5t-111.5 -50.5q-65 0 -112.5 50t-47.5 118q0 67 47 117.5t113 50.5q64 0 111.5 -50.5t47.5 -117.5z"/>
<glyph glyph-name="afii10057" horiz-adv-x="1219" unicode="Ј" d="M1166 1341q-40 -5 -68 -10t-63 -14q-41 -11 -52.5 -39t-11.5 -64v-782q0 -108 -43.5 -198t-119.5 -151q-77 -60 -172 -90.5t-203 -30.5q-187 0 -301.5 90t-114.5 247q0 93 52.5 154t144.5 61q87 0 138.5 -51t51.5 -126q0 -64 -44.5 -118.5t-101.5 -100.5v-13 q9 -20 39 -34t61 -14q120 0 188.5 86t68.5 260v801q0 36 -11 60t-53 42q-30 13 -72.5 22t-70.5 13v78h758v-78z"/>
<glyph glyph-name="afii10058" horiz-adv-x="2302" unicode="Љ" d="M2262 425q0 -106 -46.5 -188t-126.5 -136q-78 -51 -171.5 -76t-194.5 -25h-853v78q29 3 77 8.5t67 13.5q36 14 50 39t14 64v1119h-339q-13 -359 -72 -617t-141 -418q-88 -172 -183 -245t-181 -73q-67 0 -109 18.5t-65 46.5t-31.5 63.5t-8.5 64.5q0 96 59 146.5t137 50.5 q54 0 105.5 -36t101.5 -94q37 59 80 157.5t77 212.5q38 128 60 254.5t22 280.5q0 66 -11.5 109t-52.5 63q-26 13 -83 22.5t-73 12.5v78h1281v-78q-31 -2 -77 -8.5t-77 -16.5q-38 -13 -51 -41t-13 -61v-391q46 1 102 3.5t108 2.5q133 0 242 -21t195 -70q84 -47 133 -124.5 t49 -188.5zM1867 411q0 154 -87.5 235.5t-251.5 81.5q-19 0 -49.5 -1.5t-45.5 -2.5v-544q9 -39 55.5 -63.5t112.5 -24.5q119 0 192.5 84.5t73.5 234.5z"/>
<glyph glyph-name="afii10059" horiz-adv-x="2452" unicode="Њ" d="M2410 425q0 -106 -46.5 -188t-126.5 -136q-78 -51 -171.5 -76t-194.5 -25h-843v78q25 2 71 6t64 12q37 15 51 39.5t14 62.5v502h-596v-491q0 -34 14.5 -61t49.5 -42q19 -8 62.5 -17t73.5 -11v-78h-763v78q25 1 73.5 6.5t70.5 13.5q36 13 50 39.5t14 62.5v1004 q0 35 -12.5 59t-51.5 42q-29 13 -76 23.5t-68 12.5v78h763v-78q-31 -2 -72 -10t-64 -15q-39 -13 -51.5 -41.5t-12.5 -60.5v-411h596v401q0 35 -13 59t-52 42q-26 12 -67.5 22.5t-67.5 13.5v78h771v-78q-31 -2 -77 -8.5t-77 -16.5q-38 -13 -51 -41t-13 -61v-391q46 1 102 3.5 t108 2.5q133 0 242 -21t195 -70q84 -47 133 -124.5t49 -188.5zM2015 411q0 154 -87.5 235.5t-251.5 81.5q-19 0 -49.5 -1.5t-45.5 -2.5v-544q9 -39 55.5 -63.5t112.5 -24.5q119 0 192.5 84.5t73.5 234.5z"/>
<glyph glyph-name="afii10060" horiz-adv-x="1916" unicode="Ћ" d="M1919 0h-746v78q24 2 64.5 9t63.5 16q37 14 49.5 39.5t12.5 62.5v220q0 159 -51 230t-181 71q-80 0 -143.5 -16t-123.5 -42v-453q0 -36 12.5 -63t50.5 -43q20 -8 60.5 -17.5t74.5 -13.5v-78h-771v78q29 3 81.5 8.5t71.5 13.5q39 16 52 43t13 64v1123h-32 q-37 0 -76.5 -2.5t-84.5 -7.5q-55 -7 -123 -107.5t-103 -199.5h-77v406h1361v-396h-77q-29 84 -96.5 186t-129.5 111q-32 4 -79 7t-81 3h-47v-573q106 68 213 107.5t214 39.5q216 0 321.5 -96t105.5 -298v-296q0 -35 13 -59.5t51 -41.5q22 -10 64.5 -21t72.5 -14v-78z"/>
<glyph glyph-name="afii10061" horiz-adv-x="1637" unicode="Ќ" d="M1661 0h-544l-70 206t-74 191q-28 65 -55.5 110.5t-67.5 77.5q-38 32 -91.5 47.5t-126.5 15.5v-439q0 -34 14.5 -61t49.5 -42q19 -8 65 -17t75 -11v-78h-767v78q25 1 73.5 6.5t70.5 13.5q36 13 50 39.5t14 62.5v1004q0 35 -12.5 59t-51.5 42q-29 13 -76 23.5t-68 12.5v78 h767v-78q-31 -2 -74 -10t-66 -15q-39 -13 -51.5 -41.5t-12.5 -60.5v-472h65q40 0 83.5 11.5t78.5 46.5q72 71 108 143.5t62 148.5q30 84 54 142.5t95 127.5q35 35 86 55.5t112 20.5q100 0 158 -51t58 -130q0 -87 -49 -135.5t-125 -48.5q-48 0 -93.5 28t-108.5 108 q-30 -31 -52.5 -95.5t-41.5 -112.5q-39 -99 -76 -150.5t-85 -85.5v-18q140 -37 232 -122t149 -207q25 -53 51.5 -112.5t46.5 -101.5q31 -65 60.5 -86t48.5 -24q23 -5 56.5 -9.5t55.5 -6.5v-78zM1241 1768q0 -42 -26 -69t-75 -47q-56 -23 -168 -64t-260 -103l-33 41 q102 97 155 151t110 115q38 40 73 58t74 18q65 0 107.5 -27.5t42.5 -72.5z"/>
<glyph glyph-name="afii10062" horiz-adv-x="1490" unicode="Ў" d="M1231 1751q0 -31 -22.5 -76t-68.5 -78q-54 -39 -129.5 -62.5t-208.5 -23.5q-122 0 -204 24.5t-132 61.5q-48 36 -69 78t-21 76q0 51 35 84t90 33q60 0 99.5 -28.5t39.5 -79.5q0 -28 -15.5 -64.5t-24.5 -52.5q40 -29 93.5 -42.5t108.5 -13.5q53 0 107 12t98 44 q-10 19 -25 55.5t-15 61.5q0 50 41 79t97 29t91 -32t35 -85zM1548 1341q-25 -1 -66 -12t-69 -27q-36 -20 -60.5 -53.5t-49.5 -76.5q-89 -157 -218 -406.5t-194 -364.5q-84 -149 -151.5 -235t-129.5 -130q-53 -39 -104 -55t-120 -16q-113 0 -177 55t-64 130q0 71 47.5 121.5 t126.5 50.5q63 0 123 -42.5t132 -136.5q47 27 85 78t69 109q-132 220 -303.5 511.5t-219.5 364.5q-20 30 -39.5 53t-64.5 47q-35 17 -67.5 25t-62.5 10v78h786v-78q-110 -6 -151 -20t-41 -31q0 -11 9.5 -28t14.5 -26q47 -77 104 -177.5t230 -384.5q68 131 109.5 217.5 t85.5 178.5q41 86 56 129.5t15 62.5q0 31 -52.5 50.5t-143.5 28.5v78h555v-78z"/>
<glyph glyph-name="afii10145" horiz-adv-x="1846" unicode="Џ" d="M504 0h-435v78q25 1 73.5 6.5t70.5 13.5q36 13 50 39.5t14 62.5v1004q0 35 -12.5 59t-51.5 42q-29 13 -76 23.5t-68 12.5v78h763v-78q-31 -2 -72 -10t-64 -15q-39 -13 -51.5 -41.5t-12.5 -60.5v-1009q0 -50 27 -80.5t89 -30.5q42 0 84.5 -1.5t101.5 -1.5q55 0 99.5 1 t92.5 2t68 22.5t20 67.5v1020q0 35 -13 59t-52 42q-26 12 -67.5 22.5t-67.5 13.5v78h763v-78q-32 -2 -72 -8.5t-72 -16.5q-38 -13 -51 -41t-13 -61v-1005q0 -36 13 -61t51 -42q24 -10 69.5 -18t74.5 -10v-78h-435q-49 0 -89.5 -1.5t-82.5 -9.5q-38 -8 -71 -46t-58 -87 q-27 -52 -47 -112.5t-33 -117.5h-76q-14 61 -32.5 117.5t-47.5 112.5q-26 52 -58.5 88t-70.5 45q-30 7 -83.5 9t-88.5 2z"/>
<glyph glyph-name="afii10017" horiz-adv-x="1553" unicode="А" d="M864 574l-206 514l-203 -514h409zM1609 0h-773v78q54 4 127 19.5t73 38.5q0 8 -1.5 18t-8.5 27l-121 294h-490q-17 -41 -37.5 -96t-35.5 -98q-19 -56 -22.5 -81t-3.5 -35q0 -32 48.5 -54.5t161.5 -32.5v-78h-582v78q33 2 74.5 10.5t65.5 23.5q41 24 69.5 59t47.5 83 q116 281 232.5 563t257.5 622h200q196 -482 307 -762t189 -464q13 -30 33 -54.5t57 -46.5q28 -16 65 -24t67 -10v-78z"/>
<glyph glyph-name="afii10018" horiz-adv-x="1531" unicode="Б" d="M1461 425q0 -106 -46.5 -188t-126.5 -136q-78 -51 -171.5 -76t-194.5 -25h-853v78q29 3 77 8.5t67 13.5q36 14 50 39t14 64v1001q0 34 -12.5 59.5t-51.5 42.5q-28 12 -74 22t-70 13v78h1267v-406h-77q-45 116 -111.5 206t-118.5 98q-32 6 -74 9t-86 3h-237v-506 q46 1 102 3.5t108 2.5q133 0 242 -21t195 -70q84 -47 133 -124.5t49 -188.5zM1066 411q0 154 -87.5 235.5t-251.5 81.5q-19 0 -49.5 -1.5t-45.5 -2.5v-544q9 -39 55.5 -63.5t112.5 -24.5q119 0 192.5 84.5t73.5 234.5z"/>
<glyph glyph-name="afii10019" horiz-adv-x="1551" unicode="В" d="M1070 397q0 148 -88 227t-253 79q-19 0 -50.5 -1.5t-46.5 -2.5v-519q9 -37 56 -62.5t114 -25.5q119 0 193.5 80t74.5 225zM1000 1078q0 118 -66.5 184t-199.5 66q-19 0 -49.5 -1.5t-52.5 -2.5v-526h52q162 0 239 75.5t77 204.5zM1322 651q64 -44 104 -110.5t40 -156.5 q0 -108 -45.5 -182.5t-130.5 -117.5q-90 -46 -207.5 -65t-276.5 -19h-737v78q31 3 78 9t66 14q37 15 50.5 39.5t13.5 63.5v1000q0 36 -11 60t-53 42q-31 13 -72 21.5t-72 13.5v78h771q291 0 420 -80t129 -236q0 -72 -29 -126.5t-83 -94.5q-49 -37 -117 -64t-146 -45v-19 q78 -8 162 -34.5t146 -68.5z"/>
<glyph glyph-name="afii10020" horiz-adv-x="1347" unicode="Г" d="M1334 994h-79q-11 34 -39 90.5t-60 102.5q-37 54 -73 89t-75 42q-36 6 -80 8.5t-93 2.5h-203v-1120q0 -37 16 -62.5t50 -39.5q21 -8 66 -15.5t93 -13.5v-78h-788v78q29 3 77 8.5t67 13.5q36 14 50 39t14 64v1001q0 34 -12.5 59.5t-51.5 42.5q-28 12 -74 22t-70 13v78 h1265v-425z"/>
<glyph glyph-name="afii10021" horiz-adv-x="1640" unicode="Д" d="M525 4q-46 0 -88 -1.5t-84 -9.5q-79 -16 -165 -124.5t-119 -222.5h-75v455h141q136 202 246.5 519.5t110.5 542.5q0 59 -11.5 90.5t-48.5 52.5q-26 15 -80.5 23.5t-82.5 11.5v78h1302v-78q-32 -2 -72 -8.5t-72 -16.5q-38 -13 -51 -41t-13 -61v-1015q0 -53 33.5 -78.5 t96.5 -25.5h94v-449h-75q-32 112 -121 221.5t-163 125.5q-30 7 -83.5 9t-88.5 2h-531zM1008 192v1130h-366q-11 -305 -102.5 -636t-250.5 -585h635q41 0 62.5 22t21.5 69z"/>
<glyph glyph-name="afii10022" horiz-adv-x="1477" unicode="Е" d="M1327 1057h-76q-29 81 -100 164t-141 98q-30 7 -83.5 8.5t-88.5 1.5h-206v-548h146q55 0 100 13t82 50q23 23 46.5 81t30.5 101h76v-592h-76q-6 42 -30.5 105.5t-46.5 87.5q-33 36 -78 49.5t-104 13.5h-146v-409q0 -64 9.5 -101.5t35.5 -57.5q25 -19 68.5 -25t118.5 -6 q35 0 84 1t86 6q42 5 78.5 15t54.5 29q48 49 108 149.5t79 150.5h73l-27 -442h-1331v78q28 2 76 8t68 14q38 16 51 40.5t13 62.5v1001q0 36 -11 59.5t-53 42.5q-26 12 -73 22t-71 13v78h1258v-362z"/>
<glyph glyph-name="afii10024" horiz-adv-x="2313" unicode="Ж" d="M1331 209q0 -34 13.5 -61t48.5 -42q19 -8 63.5 -17t73.5 -11v-78h-751v78q25 1 72 6.5t69 13.5q36 13 49 39.5t13 62.5v448q-70 0 -119.5 -16t-86.5 -47q-36 -31 -63 -77t-56 -111q-45 -101 -77.5 -196t-68.5 -201h-535v78q22 3 55 6.5t57 9.5q34 7 60 33t51 77 q26 54 47 100t51 114q51 117 145.5 207.5t210.5 121.5v18q-55 42 -89 105.5t-57 127.5q-20 54 -42 119t-44 92q-58 -73 -105 -104.5t-97 -31.5q-76 0 -124.5 43.5t-48.5 130.5q0 84 61 137.5t154 53.5q66 0 114.5 -21t83.5 -55q59 -57 88 -127.5t52 -143.5q37 -115 76 -181 t84 -110q34 -33 73.5 -45.5t84.5 -12.5h65v462q0 35 -11.5 59t-50.5 42q-29 13 -74.5 23.5t-66.5 12.5v78h751v-78q-31 -2 -72.5 -10t-64.5 -15q-38 -12 -50 -41.5t-12 -60.5v-472h65q42 0 83.5 12.5t74.5 45.5q69 67 103.5 142t56.5 149q23 75 52 144t88 127q35 35 85 55.5 t113 20.5q101 0 158.5 -51.5t57.5 -129.5q0 -87 -49 -135.5t-125 -48.5q-48 0 -93.5 28t-108.5 108q-25 -30 -45.5 -94t-40.5 -117q-36 -95 -70.5 -148.5t-75.5 -84.5v-18q117 -30 211 -121.5t145 -207.5q29 -66 52 -116t46 -98q31 -65 61.5 -86t49.5 -24q23 -5 56.5 -9.5 t55.5 -6.5v-78h-540q-35 103 -68.5 206t-72.5 191q-25 59 -54 108.5t-62 79.5q-36 32 -86 47t-123 16v-439z"/>
<glyph glyph-name="afii10025" horiz-adv-x="1386" unicode="З" d="M1150 684q67 -41 107.5 -108t40.5 -161q0 -199 -195 -326.5t-497 -127.5q-259 0 -410 99t-151 251q0 67 51 120.5t125 53.5q87 0 137.5 -44.5t50.5 -119.5q0 -57 -19.5 -112.5t-30.5 -86.5q35 -25 78.5 -44.5t125.5 -19.5q159 0 250 93t91 256q0 51 -11 103.5t-42 90.5 q-30 38 -89.5 62.5t-147.5 24.5h-135v120h98q149 0 211.5 74t62.5 233q0 50 -13.5 95t-40.5 78q-28 33 -69.5 52.5t-97.5 19.5q-130 0 -232 -115t-164 -332h-88l9 506h90l59 -55q78 38 177 65.5t226 27.5q248 0 390 -91.5t142 -242.5q0 -49 -18.5 -103t-61.5 -98 q-43 -46 -116 -85t-187 -64v-13q72 -1 150.5 -18.5t143.5 -57.5z"/>
<glyph glyph-name="afii10026" horiz-adv-x="1887" unicode="И" d="M1818 0h-761v78q25 2 73 6.5t66 12.5q37 15 51 39.5t14 62.5v829l-638 -792q0 -69 13.5 -91t50.5 -39q21 -9 66 -17.5t74 -10.5v-78h-758v78q25 1 73.5 6.5t70.5 13.5q36 13 50 39.5t14 62.5v1004q0 35 -12.5 59t-51.5 42q-29 13 -76 23.5t-68 12.5v78h761v-78 q-31 -2 -74 -10t-66 -15q-39 -13 -51.5 -41.5t-12.5 -60.5v-812l638 792q0 52 -15 73.5t-50 37.5q-29 14 -70.5 23t-68.5 13v78h758v-78q-32 -2 -72 -8.5t-72 -16.5q-38 -13 -51 -41t-13 -61v-1005q0 -36 13 -61t51 -42q24 -10 69.5 -18t74.5 -10v-78z"/>
<glyph glyph-name="afii10027" horiz-adv-x="1887" unicode="Й" d="M1396 1751q0 -31 -22.5 -76t-68.5 -78q-54 -39 -129.5 -62.5t-208.5 -23.5q-122 0 -204 24.5t-132 61.5q-49 36 -69.5 78t-20.5 76q0 51 35 84t90 33q60 0 99.5 -28.5t39.5 -79.5q0 -28 -15.5 -64.5t-24.5 -52.5q40 -29 93.5 -42.5t108.5 -13.5q53 0 107 12t98 44 q-10 19 -25 55.5t-15 61.5q0 50 41 79t97 29t91 -32t35 -85zM1818 0h-761v78q25 2 73 6.5t66 12.5q37 15 51 39.5t14 62.5v829l-638 -792q0 -69 13.5 -91t50.5 -39q21 -9 66 -17.5t74 -10.5v-78h-758v78q25 1 73.5 6.5t70.5 13.5q36 13 50 39.5t14 62.5v1004q0 35 -12.5 59 t-51.5 42q-29 13 -76 23.5t-68 12.5v78h761v-78q-31 -2 -74 -10t-66 -15q-39 -13 -51.5 -41.5t-12.5 -60.5v-812l638 792q0 52 -15 73.5t-50 37.5q-29 14 -70.5 23t-68.5 13v78h758v-78q-32 -2 -72 -8.5t-72 -16.5q-38 -13 -51 -41t-13 -61v-1005q0 -36 13 -61t51 -42 q24 -10 69.5 -18t74.5 -10v-78z"/>
<glyph glyph-name="afii10028" horiz-adv-x="1637" unicode="К" d="M1661 0h-544l-70 206t-74 191q-28 65 -55.5 110.5t-67.5 77.5q-38 32 -91.5 47.5t-126.5 15.5v-439q0 -34 14.5 -61t49.5 -42q19 -8 65 -17t75 -11v-78h-767v78q25 1 73.5 6.5t70.5 13.5q36 13 50 39.5t14 62.5v1004q0 35 -12.5 59t-51.5 42q-29 13 -76 23.5t-68 12.5v78 h767v-78q-31 -2 -74 -10t-66 -15q-39 -13 -51.5 -41.5t-12.5 -60.5v-472h65q40 0 83.5 11.5t78.5 46.5q72 71 108 143.5t62 148.5q30 84 54 142.5t95 127.5q35 35 86 55.5t112 20.5q100 0 158 -51t58 -130q0 -87 -49 -135.5t-125 -48.5q-48 0 -93.5 28t-108.5 108 q-30 -31 -52.5 -95.5t-41.5 -112.5q-39 -99 -76 -150.5t-85 -85.5v-18q140 -37 232 -122t149 -207q25 -53 51.5 -112.5t46.5 -101.5q31 -65 60.5 -86t48.5 -24q23 -5 56.5 -9.5t55.5 -6.5v-78z"/>
<glyph glyph-name="afii10029" horiz-adv-x="1710" unicode="Л" d="M442 1328.5q-56 9.5 -72 12.5v78h1271v-78q-32 -2 -72 -8.5t-72 -16.5q-38 -13 -51 -41t-13 -61v-1005q0 -36 13 -61t51 -42q24 -10 69.5 -18t74.5 -10v-78h-772v78q27 2 75.5 6t68.5 12q37 15 51 39.5t14 62.5v1124h-339q-13 -359 -72 -617t-141 -418 q-88 -172 -183 -245t-181 -73q-67 0 -109 18.5t-65 46.5q-24 28 -32 63.5t-8 64.5q0 96 59 146.5t137 50.5q54 0 105.5 -36t101.5 -94q37 59 80.5 157.5t76.5 212.5q38 128 60 254.5t22 280.5q0 66 -11.5 109t-52.5 63q-28 13 -84 22.5z"/>
<glyph glyph-name="afii10030" horiz-adv-x="2096" unicode="М" d="M2019 0h-769v78q34 3 83.5 10t67.5 15q37 15 53 41t16 66v1060l-488 -1247h-126q-9 33 -44.5 131t-57.5 157l-359 975v-863q0 -124 16.5 -188.5t53.5 -94.5q25 -21 89.5 -40t90.5 -22v-78h-610v78q25 3 81.5 13.5t92.5 36.5q40 28 54 94.5t14 189.5v703q0 64 -16 106.5 t-48 67.5q-40 31 -82 40t-85 12v78h653l350 -937l295 761q15 42 29 100t15 76h629v-78q-32 -2 -67 -8t-67 -16q-39 -13 -51.5 -41t-12.5 -62v-1005q0 -36 12.5 -60.5t51.5 -42.5q20 -9 65.5 -17t70.5 -11v-78z"/>
<glyph glyph-name="afii10031" horiz-adv-x="1870" unicode="Н" d="M1801 0h-767v78q25 2 73 6t66 12q37 15 51 39.5t14 62.5v489h-606v-478q0 -34 14.5 -61t49.5 -42q19 -8 65 -17t75 -11v-78h-767v78q25 1 73.5 6.5t70.5 13.5q36 13 50 39.5t14 62.5v1004q0 35 -12.5 59t-51.5 42q-29 13 -76 23.5t-68 12.5v78h767v-78q-31 -2 -74 -10 t-66 -15q-39 -13 -51.5 -41.5t-12.5 -60.5v-424h606v414q0 35 -13 59t-52 42q-26 12 -69.5 22.5t-69.5 13.5v78h767v-78q-32 -2 -72 -8.5t-72 -16.5q-38 -13 -51 -41t-13 -61v-1005q0 -36 13 -61t51 -42q24 -10 69.5 -18t74.5 -10v-78z"/>
<glyph glyph-name="afii10032" horiz-adv-x="1679" unicode="О" d="M1123 246q45 91 65 206t20 260q0 123 -17.5 239.5t-59.5 207.5q-43 91 -114 146t-177 55q-181 0 -275 -171.5t-94 -484.5q0 -133 20.5 -251t64.5 -206q45 -89 114 -138.5t170 -49.5q99 0 170 50t113 137zM1380 1261q105 -96 166.5 -232t61.5 -310q0 -155 -52 -295 t-150 -241q-103 -105 -242 -163.5t-331 -58.5q-155 0 -293 51t-243 148q-104 95 -165 231t-61 303q0 174 59.5 315.5t163.5 242.5q103 99 244.5 152.5t301.5 53.5q159 0 298.5 -52t241.5 -145z"/>
<glyph glyph-name="afii10033" horiz-adv-x="1844" unicode="П" d="M1775 0h-761v78q25 2 70 6t63 12q37 15 51 39.5t14 62.5v1115h-580v-1104q0 -34 14.5 -61t49.5 -42q19 -8 62 -17t72 -11v-78h-761v78q25 1 73.5 6.5t70.5 13.5q36 13 50 39.5t14 62.5v1004q0 35 -12.5 59t-51.5 42q-29 13 -76 23.5t-68 12.5v78h1706v-78 q-32 -2 -72 -8.5t-72 -16.5q-38 -13 -51 -41t-13 -61v-1005q0 -36 13 -61t51 -42q24 -10 69.5 -18t74.5 -10v-78z"/>
<glyph glyph-name="afii10034" horiz-adv-x="1436" unicode="Р" d="M1009 1013q0 160 -64.5 237.5t-229.5 77.5h-83v-623h42q164 0 249.5 75.5t85.5 232.5zM1399 1064q0 -120 -49.5 -206.5t-136.5 -140.5q-90 -56 -205.5 -81t-259.5 -25h-116v-399q0 -36 13.5 -62.5t51.5 -42.5q20 -8 65 -17t76 -12v-78h-769v78q29 3 77 8.5t67 13.5 q39 16 51.5 39t12.5 64v1001q0 35 -12 60.5t-52 42.5q-28 12 -74.5 21.5t-69.5 12.5v78h783q275 0 411 -87.5t136 -267.5z"/>
<glyph glyph-name="afii10035" horiz-adv-x="1465" unicode="С" d="M813 -38q-156 0 -292 50.5t-237 146.5q-99 94 -156 232.5t-57 304.5q0 165 57.5 305.5t161.5 243.5q102 101 245 156.5t306 55.5q118 0 215 -28.5t164 -64.5l62 55h87l9 -518h-88q-75 237 -180 348t-256 111q-188 0 -286 -165.5t-98 -464.5q0 -169 33.5 -288.5 t87.5 -192.5q58 -76 137 -111.5t175 -35.5q140 0 249.5 76t199.5 230l86 -52q-43 -88 -98 -157.5t-127 -119.5q-79 -55 -174.5 -86t-225.5 -31z"/>
<glyph glyph-name="afii10036" horiz-adv-x="1401" unicode="Т" d="M1388 1013h-77q-31 91 -99.5 195t-126.5 112q-32 4 -79 7t-81 3h-47v-1113q0 -36 13 -63.5t51 -43.5q23 -9 71.5 -18.5t82.5 -13.5v-78h-791v78q29 3 81.5 8.5t71.5 13.5q39 16 52 43t13 64v1123h-47q-34 0 -81 -3t-79 -7q-58 -8 -126.5 -112t-99.5 -195h-77v406h1375 v-406z"/>
<glyph glyph-name="afii10037" horiz-adv-x="1490" unicode="У" d="M1548 1341q-25 -1 -66 -12t-69 -27q-36 -20 -60.5 -53.5t-49.5 -76.5q-89 -157 -218 -406.5t-194 -364.5q-84 -149 -151.5 -235t-129.5 -130q-53 -39 -104 -55t-120 -16q-113 0 -177 55t-64 130q0 71 47.5 121.5t126.5 50.5q63 0 123 -42.5t132 -136.5q47 27 85 78 t69 109q-132 220 -303.5 511.5t-219.5 364.5q-20 30 -39.5 53t-64.5 47q-35 17 -67.5 25t-62.5 10v78h786v-78q-110 -6 -151 -20t-41 -31q0 -11 9.5 -28t14.5 -26q47 -77 104 -177.5t230 -384.5q68 131 109.5 217.5t85.5 178.5q41 86 56 129.5t15 62.5q0 31 -52.5 50.5 t-143.5 28.5v78h555v-78z"/>
<glyph glyph-name="afii10038" horiz-adv-x="1867" unicode="Ф" d="M1609 342q-99 -71 -226.5 -106t-274.5 -35v-29q0 -35 11.5 -58t47.5 -37q18 -7 62.5 -12.5t82.5 -6.5v-78h-744v78q24 2 69.5 6.5t63.5 12.5q30 13 44 36t14 59v29q-153 0 -282 36t-223 105q-95 69 -147.5 169t-52.5 228q0 98 37.5 184t124.5 157q82 67 216 108t315 41 h12q0 46 -11.5 68t-46.5 37q-29 13 -67.5 21t-67.5 10v78h735v-78q-29 -1 -67 -5.5t-67 -14.5q-35 -12 -47 -35.5t-12 -80.5h11q184 0 315.5 -40.5t216.5 -108.5q83 -68 122.5 -156t39.5 -185q0 -126 -55 -228t-149 -169zM1375 459q34 67 45 138t11 118q0 64 -15.5 144 t-47.5 138q-35 64 -88.5 103t-139.5 39h-31v-846q93 0 161.5 44t104.5 122zM491 459q40 -80 106.5 -123t160.5 -43v846h-31q-85 0 -140 -41t-88 -101q-31 -55 -47 -132t-16 -150q0 -52 8 -115t47 -141z"/>
<glyph glyph-name="afii10039" horiz-adv-x="1656" unicode="Х" d="M1659 0h-865v78q124 7 160 21.5t36 38.5q0 13 -13 41.5t-36 65.5q-35 59 -93.5 147.5t-121.5 182.5q-210 -243 -266.5 -323t-56.5 -106q0 -14 4.5 -23.5t23.5 -18.5q14 -8 48 -15t81 -11v-78h-551v78q43 3 68.5 9t50.5 17q58 27 103 68.5t93 96.5q70 79 158 179t185 213 q-92 139 -184 270t-156 223q-32 46 -79.5 92t-99.5 66q-26 11 -58 18.5t-77 10.5v78h867v-78q-101 -4 -149.5 -18t-48.5 -42q0 -14 9.5 -35.5t37.5 -67.5q24 -40 74.5 -117t114.5 -175q189 225 237.5 293.5t48.5 93.5q0 29 -28 43.5t-131 24.5v78h553v-78q-38 -1 -62.5 -7 t-56.5 -19q-62 -28 -104 -69t-92 -96q-74 -82 -141.5 -159.5t-165.5 -189.5q121 -182 207 -305t163 -231q30 -46 77.5 -92.5t98.5 -66.5q24 -9 55 -17t82 -11v-78z"/>
<glyph glyph-name="afii10040" horiz-adv-x="1846" unicode="Ц" d="M1262 0h-1193v78q25 1 73.5 6.5t70.5 13.5q36 13 50 39.5t14 62.5v1004q0 35 -12.5 59t-51.5 42q-29 13 -76 23.5t-68 12.5v78h760v-78q-31 -2 -70.5 -10t-62.5 -15q-39 -13 -51.5 -41.5t-12.5 -60.5v-1005q0 -41 26 -76t95 -35q42 0 79.5 -1.5t96.5 -1.5q55 0 104.5 1 t97.5 2t65.5 22.5t17.5 67.5v1016q0 35 -13 59t-52 42q-26 12 -66 22.5t-66 13.5v78h760v-78q-32 -2 -72 -8.5t-72 -16.5q-38 -13 -51 -41t-13 -61v-1016q0 -53 33.5 -78.5t96.5 -25.5h94v-448h-75q-32 112 -121 219.5t-163 123.5q-30 7 -83.5 9t-88.5 2z"/>
<glyph glyph-name="afii10041" horiz-adv-x="1704" unicode="Ч" d="M1072 743v462q0 35 -12 59t-51 42q-23 11 -68.5 21.5t-67.5 13.5v78h762v-78q-32 -2 -72 -8.5t-72 -16.5q-38 -13 -51 -41t-13 -61v-1005q0 -36 13 -61t51 -42q24 -10 69.5 -18t74.5 -10v-78h-777v78q27 2 78 7.5t71 13.5q37 15 51 39.5t14 62.5v446q-46 -29 -97 -57.5 t-102 -47.5q-62 -24 -111.5 -35.5t-126.5 -11.5q-231 0 -334 98t-103 296v316q0 35 -12.5 59t-51.5 42q-26 12 -68.5 22t-68.5 13v78h756v-78q-32 -2 -73 -9.5t-65 -15.5q-38 -13 -50 -41t-12 -61v-230q0 -165 51 -238t181 -73q89 0 160 21.5t127 48.5z"/>
<glyph glyph-name="afii10042" horiz-adv-x="2639" unicode="Ш" d="M2570 0h-2501v78q25 1 73.5 6.5t70.5 13.5q36 13 50 39.5t14 62.5v1004q0 35 -12.5 59t-51.5 42q-29 13 -76 23.5t-68 12.5v78h746v-78q-30 -2 -67 -10t-59 -15q-36 -12 -48.5 -39t-12.5 -63v-1005q0 -41 26 -76t95 -35q42 0 67.5 -1.5t80.5 -1.5q48 0 81 1t83 2 q48 1 65.5 22.5t17.5 67.5v1016q0 35 -11.5 59t-50.5 42q-26 12 -62.5 22.5t-62.5 13.5v78h729v-78q-32 -2 -69 -9.5t-61 -15.5q-38 -13 -49.5 -41t-11.5 -61v-1005q0 -41 26 -76t95 -35q42 0 67.5 -1.5t80.5 -1.5q48 0 81 1t83 2q48 1 65.5 22.5t17.5 67.5v1016 q0 35 -11.5 59t-50.5 42q-26 12 -62.5 22.5t-62.5 13.5v78h746v-78q-32 -2 -72 -8.5t-72 -16.5q-38 -13 -51 -41t-13 -61v-1005q0 -36 13 -61t51 -42q24 -10 69.5 -18t74.5 -10v-78z"/>
<glyph glyph-name="afii10043" horiz-adv-x="2639" unicode="Щ" d="M2055 0h-1986v78q25 1 73.5 6.5t70.5 13.5q36 13 50 39.5t14 62.5v1004q0 35 -12.5 59t-51.5 42q-29 13 -76 23.5t-68 12.5v78h746v-78q-30 -2 -67 -10t-59 -15q-36 -12 -48.5 -39t-12.5 -63v-1005q0 -41 26 -76t95 -35q42 0 67.5 -1.5t80.5 -1.5q48 0 81 1t83 2 q48 1 65.5 22.5t17.5 67.5v1016q0 35 -11.5 59t-50.5 42q-26 12 -62.5 22.5t-62.5 13.5v78h729v-78q-32 -2 -69 -9.5t-61 -15.5q-38 -13 -49.5 -41t-11.5 -61v-1005q0 -41 26 -76t95 -35q42 0 67.5 -1.5t80.5 -1.5q48 0 81 1t83 2q48 1 65.5 22.5t17.5 67.5v1016 q0 35 -11.5 59t-50.5 42q-26 12 -62.5 22.5t-62.5 13.5v78h746v-78q-32 -2 -72 -8.5t-72 -16.5q-38 -13 -51 -41t-13 -61v-1016q0 -53 33.5 -78.5t96.5 -25.5h94v-448h-75q-32 112 -121 219.5t-163 123.5q-30 7 -83.5 9t-88.5 2z"/>
<glyph glyph-name="afii10044" horiz-adv-x="1769" unicode="Ъ" d="M1727 425q0 -106 -46.5 -188t-126.5 -136q-78 -51 -171.5 -76t-194.5 -25h-863v78q29 3 81.5 8.5t71.5 13.5q39 16 52 43t13 64v1123h-66q-37 0 -76.5 -2.5t-84.5 -7.5q-55 -7 -123.5 -108.5t-102.5 -198.5h-77v406h1103v-78q-31 -2 -77 -8.5t-77 -16.5q-38 -13 -51 -41 t-13 -61v-391q46 1 102 3.5t108 2.5q133 0 242 -21t195 -70q84 -47 133 -124.5t49 -188.5zM1332 411q0 154 -87.5 235.5t-251.5 81.5q-19 0 -49.5 -1.5t-45.5 -2.5v-544q9 -39 55.5 -63.5t112.5 -24.5q119 0 192.5 84.5t73.5 234.5z"/>
<glyph glyph-name="afii10045" horiz-adv-x="2260" unicode="Ы" d="M2191 0h-757v78q28 2 68.5 6t60.5 12q37 15 51 39.5t14 62.5v1006q0 35 -13 59t-52 42q-26 12 -69.5 22.5t-69.5 13.5v78h767v-78q-32 -2 -72 -8.5t-72 -16.5q-38 -13 -51 -41t-13 -61v-1005q0 -36 13 -61t51 -42q24 -10 69.5 -18t74.5 -10v-78zM1457 425 q0 -106 -46 -188t-126 -136q-77 -51 -170.5 -76t-193.5 -25h-852v78q29 3 77 8.5t67 13.5q36 14 50 39t14 64v1001q0 34 -12.5 59.5t-51.5 42.5q-28 12 -74 22t-70 13v78h781v-78q-31 -2 -77 -8.5t-77 -16.5q-38 -13 -51 -41t-13 -61v-391q46 1 101.5 3.5t107.5 2.5 q127 0 240.5 -22t195.5 -69q84 -49 132 -124.5t48 -188.5zM1062 411q0 154 -85 235.5t-251 81.5q-20 0 -52 -1.5t-42 -2.5v-544q9 -39 55 -63.5t112 -24.5q120 0 191.5 85t71.5 234z"/>
<glyph glyph-name="afii10046" horiz-adv-x="1503" unicode="Ь" d="M1461 425q0 -106 -46.5 -188t-126.5 -136q-78 -51 -171.5 -76t-194.5 -25h-853v78q29 3 77 8.5t67 13.5q36 14 50 39t14 64v1001q0 34 -12.5 59.5t-51.5 42.5q-28 12 -74 22t-70 13v78h781v-78q-31 -2 -77 -8.5t-77 -16.5q-38 -13 -51 -41t-13 -61v-391q46 1 102 3.5 t108 2.5q133 0 242 -21t195 -70q84 -47 133 -124.5t49 -188.5zM1066 411q0 154 -87.5 235.5t-251.5 81.5q-19 0 -49.5 -1.5t-45.5 -2.5v-544q9 -39 55.5 -63.5t112.5 -24.5q119 0 192.5 84.5t73.5 234.5z"/>
<glyph glyph-name="afii10047" horiz-adv-x="1495" unicode="Э" d="M1424 759q0 -176 -60 -324t-164 -252q-107 -106 -247.5 -164t-311.5 -58q-149 0 -260 25t-185 71t-110 107.5t-36 136.5q0 82 52.5 131.5t122.5 49.5q87 0 137.5 -45.5t50.5 -120.5q0 -52 -21.5 -109.5t-34.5 -87.5q43 -29 81.5 -46t119.5 -17q99 0 188.5 43.5 t155.5 131.5q64 85 103 216t39 297q-33 -30 -61 -58t-61 -52q-36 -26 -63 -39.5t-66 -13.5q-51 0 -91 14.5t-70 28.5q-32 16 -70.5 30t-87.5 14q-51 0 -80.5 -7.5t-66.5 -26.5l-39 48q23 29 61 68t69 62q34 26 77.5 43.5t84.5 17.5q52 0 87.5 -12.5t69.5 -29.5 q36 -17 64.5 -29.5t86.5 -12.5q52 0 84.5 8.5t70.5 26.5q-4 129 -35 229.5t-86 169.5q-53 68 -123 102.5t-150 34.5q-90 0 -158.5 -37.5t-125.5 -102.5t-93 -143.5t-57 -163.5h-88l9 506h89l60 -55q74 38 189.5 66t230.5 28q160 0 293 -50t225 -138q95 -90 148 -220t53 -291 z"/>
<glyph glyph-name="afii10048" horiz-adv-x="2419" unicode="Ю" d="M1875 246q41 90 57.5 205.5t16.5 260.5q0 118 -15 239t-51 208q-38 90 -104.5 145.5t-172.5 55.5q-179 0 -265.5 -173t-86.5 -483q0 -137 17.5 -253t59.5 -204q41 -87 109 -137.5t166 -50.5q95 0 162 49t107 138zM2130 1261q105 -100 161.5 -237.5t56.5 -304.5 q0 -156 -49 -295t-144 -241t-234 -162t-322 -60q-152 0 -283 48.5t-230 142.5q-99 93 -155 228.5t-58 306.5h-241v-478q0 -34 14.5 -61t49.5 -42q19 -8 62 -17t72 -11v-78h-761v78q25 1 73.5 6.5t70.5 13.5q36 13 50 39.5t14 62.5v1004q0 35 -12.5 59t-51.5 42 q-29 13 -76 23.5t-68 12.5v78h761v-78q-31 -2 -71 -10t-63 -15q-39 -13 -51.5 -41.5t-12.5 -60.5v-424h245q16 161 77.5 284t155.5 208q94 84 220.5 130t275.5 46q156 0 290.5 -52t233.5 -145z"/>
<glyph glyph-name="afii10049" horiz-adv-x="1623" unicode="Я" d="M991 733v596h-146q-113 0 -176.5 -79t-63.5 -212q0 -153 74 -229t198 -76h114zM1554 0h-767v78q25 2 73 6t66 12q37 15 51 39.5t14 62.5v441h-72q-84 0 -140 -50.5t-121 -195.5q-42 -93 -77.5 -186.5t-75.5 -206.5h-535v78q20 2 51.5 4.5t55.5 9.5q51 14 76 41.5t44 67.5 q25 55 53.5 116.5t59.5 124.5q37 77 108.5 140t184.5 95v18q-87 12 -155 38t-116 65q-52 42 -83.5 105t-31.5 146q0 94 43 163t110 114q66 45 157 69t190 24h837v-78q-32 -2 -72 -8.5t-72 -16.5q-38 -13 -51 -41t-13 -61v-1005q0 -36 13 -61t51 -42q24 -10 69.5 -18 t74.5 -10v-78z"/>
<glyph glyph-name="afii10065" horiz-adv-x="1220" unicode="а" d="M704 542q-56 -19 -111 -43.5t-90 -51.5q-37 -28 -58 -71.5t-21 -102.5q0 -78 35.5 -113t87.5 -35q55 0 90.5 22.5t62.5 55.5zM1201 21q-44 -19 -104 -35t-127 -16q-123 0 -181 36.5t-79 104.5h-6q-34 -34 -65.5 -58t-67.5 -41q-47 -22 -90.5 -32.5t-121.5 -10.5 q-116 0 -198 68.5t-82 181.5q0 65 18 110.5t51 80.5q30 32 69.5 53t86.5 39q90 33 216 68.5t184 63.5v96q0 25 -4 66t-17 69q-14 32 -44 54t-79 22q-44 0 -73.5 -12.5t-47.5 -25.5q3 -20 17 -61t14 -79q0 -17 -9 -42.5t-26 -40.5q-23 -20 -51.5 -31t-87.5 -11 q-84 0 -127 40.5t-43 105.5q0 56 44.5 100.5t108.5 73.5q63 30 145 46.5t152 16.5q97 0 178 -11.5t146 -47.5q62 -35 98.5 -101.5t36.5 -173.5q0 -113 -4.5 -268t-4.5 -204q0 -45 13.5 -71t41.5 -39q17 -8 53.5 -9.5t66.5 -1.5v-73z"/>
<glyph glyph-name="afii10066" horiz-adv-x="1280" unicode="б" d="M186 711l10 -2q63 129 181.5 209t280.5 80q139 0 242 -36t173 -103q69 -66 102.5 -157t33.5 -203q0 -107 -39 -204.5t-113 -168.5q-77 -75 -186 -116.5t-246 -41.5q-107 0 -207 35.5t-178 114.5q-76 77 -120.5 197.5t-44.5 284.5q0 157 26 271t74 231q54 132 173.5 229 t282.5 105q81 4 199 9.5t172 9.5q50 4 80.5 18.5t66.5 61.5l61 -48q-33 -43 -61.5 -87.5t-60.5 -82.5q-20 -24 -43 -51.5t-46 -43.5q-25 -17 -56 -28t-84 -15q-44 -3 -111.5 -8.5t-132.5 -8.5q-87 -4 -148 -25t-103 -50q-41 -28 -66 -63t-40 -64q-29 -58 -47.5 -131.5 t-24.5 -117.5zM795 182q25 60 37 140.5t12 175.5q0 75 -10 156t-31 135q-23 58 -61.5 93.5t-94.5 35.5q-61 0 -101 -38t-65 -99q-23 -54 -34 -129.5t-11 -153.5q0 -111 12.5 -192.5t34.5 -134.5q25 -59 64 -90t94 -31q51 0 90 34.5t64 97.5z"/>
<glyph glyph-name="afii10067" horiz-adv-x="1268" unicode="в" d="M803 758q0 51 -15.5 82.5t-38.5 47.5q-26 18 -57.5 24t-61.5 6q-22 0 -45 -1.5t-48 -2.5v-358h81q53 0 91 15t58 44q19 25 27.5 61t8.5 82zM1197 273q0 -75 -35 -128.5t-97 -86.5q-67 -35 -145.5 -49.5t-185.5 -14.5q-253 0 -391 3t-281 3v73q25 2 50.5 5.5t43.5 9.5 q32 11 44 34t12 60v628q0 35 -12.5 59.5t-43.5 34.5q-26 8 -48 10.5t-46 4.5v73q209 0 362 2.5t300 2.5q84 0 160.5 -11.5t133.5 -37.5t91.5 -71t34.5 -111q0 -99 -65 -157.5t-179 -79.5v-15q57 -7 111.5 -22.5t94.5 -42.5q43 -29 67 -72t24 -104zM841 290q0 80 -48 132 t-152 52q-41 0 -64 -2t-40 -2v-319q0 -40 25 -61.5t81 -21.5q58 0 98 19t62 52q21 32 29.5 69.5t8.5 81.5z"/>
<glyph glyph-name="afii10068" horiz-adv-x="1019" unicode="г" d="M1005 629h-65q-9 28 -25 64.5t-47 86.5q-26 43 -58.5 75.5t-67.5 36.5q-28 3 -64.5 5t-64.5 2h-73v-716q0 -36 12.5 -60.5t43.5 -33.5q24 -7 46 -10.5t55 -5.5v-73h-635v73q25 2 50.5 5.5t43.5 9.5q32 11 44 34t12 60v628q0 35 -12.5 59.5t-43.5 34.5q-26 8 -48 10.5 t-46 4.5v73h943v-363z"/>
<glyph glyph-name="afii10069" horiz-adv-x="1260" unicode="д" d="M253 95h375q51 0 68 15t17 56v730h-227q-2 -204 -61.5 -422t-171.5 -379zM126 95q98 133 170 343.5t72 340.5q0 48 -12 72t-40 38q-19 10 -62 18.5t-70 11.5v73h1007v-73q-30 -2 -50 -5t-44 -10q-29 -9 -42.5 -32.5t-13.5 -61.5v-621q0 -53 15 -75.5t81 -22.5h81v-412 h-64q-14 34 -34 79t-63 105q-38 54 -84.5 92.5t-108.5 44.5q-36 3 -84.5 3.5t-74.5 0.5h-184q-41 0 -80.5 -0.5t-78.5 -3.5q-58 -5 -107 -45t-87 -92q-38 -53 -61.5 -105t-34.5 -79h-64v416h118z"/>
<glyph glyph-name="afii10070" horiz-adv-x="1171" unicode="е" d="M751 619q0 60 -6 123t-21 103q-17 47 -46.5 71t-74.5 24q-77 0 -123 -78t-50 -247zM1133 239q-35 -57 -84.5 -107.5t-112.5 -86.5q-67 -38 -135.5 -57.5t-157.5 -19.5q-148 0 -255.5 42t-177.5 113t-104.5 167.5t-34.5 209.5q0 102 37.5 195.5t106.5 166.5 q68 71 171.5 115t231.5 44q140 0 230 -34t149 -94q57 -57 83 -134.5t26 -162.5v-65h-676q0 -205 79 -312t251 -107q94 0 169 51.5t128 130.5z"/>
<glyph glyph-name="afii10072" horiz-adv-x="1825" unicode="ж" d="M1817 0h-455q-17 73 -37.5 144.5t-41.5 133.5q-41 122 -92.5 151.5t-118.5 29.5v-268q0 -35 10 -58t33 -36q16 -9 39.5 -15t47.5 -9v-73h-579v73q17 3 42 7.5t45 16.5q24 14 33.5 34.5t9.5 59.5v268q-84 0 -130.5 -38t-80.5 -143q-26 -77 -43 -137t-38 -141h-453v73 q17 2 37.5 5.5t38.5 7.5q34 8 51.5 25t34.5 51q12 28 32 72.5t36 82.5q36 85 106.5 150t171.5 86q-24 24 -40 58.5t-28 66.5q-14 37 -26 66.5t-36 53.5q-46 -50 -85 -78.5t-94 -28.5q-62 0 -106 39.5t-44 119.5q0 32 8.5 58.5t33.5 54.5q21 24 60.5 40t88.5 16 q65 0 108.5 -21t80.5 -61q36 -39 55.5 -83t32.5 -91q11 -37 28.5 -89t38.5 -85q22 -33 58 -41.5t64 -8.5h39v262q0 33 -9 56.5t-34 37.5q-19 11 -43.5 16t-43.5 8v73h579v-73q-24 -3 -44.5 -7.5t-42.5 -16.5q-24 -13 -33.5 -37t-9.5 -57v-262h39q44 0 73 11t49 39 q28 43 43 89t26 87q13 47 30 87t56 84q36 41 80.5 62t108.5 21q52 0 89 -15t60 -39t32.5 -52.5t9.5 -58.5q0 -80 -44 -121t-106 -41q-51 0 -98.5 31t-79.5 67q-23 -15 -37 -46t-27 -64q-14 -36 -28 -69.5t-39 -57.5q101 -20 171.5 -86t106.5 -150q14 -33 34.5 -79.5 t33.5 -76.5q19 -42 45 -57.5t41 -17.5q14 -3 39 -7.5t37 -5.5v-73z"/>
<glyph glyph-name="afii10073" horiz-adv-x="1105" unicode="з" d="M1035 286q0 -75 -45.5 -135.5t-121.5 -99.5q-78 -41 -174.5 -62t-208.5 -21q-88 0 -169 17.5t-141 51.5q-61 34 -95.5 81t-34.5 108q0 65 40 111.5t108 46.5q78 0 123.5 -38t45.5 -103q0 -46 -14.5 -89.5t-27.5 -76.5q20 -7 45.5 -16t82.5 -9q93 0 157.5 63t64.5 177 q0 35 -8.5 67.5t-27.5 58.5q-19 25 -49.5 39.5t-74.5 14.5h-117v102h103q39 0 68 16t44 43q17 29 24 64t7 81q0 67 -38 114t-103 47q-37 0 -73 -15t-78 -54q-39 -36 -76.5 -96t-71.5 -146h-68l6 367h74l43 -39q75 33 154 49t160 16q84 0 160.5 -14t133.5 -43q58 -29 92 -73 t34 -105q0 -48 -22.5 -89.5t-63.5 -71.5q-37 -28 -87 -49t-109 -31v-15q65 -2 120.5 -16t104.5 -44q47 -29 75.5 -73.5t28.5 -110.5z"/>
<glyph glyph-name="afii10074" horiz-adv-x="1469" unicode="и" d="M1407 0h-604v73q17 3 42 7.5t45 16.5q24 14 33.5 34.5t9.5 59.5v471l-400 -473v-3q0 -36 9.5 -57.5t33.5 -34.5q16 -9 40.5 -13.5t49.5 -7.5v-73h-604v73q25 2 50.5 5.5t43.5 9.5q32 11 44 34t12 60v628q0 35 -12.5 59.5t-43.5 34.5q-26 8 -48 10.5t-46 4.5v73h604v-73 q-24 -3 -44.5 -7.5t-42.5 -16.5q-24 -13 -33.5 -37t-9.5 -57v-471l400 473v3q0 36 -9.5 57.5t-33.5 34.5q-19 11 -45.5 14.5t-44.5 6.5v73h604v-73q-30 -2 -50 -5t-44 -10q-29 -9 -42.5 -32.5t-13.5 -61.5v-628q0 -36 12.5 -60.5t43.5 -33.5q24 -7 42.5 -10t51.5 -5v-73z "/>
<glyph glyph-name="afii10075" horiz-adv-x="1469" unicode="й" d="M1134 1414q0 -36 -19.5 -81t-66.5 -84q-52 -43 -129.5 -68t-184.5 -25q-113 0 -189.5 26.5t-122.5 66.5q-44 39 -64.5 84.5t-20.5 80.5q0 54 34 91t85 37q55 0 97.5 -30.5t42.5 -84.5q0 -26 -18 -72.5t-27 -65.5q42 -34 92.5 -48t90.5 -14q39 0 93 15t93 47 q-12 27 -28 64.5t-16 73.5q0 46 38 80.5t100 34.5q52 0 86 -37t34 -91zM1407 0h-604v73q17 3 42 7.5t45 16.5q24 14 33.5 34.5t9.5 59.5v471l-400 -473v-3q0 -36 9.5 -57.5t33.5 -34.5q16 -9 40.5 -13.5t49.5 -7.5v-73h-604v73q25 2 50.5 5.5t43.5 9.5q32 11 44 34t12 60 v628q0 35 -12.5 59.5t-43.5 34.5q-26 8 -48 10.5t-46 4.5v73h604v-73q-24 -3 -44.5 -7.5t-42.5 -16.5q-24 -13 -33.5 -37t-9.5 -57v-471l400 473v3q0 36 -9.5 57.5t-33.5 34.5q-19 11 -45.5 14.5t-44.5 6.5v73h604v-73q-30 -2 -50 -5t-44 -10q-29 -9 -42.5 -32.5 t-13.5 -61.5v-628q0 -36 12.5 -60.5t43.5 -33.5q24 -7 42.5 -10t51.5 -5v-73z"/>
<glyph glyph-name="afii10076" horiz-adv-x="1311" unicode="к" d="M1303 0h-464q-18 86 -32.5 146t-38.5 132q-30 90 -77.5 134.5t-150.5 46.5v-268q0 -35 10 -58t33 -36q16 -9 39.5 -15t47.5 -9v-73h-608v73q25 2 50.5 5.5t43.5 9.5q32 11 44 34t12 60v628q0 35 -12.5 59.5t-43.5 34.5q-26 8 -48 10.5t-46 4.5v73h608v-73 q-24 -3 -44.5 -7.5t-42.5 -16.5q-24 -13 -33.5 -37t-9.5 -57v-262h46q49 0 80 11.5t49 38.5q29 45 44 89t27 86q12 44 31 87t54 85t82 62.5t110 20.5q53 0 89.5 -15.5t57.5 -38.5q23 -24 32.5 -52.5t9.5 -58.5q0 -80 -43.5 -121t-103.5 -41q-51 0 -98.5 32t-81.5 72 q-23 -14 -36.5 -44.5t-26.5 -65.5q-14 -37 -28.5 -71.5t-42.5 -61.5q103 -19 174.5 -83.5t108.5 -152.5q17 -40 35.5 -83t31.5 -73q19 -42 45 -57.5t41 -17.5q14 -3 39 -7.5t37 -5.5v-73z"/>
<glyph glyph-name="afii10077" horiz-adv-x="1345" unicode="л" d="M1283 0h-630v73q25 2 51 5.5t44 9.5q32 11 44.5 34t12.5 60v714h-224q-5 -250 -44 -427t-98 -286q-60 -110 -130 -162t-141 -52q-54 0 -90.5 17.5t-58.5 44.5q-23 27 -32 60t-9 59q0 74 42.5 118.5t112.5 44.5q59 0 103 -31.5t84 -76.5q61 92 102.5 247.5t41.5 323.5 q0 45 -15 70t-40 40q-28 16 -64 23.5t-63 9.5v73h1001v-73q-30 -2 -50 -5t-44 -10q-29 -9 -42.5 -32.5t-13.5 -61.5v-628q0 -36 12.5 -60.5t43.5 -33.5q24 -7 42.5 -10t51.5 -5v-73z"/>
<glyph glyph-name="afii10078" horiz-adv-x="1644" unicode="м" d="M1582 0h-624v73q25 2 50.5 5.5t43.5 9.5q32 11 44 34.5t12 60.5v666h-29l-304 -833h-137l-292 834h-31v-635q0 -50 13.5 -79t41.5 -41q21 -10 46 -15t51 -7v-73h-400v73q23 2 47.5 4.5t42.5 8.5q30 10 42.5 39.5t12.5 80.5v591q0 39 -14 63.5t-42 36.5q-27 12 -51 15.5 t-45 6.5v73h570l198 -584l164 457q13 37 21.5 76.5t9.5 50.5h559v-73q-30 -2 -50 -5t-44 -10q-29 -9 -42.5 -32.5t-13.5 -61.5v-628q0 -36 12.5 -60.5t43.5 -33.5q24 -7 42.5 -10t51.5 -5v-73z"/>
<glyph glyph-name="afii10079" horiz-adv-x="1454" unicode="н" d="M1392 0h-608v73q17 3 42 7.5t45 16.5q24 14 33.5 34.5t9.5 59.5v287h-374v-287q0 -35 10 -58t33 -36q16 -9 39.5 -15t47.5 -9v-73h-608v73q25 2 50.5 5.5t43.5 9.5q32 11 44 34t12 60v628q0 35 -12.5 59.5t-43.5 34.5q-26 8 -48 10.5t-46 4.5v73h608v-73 q-24 -3 -44.5 -7.5t-42.5 -16.5q-24 -13 -33.5 -37t-9.5 -57v-230h374v230q0 33 -9 56.5t-34 37.5q-19 11 -43.5 16t-43.5 8v73h608v-73q-30 -2 -50 -5t-44 -10q-29 -9 -42.5 -32.5t-13.5 -61.5v-628q0 -36 12.5 -60.5t43.5 -33.5q24 -7 42.5 -10t51.5 -5v-73z"/>
<glyph glyph-name="afii10080" horiz-adv-x="1302" unicode="о" d="M823 181q22 56 32.5 136t10.5 186q0 70 -10 160t-30 142q-24 63 -66.5 99t-107.5 36q-71 0 -113.5 -39t-65.5 -101q-21 -57 -29 -133.5t-8 -159.5q0 -109 7 -180.5t34 -143.5q23 -62 66 -98t109 -36q60 0 103 33.5t68 98.5zM1079 874q74 -69 113 -165t39 -208 q0 -111 -38.5 -209.5t-112.5 -168.5q-79 -75 -188.5 -115t-250.5 -40q-122 0 -224.5 35t-181.5 105q-76 67 -120 165.5t-44 220.5q0 120 38.5 213.5t115.5 166.5q74 70 182.5 108.5t242.5 38.5q140 0 246.5 -38.5t182.5 -108.5z"/>
<glyph glyph-name="afii10081" horiz-adv-x="1432" unicode="п" d="M1370 0h-603v73q18 3 43.5 8.5t41.5 14.5q24 14 32 35t8 60v705h-352v-705q0 -37 8.5 -59.5t31.5 -35.5q16 -9 38.5 -14.5t46.5 -8.5v-73h-603v73q25 2 50.5 5.5t43.5 9.5q32 11 44 34t12 60v628q0 35 -12.5 59.5t-43.5 34.5q-26 8 -48 10.5t-46 4.5v73h1308v-73 q-30 -2 -50 -5t-44 -10q-29 -9 -42.5 -32.5t-13.5 -61.5v-628q0 -36 12.5 -60.5t43.5 -33.5q24 -7 42.5 -10t51.5 -5v-73z"/>
<glyph glyph-name="afii10082" horiz-adv-x="1347" unicode="р" d="M917 483q0 75 -11 143.5t-39 122.5q-27 54 -71.5 86t-108.5 32q-65 0 -104 -22.5t-68 -58.5v-567q6 -20 23 -51.5t34 -50.5q25 -27 57 -40t70 -13q99 0 158.5 106.5t59.5 312.5zM1276 487q0 -211 -141 -362t-357 -151q-96 0 -156 19.5t-99 47.5h-8v-281q0 -35 15.5 -61 t43.5 -38q27 -11 76.5 -20t82.5 -11v-74h-722v74q25 2 63 7.5t57 11.5q32 11 43.5 37.5t11.5 60.5v1023q-3 33 -15.5 58t-39.5 44q-20 13 -53 21.5t-65 11.5v73l487 26l15 -13v-111l8 -2q66 67 146.5 104t159.5 37q207 0 327 -146.5t120 -385.5z"/>
<glyph glyph-name="afii10083" horiz-adv-x="1088" unicode="с" d="M629 -32q-139 0 -245.5 40.5t-175.5 110.5q-69 71 -103 168t-34 211q0 104 41.5 198t112.5 165q73 73 181.5 116.5t239.5 43.5q184 0 291 -69.5t107 -187.5q0 -72 -38 -116t-131 -44q-75 0 -125.5 36t-50.5 94q0 49 16 97t19 73q-11 18 -28 27.5t-53 9.5q-45 0 -82 -21 t-69 -74q-31 -50 -49.5 -134t-18.5 -202q0 -178 83.5 -287t199.5 -109q111 0 176.5 49.5t116.5 140.5l75 -52q-31 -61 -74 -111.5t-103 -89.5q-63 -41 -128 -62t-151 -21z"/>
<glyph glyph-name="afii10084" horiz-adv-x="1118" unicode="т" d="M1104 640h-65q-8 25 -26.5 65t-45.5 83q-26 41 -58.5 73t-67.5 36q-28 3 -54 4t-64 1v-719q0 -36 12.5 -60.5t43.5 -33.5q24 -7 46 -10.5t55 -5.5v-73h-642v73q25 2 54 6t47 10q32 11 44 34t12 60v719q-45 0 -67 -1t-51 -4q-34 -3 -67 -36t-59 -73q-27 -42 -45.5 -85 t-26.5 -63h-65v352h1090v-352z"/>
<glyph glyph-name="afii10085" horiz-adv-x="1151" unicode="у" d="M1188 919q-45 -7 -87.5 -34t-70.5 -84q-86 -182 -177 -387.5t-202 -444.5q-62 -134 -120 -214t-109 -123q-48 -40 -95 -58t-95 -18q-95 0 -153.5 53t-58.5 119q0 28 6.5 52t27.5 50q16 22 49.5 37.5t75.5 15.5q56 0 107 -39t106 -108q33 33 81.5 98.5t71.5 134.5 q-119 250 -211 433.5t-206 409.5q-25 48 -67 74.5t-89 32.5v73h612v-73q-34 -1 -78.5 -15t-44.5 -36q0 -8 3 -17.5t11 -27.5q34 -70 96.5 -194.5t145.5 -291.5q62 142 105.5 244.5t84.5 201.5q10 25 11.5 39.5t1.5 19.5q0 18 -17.5 31.5t-41.5 23.5q-25 10 -48 15t-38 7v73 h413v-73z"/>
<glyph glyph-name="afii10086" horiz-adv-x="1792" unicode="ф" d="M734 124v746q-22 22 -48 35.5t-65 13.5q-96 0 -146 -97.5t-50 -327.5q0 -223 49.5 -321t146.5 -98q37 0 65 14.5t48 34.5zM1367 502q0 230 -50 323.5t-146 93.5q-42 0 -64.5 -12.5t-48.5 -36.5v-746q21 -21 46.5 -35t66.5 -14q96 0 146 99t50 328zM1721 502 q0 -227 -130 -373t-343 -146q-58 0 -106.5 16t-77.5 29h-6v-283q0 -35 12.5 -61t43.5 -35q25 -7 58.5 -12t68.5 -7v-74h-687v74q25 2 65.5 7.5t59.5 11.5q32 11 43.5 37t11.5 61v281h-6q-42 -18 -80.5 -31.5t-103.5 -13.5q-212 0 -342.5 141.5t-130.5 369.5q0 231 131 374 t342 143q58 0 103 -13.5t81 -29.5h6v253q0 35 -15 69.5t-42 52.5q-19 12 -57 20t-69 10v73l492 26l15 -16v-488h6q30 14 83.5 28.5t100.5 14.5q215 0 344 -138.5t129 -370.5z"/>
<glyph glyph-name="afii10087" horiz-adv-x="1204" unicode="х" d="M1198 0h-625v73q49 3 82 8.5t33 22.5q0 8 -8.5 25t-21.5 38q-19 31 -65.5 98t-87.5 124q-58 -67 -97 -115t-82 -103q-15 -18 -21 -33t-6 -18q0 -23 32.5 -35t77.5 -12v-73h-406v73q81 17 129.5 54t65.5 57q73 78 123.5 129.5t135.5 144.5q-57 79 -138 193t-135 187 q-27 36 -66 55.5t-101 25.5v73h611v-73q-33 0 -65 -4t-32 -14q0 -8 5 -20t13 -25q19 -32 60 -94t88 -130q45 55 75.5 90t78.5 99q18 24 22.5 36t4.5 15q0 17 -21.5 30.5t-84.5 16.5v73h398v-73q-49 -8 -95 -33t-96 -78q-78 -81 -113.5 -118.5t-117.5 -124.5q46 -65 133 -189 t150 -209q27 -38 60.5 -62t106.5 -32v-73z"/>
<glyph glyph-name="afii10088" horiz-adv-x="1438" unicode="ц" d="M884 0h-822v73q25 2 50.5 5.5t43.5 9.5q32 11 44 34t12 60v628q0 35 -12.5 59.5t-43.5 34.5q-26 8 -48 10.5t-46 4.5v73h603v-73q-24 -3 -43.5 -7t-41.5 -16q-21 -11 -30.5 -33t-9.5 -62v-621q0 -21 1 -35.5t9 -29.5q8 -13 26.5 -21.5t47.5 -9.5q28 -1 56 -1.5t57 -0.5 q32 0 55.5 0.5t48.5 2.5q40 3 45.5 20.5t5.5 57.5v638q0 35 -8.5 58.5t-31.5 36.5q-19 11 -42.5 15.5t-42.5 7.5v73h603v-73q-30 -2 -50 -5t-44 -10q-29 -9 -42.5 -32.5t-13.5 -61.5v-629q0 -53 15 -75.5t81 -22.5h81v-404h-64q-10 29 -34.5 80.5t-60.5 101.5q-39 53 -86 91 t-109 44q-36 3 -84.5 3.5t-74.5 0.5z"/>
<glyph glyph-name="afii10089" horiz-adv-x="1365" unicode="ч" d="M1303 0h-630v73q25 2 51 5.5t44 9.5q32 11 44.5 34t12.5 60v243q-78 -51 -154.5 -83.5t-172.5 -32.5q-178 0 -259 76t-81 235v187q0 36 -10.5 57.5t-45.5 36.5q-23 10 -47 12.5t-49 5.5v73h609v-73q-24 -3 -44.5 -7.5t-42.5 -16.5q-24 -13 -33.5 -37t-9.5 -57v-122 q0 -56 8.5 -89t34.5 -61q24 -26 60 -39t96 -13q33 0 70.5 8.5t70.5 20.5v295q0 33 -9 56.5t-34 37.5q-19 11 -43.5 16t-43.5 8v73h608v-73q-30 -2 -50 -5t-44 -10q-29 -9 -42.5 -32.5t-13.5 -61.5v-628q0 -36 12.5 -60.5t43.5 -33.5q24 -7 42.5 -10t51.5 -5v-73z"/>
<glyph glyph-name="afii10090" horiz-adv-x="2026" unicode="ш" d="M1964 0h-1902v73q25 2 50.5 5.5t43.5 9.5q32 11 44 34t12 60v628q0 35 -12.5 59.5t-43.5 34.5q-26 8 -48 10.5t-46 4.5v73h584v-73q-25 -3 -41.5 -8t-33.5 -14q-22 -13 -29 -34t-7 -60v-623q0 -21 1 -35.5t9 -29.5q8 -13 26.5 -21.5t47.5 -9.5q28 -1 47 -1.5t48 -0.5 q28 0 44 0.5t42 2.5q40 2 45.5 21t5.5 57v640q0 36 -6 57.5t-30 36.5q-18 11 -35.5 15t-37.5 7v73h542v-73q-25 -3 -40.5 -8t-32.5 -14q-22 -13 -29 -34t-7 -60v-623q0 -21 1 -35.5t9 -29.5q8 -13 26.5 -21.5t47.5 -9.5q28 -1 47 -1.5t48 -0.5q28 0 44 0.5t42 2.5 q40 2 45.5 21t5.5 57v640q0 36 -6 57.5t-30 36.5q-18 11 -36.5 15t-38.5 7v73h584v-73q-30 -2 -50 -5t-44 -10q-29 -9 -42.5 -32.5t-13.5 -61.5v-628q0 -39 12.5 -62t43.5 -32q24 -7 42.5 -10t51.5 -5v-73z"/>
<glyph glyph-name="afii10091" horiz-adv-x="2032" unicode="щ" d="M1477 0h-1415v73q25 2 50.5 5.5t43.5 9.5q32 11 44 34t12 60v628q0 35 -12.5 59.5t-43.5 34.5q-26 8 -48 10.5t-46 4.5v73h584v-73q-25 -3 -41.5 -8t-33.5 -14q-22 -13 -29 -34t-7 -60v-623q0 -21 1 -35.5t9 -29.5q8 -13 26.5 -21.5t47.5 -9.5q28 -1 47 -1.5t48 -0.5 q28 0 44 0.5t42 2.5q40 2 45.5 21t5.5 57v640q0 36 -6 57.5t-30 36.5q-18 11 -35.5 15t-37.5 7v73h542v-73q-25 -3 -40.5 -8t-32.5 -14q-22 -13 -29 -34t-7 -60v-623q0 -21 1 -35.5t9 -29.5q8 -13 26.5 -21.5t47.5 -9.5q28 -1 47 -1.5t48 -0.5q28 0 44 0.5t42 2.5 q40 2 45.5 21t5.5 57v640q0 36 -6 57.5t-30 36.5q-18 11 -36.5 15t-38.5 7v73h584v-73q-30 -2 -50 -5t-44 -10q-29 -9 -42.5 -32.5t-13.5 -61.5v-629q0 -53 15 -75.5t81 -22.5h81v-404h-65q-12 32 -36.5 83t-60.5 101q-39 54 -83.5 90.5t-109.5 42.5q-36 3 -84.5 3.5 t-74.5 0.5z"/>
<glyph glyph-name="afii10092" horiz-adv-x="1394" unicode="ъ" d="M1357 308q0 -84 -32.5 -145.5t-99.5 -99.5q-64 -36 -157 -53t-218 -17q-216 0 -349 3.5t-266 3.5v73q25 2 54 6t47 10q32 11 44 34t12 60v721q-34 0 -60 -1.5t-55 -4.5q-33 -3 -66 -38t-59 -78q-27 -43 -45.5 -86t-27.5 -67h-65v363h857v-73q-30 -2 -50.5 -5t-44.5 -10 q-31 -9 -43.5 -35.5t-12.5 -58.5v-212q45 1 74.5 3.5t90.5 2.5q103 0 188.5 -15.5t148.5 -50.5q64 -35 99.5 -90t35.5 -140zM1004 310q0 84 -49.5 145t-139.5 61q-35 0 -58.5 -3t-36.5 -4v-351q0 -42 24.5 -66.5t86.5 -24.5q51 0 85.5 21.5t53.5 57.5q20 38 27 78.5t7 85.5z "/>
<glyph glyph-name="afii10093" horiz-adv-x="1874" unicode="ы" d="M1812 0h-608v73q17 3 42 7.5t45 16.5q24 14 33.5 34.5t9.5 59.5v619q0 35 -13 59.5t-44 34.5q-26 8 -48 10.5t-46 4.5v73h629v-73q-30 -2 -50 -5t-44 -10q-29 -9 -42.5 -32.5t-13.5 -61.5v-628q0 -36 12.5 -60.5t43.5 -33.5q24 -7 42.5 -10t51.5 -5v-73zM1172 308 q0 -86 -32.5 -146.5t-99.5 -98.5t-157.5 -54t-217.5 -16q-175 0 -336 3.5t-267 3.5v73q25 2 50.5 5.5t43.5 9.5q32 11 44 34t12 60v628q0 35 -12.5 59.5t-43.5 34.5q-26 8 -48 10.5t-46 4.5v73h629v-73q-30 -2 -50.5 -5t-44.5 -10q-31 -9 -43.5 -35.5t-12.5 -58.5v-212 q45 1 72 3.5t88 2.5q103 0 188.5 -15.5t148.5 -50.5q64 -35 99.5 -90t35.5 -140zM819 310q0 84 -49 145t-139 61q-38 0 -55.5 -3t-35.5 -4v-351q0 -42 23 -66.5t85 -24.5q51 0 85 21.5t53 57.5q20 38 26.5 78.5t6.5 85.5z"/>
<glyph glyph-name="afii10094" horiz-adv-x="1214" unicode="ь" d="M1177 308q0 -84 -32.5 -145.5t-99.5 -99.5q-63 -35 -156.5 -52.5t-226.5 -17.5q-250 0 -367 3.5t-233 3.5v73q25 2 50.5 5.5t43.5 9.5q32 11 44 34t12 60v628q0 35 -12.5 59.5t-43.5 34.5q-26 8 -48 10.5t-46 4.5v73h629v-73q-30 -2 -50.5 -5t-44.5 -10 q-31 -9 -43.5 -35.5t-12.5 -58.5v-212q45 1 74.5 3.5t90.5 2.5q103 0 188.5 -15.5t148.5 -50.5q64 -35 99.5 -90t35.5 -140zM824 310q0 84 -49.5 145t-139.5 61q-35 0 -58.5 -3t-36.5 -4v-351q0 -42 24.5 -66.5t86.5 -24.5q51 0 85.5 21.5t53.5 57.5q20 38 27 78.5t7 85.5z "/>
<glyph glyph-name="afii10095" horiz-adv-x="1119" unicode="э" d="M903 893q68 -62 106 -153.5t38 -209.5q0 -120 -42 -225.5t-119 -179.5q-80 -76 -182 -116.5t-233 -40.5q-92 0 -170 15.5t-133 45.5q-59 32 -89 78t-30 106q0 63 40 106t106 43q74 0 121 -32t47 -94q0 -43 -20 -92t-33 -77q22 -8 52 -12t72 -4q53 0 100.5 25.5t83.5 78.5 q37 53 61 132t27 185h-350v112h351q-4 171 -69.5 263.5t-157.5 92.5q-52 0 -99.5 -29t-88.5 -79q-40 -48 -66 -103.5t-39 -100.5h-68l6 367h75l43 -39q52 27 131.5 46t156.5 19q118 0 210.5 -32t161.5 -96z"/>
<glyph glyph-name="afii10096" horiz-adv-x="1919" unicode="ю" d="M883 104q-73 66 -114 159t-45 215h-184v-287q0 -35 10 -58t33 -36q16 -9 39.5 -15t47.5 -9v-73h-608v73q25 2 50.5 5.5t43.5 9.5q32 11 44 34t12 60v628q0 35 -12.5 59.5t-43.5 34.5q-26 8 -48 10.5t-46 4.5v73h608v-73q-24 -3 -44.5 -7.5t-42.5 -16.5q-24 -13 -33.5 -37 t-9.5 -57v-230h188q12 101 54 183t112 142q69 59 166.5 92t218.5 33q137 0 241 -38.5t177 -108.5t110.5 -164.5t37.5 -208.5q0 -111 -37.5 -209.5t-108.5 -168.5q-76 -74 -179.5 -114.5t-249.5 -40.5q-116 0 -215 35t-172 101zM1439 181q24 65 32.5 142.5t8.5 179.5 q0 80 -8 161t-29 141q-22 60 -63 97.5t-106 37.5q-67 0 -109.5 -38t-65.5 -102q-21 -62 -27.5 -140.5t-6.5 -152.5q0 -98 8 -179.5t31 -144.5q22 -62 63 -98t107 -36q60 0 101 34t64 98z"/>
<glyph glyph-name="afii10097" horiz-adv-x="1309" unicode="я" d="M769 523v391q-33 2 -54 2.5t-38 0.5q-77 0 -126 -52.5t-49 -141.5q0 -101 49.5 -150.5t161.5 -49.5h56zM1247 0h-608v73q17 3 42 7.5t45 16.5q24 14 33.5 34.5t9.5 59.5v249q-91 0 -145 -38t-85 -124q-28 -78 -46 -134t-41 -144h-460v73q15 2 40 5t44 8q15 4 36.5 20 t40.5 56q19 41 32.5 71.5t37.5 76.5q30 58 83 99.5t101 57.5v11q-49 9 -95 28t-80 48q-35 30 -56.5 75.5t-21.5 104.5q0 127 119.5 195t336.5 68q193 0 355 -2.5t282 -2.5v-73q-30 -2 -50 -5t-44 -10q-29 -9 -42.5 -32.5t-13.5 -61.5v-628q0 -36 12.5 -60.5t43.5 -33.5 q24 -7 42.5 -10t51.5 -5v-73z"/>
<glyph glyph-name="afii10071" horiz-adv-x="1171" unicode="ё" d="M751 619q0 60 -6 123t-21 103q-17 47 -46.5 71t-74.5 24q-77 0 -123 -78t-50 -247zM1133 239q-35 -57 -84.5 -107.5t-112.5 -86.5q-67 -38 -135.5 -57.5t-157.5 -19.5q-148 0 -255.5 42t-177.5 113t-104.5 167.5t-34.5 209.5q0 102 37.5 195.5t106.5 166.5 q68 71 171.5 115t231.5 44q140 0 230 -34t149 -94q57 -57 83 -134.5t26 -162.5v-65h-676q0 -205 79 -312t251 -107q94 0 169 51.5t128 130.5zM508 1349q0 -67 -48 -117.5t-112 -50.5q-65 0 -112 50t-47 118q0 67 46.5 117.5t112.5 50.5q64 0 112 -50.5t48 -117.5zM1003 1349 q0 -67 -47.5 -117.5t-111.5 -50.5q-65 0 -112.5 50t-47.5 118q0 67 47 117.5t113 50.5q64 0 111.5 -50.5t47.5 -117.5z"/>
<glyph glyph-name="afii10099" horiz-adv-x="1373" unicode="ђ" d="M1213 118q-8 -255 -156 -408.5t-383 -153.5q-117 0 -184.5 46t-67.5 126q0 68 42.5 111.5t116.5 43.5q76 0 122 -52.5t98 -185.5q51 35 63.5 115t16.5 259q2 80 3 149.5t1 206.5q0 75 -1 135t-3 135q-2 105 -39 154t-109 49q-40 0 -74.5 -12t-67.5 -35q-29 -20 -46.5 -41 t-29.5 -37v-530q0 -37 9 -58.5t34 -35.5q15 -9 39.5 -16t47.5 -10v-73h-608v73q26 2 50.5 5t43.5 10q32 12 43.5 34.5t11.5 59.5v969h-239v99h239v47q0 32 -15 68t-42 54q-20 13 -58 20.5t-68 9.5v73l497 26l15 -16v-282h352v-99h-352v-314h4q38 34 68.5 61.5t74.5 55.5 q37 24 96.5 41t128.5 17q161 0 243 -93t83 -245q0 -50 2 -120.5t2 -157.5q0 -83 -1 -149t-3 -129z"/>
<glyph glyph-name="afii10100" horiz-adv-x="1019" unicode="ѓ" d="M1005 629h-65q-9 28 -25 64.5t-47 86.5q-26 43 -58.5 75.5t-67.5 36.5q-28 3 -64.5 5t-64.5 2h-73v-716q0 -36 12.5 -60.5t43.5 -33.5q24 -7 46 -10.5t55 -5.5v-73h-635v73q25 2 50.5 5.5t43.5 9.5q32 11 44 34t12 60v628q0 35 -12.5 59.5t-43.5 34.5q-26 8 -48 10.5 t-46 4.5v73h943v-363zM837 1460q0 -45 -20.5 -72.5t-65.5 -56.5q-49 -32 -155 -90.5t-240 -139.5l-42 38q88 117 136 186.5t83 118.5q43 61 82 82.5t97 21.5q48 0 86.5 -26t38.5 -62z"/>
<glyph glyph-name="afii10101" horiz-adv-x="1144" unicode="є" d="M413 441q6 -184 76 -288.5t191 -104.5q34 0 72.5 10.5t55.5 19.5q-14 31 -33 72t-19 79q0 61 48 98t123 37q66 0 104.5 -43t38.5 -106q0 -56 -36 -103t-97 -78q-67 -34 -144.5 -50t-178.5 -16q-246 0 -394.5 140t-148.5 378q0 121 43 219.5t118 169.5q74 70 174.5 108 t211.5 38q94 0 163.5 -18.5t120.5 -46.5l42 39h75l6 -367h-68q-15 48 -41 102t-64 102q-37 47 -86 77.5t-110 30.5q-48 0 -87 -21t-74 -67q-31 -42 -52.5 -112t-27.5 -158h380v-112h-383z"/>
<glyph glyph-name="afii10102" horiz-adv-x="1050" unicode="ѕ" d="M521 -34q-97 0 -189.5 28.5t-143.5 60.5l-30 -68h-78l-13 373h73q15 -45 50 -101.5t80 -101.5q47 -45 107.5 -76t129.5 -31q91 0 135.5 35.5t44.5 109.5q0 40 -20 66t-55 45q-39 20 -85.5 34t-114.5 34t-116.5 40.5t-100.5 64.5q-45 39 -72 94t-27 131q0 141 118.5 228 t310.5 87q91 0 167.5 -18.5t128.5 -40.5l21 59h76l16 -341h-71q-35 104 -120 179.5t-183 75.5q-77 0 -121 -32t-44 -89q0 -76 64.5 -110t180.5 -64q179 -46 262 -125.5t83 -202.5q0 -164 -128.5 -254t-335.5 -90z"/>
<glyph glyph-name="afii10103" horiz-adv-x="724" unicode="і" d="M544 1364q0 -76 -58.5 -129.5t-138.5 -53.5q-81 0 -139.5 53.5t-58.5 129.5t58.5 130t139.5 54t139 -54t58 -130zM690 0h-632v73q26 2 51 5t43 10q32 12 45 34.5t13 59.5v582q0 35 -16 61.5t-40 42.5q-18 12 -54.5 23t-66.5 14v73l490 26l15 -15v-794q0 -35 15 -59.5 t43 -36.5q20 -9 44 -16t50 -10v-73z"/>
<glyph glyph-name="afii10104" horiz-adv-x="724" unicode="ї" d="M260 1349q0 -67 -48 -117.5t-112 -50.5q-65 0 -112 50t-47 118q0 67 46.5 117.5t112.5 50.5q64 0 112 -50.5t48 -117.5zM719 1349q0 -67 -47.5 -117.5t-111.5 -50.5q-65 0 -112.5 50t-47.5 118q0 67 47 117.5t113 50.5q64 0 111.5 -50.5t47.5 -117.5zM690 0h-632v73 q26 2 51 5t43 10q32 12 45 34.5t13 59.5v582q0 35 -16 61.5t-40 42.5q-18 12 -54.5 23t-66.5 14v73l490 26l15 -15v-794q0 -35 15 -59.5t43 -36.5q20 -9 44 -16t50 -10v-73z"/>
<glyph glyph-name="afii10105" horiz-adv-x="709" unicode="ј" d="M555 1364q0 -76 -58.5 -129.5t-138.5 -53.5q-81 0 -139.5 53.5t-58.5 129.5t58.5 130t139.5 54t139 -54t58 -130zM551 118q0 -103 -35 -208t-100 -180q-71 -82 -172 -128t-231 -46q-121 0 -186.5 46.5t-65.5 125.5q0 28 6.5 52t27.5 50q16 22 49.5 37.5t75.5 15.5 q83 0 128 -59.5t92 -178.5q41 23 60.5 98t19.5 326v691q0 35 -15 61.5t-41 44.5q-19 13 -60.5 24.5t-73.5 14.5v73l506 26l15 -15v-871z"/>
<glyph glyph-name="afii10106" horiz-adv-x="1807" unicode="љ" d="M1770 308q0 -84 -32.5 -145.5t-99.5 -99.5q-63 -35 -156.5 -52.5t-226.5 -17.5q-250 0 -365.5 3.5t-236.5 3.5v73q25 2 51 5.5t44 9.5q32 11 44.5 34t12.5 60v714h-224q-5 -250 -44 -427t-98 -286q-60 -110 -130 -162t-141 -52q-54 0 -90.5 17.5t-58.5 44.5 q-23 27 -32 60t-9 59q0 74 42.5 118.5t112.5 44.5q59 0 103 -31.5t84 -76.5q59 89 101.5 245.5t42.5 325.5q0 45 -15 70t-40 40q-28 16 -64 23.5t-63 9.5v73h1002v-73q-30 -2 -50.5 -5t-44.5 -10q-31 -9 -43.5 -35.5t-12.5 -58.5v-212q45 1 74.5 3.5t90.5 2.5 q103 0 188.5 -15.5t148.5 -50.5q64 -35 99.5 -90t35.5 -140zM1417 310q0 84 -49.5 145t-139.5 61q-35 0 -58.5 -3t-36.5 -4v-351q0 -42 24.5 -66.5t86.5 -24.5q51 0 85.5 21.5t53.5 57.5q20 38 27 78.5t7 85.5z"/>
<glyph glyph-name="afii10107" horiz-adv-x="1909" unicode="њ" d="M1872 308q0 -86 -33 -147.5t-97 -97.5q-62 -35 -154 -52.5t-223 -17.5q-231 0 -363 3.5t-223 3.5v73q17 3 41.5 7.5t44.5 16.5q24 14 33.5 34.5t9.5 59.5v292h-368v-292q0 -35 10 -58t33 -36q16 -9 39 -15t47 -9v-73h-607v73q25 2 50.5 5.5t43.5 9.5q32 11 44 34t12 60 v628q0 35 -12.5 59.5t-43.5 34.5q-26 8 -48 10.5t-46 4.5v73h607v-73q-24 -3 -44 -7.5t-42 -16.5q-24 -13 -33.5 -37t-9.5 -57v-225h368v225q0 33 -9 56.5t-34 37.5q-19 11 -43 16t-43 8v73h607v-73q-30 -2 -50.5 -5t-44.5 -10q-31 -9 -43.5 -35.5t-12.5 -58.5v-212 q45 1 74.5 3.5t90.5 2.5q103 0 188.5 -15.5t148.5 -50.5q64 -35 99.5 -90t35.5 -140zM1519 310q0 84 -49.5 145t-139.5 61q-35 0 -58.5 -3t-36.5 -4v-351q0 -42 24.5 -66.5t86.5 -24.5q51 0 85.5 21.5t53.5 57.5q20 38 27 78.5t7 85.5z"/>
<glyph glyph-name="afii10108" horiz-adv-x="1392" unicode="ћ" d="M1358 0h-602v73q20 2 47 5t40 10q21 11 29.5 32t8.5 62v461q0 103 -38.5 154t-109.5 51q-40 0 -74.5 -12t-67.5 -35q-29 -20 -46.5 -41t-29.5 -37v-530q0 -37 9 -58.5t34 -35.5q15 -9 39.5 -16t47.5 -10v-73h-608v73q26 2 50.5 5t43.5 10q32 12 43.5 34.5t11.5 59.5v969 h-239v99h239v47q0 32 -15 68t-42 54q-20 13 -58 20.5t-68 9.5v73l497 26l15 -16v-282h352v-99h-352v-314h4q38 34 68.5 61.5t74.5 55.5q37 24 96.5 41t128.5 17q162 0 243.5 -93t81.5 -245v-483q0 -37 11 -59t41 -35q18 -8 40 -14t54 -10v-73z"/>
<glyph glyph-name="afii10109" horiz-adv-x="1311" unicode="ќ" d="M1303 0h-464q-18 86 -32.5 146t-38.5 132q-30 90 -77.5 134.5t-150.5 46.5v-268q0 -35 10 -58t33 -36q16 -9 39.5 -15t47.5 -9v-73h-608v73q25 2 50.5 5.5t43.5 9.5q32 11 44 34t12 60v628q0 35 -12.5 59.5t-43.5 34.5q-26 8 -48 10.5t-46 4.5v73h608v-73 q-24 -3 -44.5 -7.5t-42.5 -16.5q-24 -13 -33.5 -37t-9.5 -57v-262h46q49 0 80 11.5t49 38.5q29 45 44 89t27 86q12 44 31 87t54 85t82 62.5t110 20.5q53 0 89.5 -15.5t57.5 -38.5q23 -24 32.5 -52.5t9.5 -58.5q0 -80 -43.5 -121t-103.5 -41q-51 0 -98.5 32t-81.5 72 q-23 -14 -36.5 -44.5t-26.5 -65.5q-14 -37 -28.5 -71.5t-42.5 -61.5q103 -19 174.5 -83.5t108.5 -152.5q17 -40 35.5 -83t31.5 -73q19 -42 45 -57.5t41 -17.5q14 -3 39 -7.5t37 -5.5v-73zM1020 1460q0 -45 -20.5 -72.5t-65.5 -56.5q-49 -32 -155 -90.5t-240 -139.5l-42 38 q88 117 136 186.5t83 118.5q43 61 82 82.5t97 21.5q48 0 86.5 -26t38.5 -62z"/>
<glyph glyph-name="afii10110" horiz-adv-x="1151" unicode="ў" d="M1002 1414q0 -36 -20 -81t-66 -84q-52 -43 -129.5 -68t-184.5 -25q-113 0 -189.5 26.5t-122.5 66.5q-45 38 -65 84t-20 81q0 54 34 91t85 37q55 0 97.5 -30.5t42.5 -84.5q0 -26 -18 -72.5t-27 -65.5q42 -34 92.5 -48t90.5 -14q39 0 93 15t93 47q-12 27 -28 64.5t-16 73.5 q0 46 38 80.5t100 34.5q52 0 86 -37t34 -91zM1188 919q-45 -7 -87.5 -34t-70.5 -84q-86 -182 -177 -387.5t-202 -444.5q-62 -134 -120 -214t-109 -123q-48 -40 -95 -58t-95 -18q-95 0 -153.5 53t-58.5 119q0 28 6.5 52t27.5 50q16 22 49.5 37.5t75.5 15.5q56 0 107 -39 t106 -108q33 33 81.5 98.5t71.5 134.5q-119 250 -211 433.5t-206 409.5q-25 48 -67 74.5t-89 32.5v73h612v-73q-34 -1 -78.5 -15t-44.5 -36q0 -8 3 -17.5t11 -27.5q34 -70 96.5 -194.5t145.5 -291.5q62 142 105.5 244.5t84.5 201.5q10 25 11.5 39.5t1.5 19.5 q0 18 -17.5 31.5t-41.5 23.5q-25 10 -48 15t-38 7v73h413v-73z"/>
<glyph glyph-name="afii10193" horiz-adv-x="1432" unicode="џ" d="M464 0h-402v73q25 2 50.5 5.5t43.5 9.5q32 11 44 34t12 60v628q0 35 -12.5 59.5t-43.5 34.5q-26 8 -48 10.5t-46 4.5v73h603v-73q-24 -3 -43.5 -7t-41.5 -16q-21 -11 -30.5 -33t-9.5 -62v-629q0 -21 1 -35.5t9 -29.5q8 -13 26.5 -21.5t47.5 -9.5q28 -1 56 -1.5t57 -0.5 q32 0 55.5 1t48.5 3q40 2 45.5 21t5.5 57v645q0 35 -8.5 58.5t-31.5 36.5q-19 11 -42.5 15.5t-42.5 7.5v73h603v-73q-30 -2 -50 -5t-44 -10q-29 -9 -42.5 -32.5t-13.5 -61.5v-628q0 -36 12.5 -60.5t43.5 -33.5q24 -7 42.5 -10t51.5 -5v-73h-402q-51 0 -88.5 -33t-62.5 -79 q-26 -45 -43 -104.5t-26 -94.5h-64q-10 45 -27.5 101t-41.5 98q-25 47 -63 79.5t-88 32.5z"/>
<glyph glyph-name="afii10050" horiz-adv-x="1331" unicode="Ґ" d="M1319 1309l-328 21l-359 -1v-1120q0 -37 16 -62.5t50 -39.5q21 -8 66 -15.5t93 -13.5v-78h-788v78q29 3 77 8.5t67 13.5q36 14 50 39t14 64v1001q0 34 -12.5 59.5t-51.5 42.5q-28 12 -74 22t-70 13v78h751q49 0 93 2.5t80 8.5q71 13 142.5 118.5t104.5 205.5h79v-445z "/>
<glyph glyph-name="afii10098" horiz-adv-x="1015" unicode="ґ" d="M1002 879l-187 20h-275v-716q0 -36 12.5 -60.5t43.5 -33.5q24 -7 46 -10.5t55 -5.5v-73h-635v73q25 2 50.5 5.5t43.5 9.5q32 11 44 34t12 60v628q0 35 -12.5 59.5t-43.5 34.5q-26 8 -48 10.5t-46 4.5v73h545q28 0 65 2t64 5q36 4 69.5 37.5t58.5 76.5q25 42 45 84.5 t28 69.5h65v-388z"/>
<glyph glyph-name="foursuperior" horiz-adv-x="1130" unicode="" d="M601 863v421l-354 -421h354zM989 716h-155v-246h-233v246h-477v139l502 600h208v-592h155v-147z"/>
<glyph glyph-name="Dieresis" horiz-adv-x="1024" unicode="" d="M403 1700q0 -67 -48 -117.5t-112 -50.5q-65 0 -112 50t-47 118q0 67 46.5 117.5t112.5 50.5q64 0 112 -50.5t48 -117.5zM939 1700q0 -67 -47.5 -117.5t-111.5 -50.5q-65 0 -112.5 50t-47.5 118q0 67 47 117.5t113 50.5q64 0 111.5 -50.5t47.5 -117.5z"/>
<glyph glyph-name="Acute" horiz-adv-x="1024" unicode="" d="M782 1768q0 -42 -26 -69t-75 -47q-56 -23 -168 -64t-260 -103l-33 41q102 97 155 151t110 115q38 40 73 58t74 18q65 0 107.5 -27.5t42.5 -72.5z"/>
<glyph glyph-name="Grave" horiz-adv-x="1024" unicode="" d="M804 1526l-33 -41q-163 70 -270 107.5t-158 59.5t-76 47.5t-25 68.5t42 71.5t108 28.5q40 0 73.5 -17t73.5 -59q46 -49 102.5 -107.5t162.5 -158.5z"/>
<glyph glyph-name="Circumflex" horiz-adv-x="1024" unicode="" d="M891 1513l-33 -29l-351 203l-344 -203l-33 29q104 128 155.5 189t85.5 105q23 30 54.5 45.5t85.5 15.5q55 0 81.5 -14t51.5 -43q41 -48 82.5 -98t164.5 -200z"/>
<glyph glyph-name="onequarter.ref1" d="M1580 1429l-818 -1429h-156l816 1429h158z" horiz-adv-x="2048"/>
<glyph glyph-name="onehalf.ref1" d="M1540 1429l-818 -1429h-156l816 1429h158z" horiz-adv-x="2048"/>
<glyph glyph-name="threequarters.ref1" d="M1677 1429l-818 -1429h-156l816 1429h158z" horiz-adv-x="2048"/>
</font>
</defs>
</svg>
